%TF.GenerationSoftware,KiCad,Pcbnew,10.0.5*%
%TF.CreationDate,2026-08-10T11:52:26+09:00*%
%TF.ProjectId,hacking_box_v2,6861636b-696e-4675-9f62-6f785f76322e,A0*%
%TF.SameCoordinates,Original*%
%TF.FileFunction,Soldermask,Bot*%
%TF.FilePolarity,Negative*%
%FSLAX46Y46*%
G04 Gerber Fmt 4.6, Leading zero omitted, Abs format (unit mm)*
G04 Created by KiCad (PCBNEW 10.0.5) date 2026-08-10 11:52:26*
%MOMM*%
%LPD*%
G01*
G04 APERTURE LIST*
%ADD10C,0.350000*%
%ADD11O,0.800000X1.700000*%
G04 APERTURE END LIST*
G36*
X58383199Y-102430142D02*
G01*
X58509978Y-102482655D01*
X58624075Y-102558893D01*
X58721107Y-102655925D01*
X58797345Y-102770022D01*
X58849858Y-102896801D01*
X58876629Y-103031388D01*
X58880000Y-103100000D01*
X58880000Y-104000000D01*
X58876629Y-104068612D01*
X58849858Y-104203199D01*
X58797345Y-104329978D01*
X58721107Y-104444075D01*
X58624075Y-104541107D01*
X58509978Y-104617345D01*
X58383199Y-104669858D01*
X58248612Y-104696629D01*
X58111388Y-104696629D01*
X57976801Y-104669858D01*
X57850022Y-104617345D01*
X57735925Y-104541107D01*
X57638893Y-104444075D01*
X57562655Y-104329978D01*
X57510142Y-104203199D01*
X57483371Y-104068612D01*
X57480000Y-104000000D01*
X57480000Y-103100000D01*
X57483371Y-103031388D01*
X57510142Y-102896801D01*
X57562655Y-102770022D01*
X57638893Y-102655925D01*
X57735925Y-102558893D01*
X57850022Y-102482655D01*
X57976801Y-102430142D01*
X58111388Y-102403371D01*
X58248612Y-102403371D01*
X58383199Y-102430142D01*
G37*
G36*
X67023199Y-102430142D02*
G01*
X67149978Y-102482655D01*
X67264075Y-102558893D01*
X67361107Y-102655925D01*
X67437345Y-102770022D01*
X67489858Y-102896801D01*
X67516629Y-103031388D01*
X67520000Y-103100000D01*
X67520000Y-104000000D01*
X67516629Y-104068612D01*
X67489858Y-104203199D01*
X67437345Y-104329978D01*
X67361107Y-104444075D01*
X67264075Y-104541107D01*
X67149978Y-104617345D01*
X67023199Y-104669858D01*
X66888612Y-104696629D01*
X66751388Y-104696629D01*
X66616801Y-104669858D01*
X66490022Y-104617345D01*
X66375925Y-104541107D01*
X66278893Y-104444075D01*
X66202655Y-104329978D01*
X66150142Y-104203199D01*
X66123371Y-104068612D01*
X66120000Y-104000000D01*
X66120000Y-103100000D01*
X66123371Y-103031388D01*
X66150142Y-102896801D01*
X66202655Y-102770022D01*
X66278893Y-102655925D01*
X66375925Y-102558893D01*
X66490022Y-102482655D01*
X66616801Y-102430142D01*
X66751388Y-102403371D01*
X66888612Y-102403371D01*
X67023199Y-102430142D01*
G37*
G36*
X58383199Y-98250142D02*
G01*
X58509978Y-98302655D01*
X58624075Y-98378893D01*
X58721107Y-98475925D01*
X58797345Y-98590022D01*
X58849858Y-98716801D01*
X58876629Y-98851388D01*
X58880000Y-98920000D01*
X58880000Y-99820000D01*
X58876629Y-99888612D01*
X58849858Y-100023199D01*
X58797345Y-100149978D01*
X58721107Y-100264075D01*
X58624075Y-100361107D01*
X58509978Y-100437345D01*
X58383199Y-100489858D01*
X58248612Y-100516629D01*
X58111388Y-100516629D01*
X57976801Y-100489858D01*
X57850022Y-100437345D01*
X57735925Y-100361107D01*
X57638893Y-100264075D01*
X57562655Y-100149978D01*
X57510142Y-100023199D01*
X57483371Y-99888612D01*
X57480000Y-99820000D01*
X57480000Y-98920000D01*
X57483371Y-98851388D01*
X57510142Y-98716801D01*
X57562655Y-98590022D01*
X57638893Y-98475925D01*
X57735925Y-98378893D01*
X57850022Y-98302655D01*
X57976801Y-98250142D01*
X58111388Y-98223371D01*
X58248612Y-98223371D01*
X58383199Y-98250142D01*
G37*
G36*
X67023199Y-98250142D02*
G01*
X67149978Y-98302655D01*
X67264075Y-98378893D01*
X67361107Y-98475925D01*
X67437345Y-98590022D01*
X67489858Y-98716801D01*
X67516629Y-98851388D01*
X67520000Y-98920000D01*
X67520000Y-99820000D01*
X67516629Y-99888612D01*
X67489858Y-100023199D01*
X67437345Y-100149978D01*
X67361107Y-100264075D01*
X67264075Y-100361107D01*
X67149978Y-100437345D01*
X67023199Y-100489858D01*
X66888612Y-100516629D01*
X66751388Y-100516629D01*
X66616801Y-100489858D01*
X66490022Y-100437345D01*
X66375925Y-100361107D01*
X66278893Y-100264075D01*
X66202655Y-100149978D01*
X66150142Y-100023199D01*
X66123371Y-99888612D01*
X66120000Y-99820000D01*
X66120000Y-98920000D01*
X66123371Y-98851388D01*
X66150142Y-98716801D01*
X66202655Y-98590022D01*
X66278893Y-98475925D01*
X66375925Y-98378893D01*
X66490022Y-98302655D01*
X66616801Y-98250142D01*
X66751388Y-98223371D01*
X66888612Y-98223371D01*
X67023199Y-98250142D01*
G37*
G36*
X59801342Y-99438060D02*
G01*
X59914381Y-99503323D01*
X60006677Y-99595619D01*
X60071940Y-99708658D01*
X60105722Y-99834737D01*
X60105722Y-99965263D01*
X60071940Y-100091342D01*
X60006677Y-100204381D01*
X59914381Y-100296677D01*
X59801342Y-100361940D01*
X59675263Y-100395722D01*
X59544737Y-100395722D01*
X59418658Y-100361940D01*
X59305619Y-100296677D01*
X59213323Y-100204381D01*
X59148060Y-100091342D01*
X59114278Y-99965263D01*
X59114278Y-99834737D01*
X59148060Y-99708658D01*
X59213323Y-99595619D01*
X59305619Y-99503323D01*
X59418658Y-99438060D01*
X59544737Y-99404278D01*
X59675263Y-99404278D01*
X59801342Y-99438060D01*
G37*
G36*
X65581342Y-99438060D02*
G01*
X65694381Y-99503323D01*
X65786677Y-99595619D01*
X65851940Y-99708658D01*
X65885722Y-99834737D01*
X65885722Y-99965263D01*
X65851940Y-100091342D01*
X65786677Y-100204381D01*
X65694381Y-100296677D01*
X65581342Y-100361940D01*
X65455263Y-100395722D01*
X65324737Y-100395722D01*
X65198658Y-100361940D01*
X65085619Y-100296677D01*
X64993323Y-100204381D01*
X64928060Y-100091342D01*
X64894278Y-99965263D01*
X64894278Y-99834737D01*
X64928060Y-99708658D01*
X64993323Y-99595619D01*
X65085619Y-99503323D01*
X65198658Y-99438060D01*
X65324737Y-99404278D01*
X65455263Y-99404278D01*
X65581342Y-99438060D01*
G37*
G36*
X28232228Y-70234448D02*
G01*
X28377117Y-70294463D01*
X28507515Y-70381592D01*
X28618408Y-70492485D01*
X28705537Y-70622883D01*
X28765552Y-70767772D01*
X28796148Y-70921586D01*
X28796148Y-71078414D01*
X28765552Y-71232228D01*
X28705537Y-71377117D01*
X28618408Y-71507515D01*
X28507515Y-71618408D01*
X28377117Y-71705537D01*
X28232228Y-71765552D01*
X28078414Y-71796148D01*
X27921586Y-71796148D01*
X27767772Y-71765552D01*
X27622883Y-71705537D01*
X27492485Y-71618408D01*
X27381592Y-71507515D01*
X27294463Y-71377117D01*
X27234448Y-71232228D01*
X27203852Y-71078414D01*
X27203852Y-70921586D01*
X27234448Y-70767772D01*
X27294463Y-70622883D01*
X27381592Y-70492485D01*
X27492485Y-70381592D01*
X27622883Y-70294463D01*
X27767772Y-70234448D01*
X27921586Y-70203852D01*
X28078414Y-70203852D01*
X28232228Y-70234448D01*
G37*
G36*
X34232228Y-70234448D02*
G01*
X34377117Y-70294463D01*
X34507515Y-70381592D01*
X34618408Y-70492485D01*
X34705537Y-70622883D01*
X34765552Y-70767772D01*
X34796148Y-70921586D01*
X34796148Y-71078414D01*
X34765552Y-71232228D01*
X34705537Y-71377117D01*
X34618408Y-71507515D01*
X34507515Y-71618408D01*
X34377117Y-71705537D01*
X34232228Y-71765552D01*
X34078414Y-71796148D01*
X33921586Y-71796148D01*
X33767772Y-71765552D01*
X33622883Y-71705537D01*
X33492485Y-71618408D01*
X33381592Y-71507515D01*
X33294463Y-71377117D01*
X33234448Y-71232228D01*
X33203852Y-71078414D01*
X33203852Y-70921586D01*
X33234448Y-70767772D01*
X33294463Y-70622883D01*
X33381592Y-70492485D01*
X33492485Y-70381592D01*
X33622883Y-70294463D01*
X33767772Y-70234448D01*
X33921586Y-70203852D01*
X34078414Y-70203852D01*
X34232228Y-70234448D01*
G37*
G36*
X40232228Y-70234448D02*
G01*
X40377117Y-70294463D01*
X40507515Y-70381592D01*
X40618408Y-70492485D01*
X40705537Y-70622883D01*
X40765552Y-70767772D01*
X40796148Y-70921586D01*
X40796148Y-71078414D01*
X40765552Y-71232228D01*
X40705537Y-71377117D01*
X40618408Y-71507515D01*
X40507515Y-71618408D01*
X40377117Y-71705537D01*
X40232228Y-71765552D01*
X40078414Y-71796148D01*
X39921586Y-71796148D01*
X39767772Y-71765552D01*
X39622883Y-71705537D01*
X39492485Y-71618408D01*
X39381592Y-71507515D01*
X39294463Y-71377117D01*
X39234448Y-71232228D01*
X39203852Y-71078414D01*
X39203852Y-70921586D01*
X39234448Y-70767772D01*
X39294463Y-70622883D01*
X39381592Y-70492485D01*
X39492485Y-70381592D01*
X39622883Y-70294463D01*
X39767772Y-70234448D01*
X39921586Y-70203852D01*
X40078414Y-70203852D01*
X40232228Y-70234448D01*
G37*
G36*
X28232228Y-63234448D02*
G01*
X28377117Y-63294463D01*
X28507515Y-63381592D01*
X28618408Y-63492485D01*
X28705537Y-63622883D01*
X28765552Y-63767772D01*
X28796148Y-63921586D01*
X28796148Y-64078414D01*
X28765552Y-64232228D01*
X28705537Y-64377117D01*
X28618408Y-64507515D01*
X28507515Y-64618408D01*
X28377117Y-64705537D01*
X28232228Y-64765552D01*
X28078414Y-64796148D01*
X27921586Y-64796148D01*
X27767772Y-64765552D01*
X27622883Y-64705537D01*
X27492485Y-64618408D01*
X27381592Y-64507515D01*
X27294463Y-64377117D01*
X27234448Y-64232228D01*
X27203852Y-64078414D01*
X27203852Y-63921586D01*
X27234448Y-63767772D01*
X27294463Y-63622883D01*
X27381592Y-63492485D01*
X27492485Y-63381592D01*
X27622883Y-63294463D01*
X27767772Y-63234448D01*
X27921586Y-63203852D01*
X28078414Y-63203852D01*
X28232228Y-63234448D01*
G37*
G36*
X34232228Y-63234448D02*
G01*
X34377117Y-63294463D01*
X34507515Y-63381592D01*
X34618408Y-63492485D01*
X34705537Y-63622883D01*
X34765552Y-63767772D01*
X34796148Y-63921586D01*
X34796148Y-64078414D01*
X34765552Y-64232228D01*
X34705537Y-64377117D01*
X34618408Y-64507515D01*
X34507515Y-64618408D01*
X34377117Y-64705537D01*
X34232228Y-64765552D01*
X34078414Y-64796148D01*
X33921586Y-64796148D01*
X33767772Y-64765552D01*
X33622883Y-64705537D01*
X33492485Y-64618408D01*
X33381592Y-64507515D01*
X33294463Y-64377117D01*
X33234448Y-64232228D01*
X33203852Y-64078414D01*
X33203852Y-63921586D01*
X33234448Y-63767772D01*
X33294463Y-63622883D01*
X33381592Y-63492485D01*
X33492485Y-63381592D01*
X33622883Y-63294463D01*
X33767772Y-63234448D01*
X33921586Y-63203852D01*
X34078414Y-63203852D01*
X34232228Y-63234448D01*
G37*
G36*
X40232228Y-63234448D02*
G01*
X40377117Y-63294463D01*
X40507515Y-63381592D01*
X40618408Y-63492485D01*
X40705537Y-63622883D01*
X40765552Y-63767772D01*
X40796148Y-63921586D01*
X40796148Y-64078414D01*
X40765552Y-64232228D01*
X40705537Y-64377117D01*
X40618408Y-64507515D01*
X40507515Y-64618408D01*
X40377117Y-64705537D01*
X40232228Y-64765552D01*
X40078414Y-64796148D01*
X39921586Y-64796148D01*
X39767772Y-64765552D01*
X39622883Y-64705537D01*
X39492485Y-64618408D01*
X39381592Y-64507515D01*
X39294463Y-64377117D01*
X39234448Y-64232228D01*
X39203852Y-64078414D01*
X39203852Y-63921586D01*
X39234448Y-63767772D01*
X39294463Y-63622883D01*
X39381592Y-63492485D01*
X39492485Y-63381592D01*
X39622883Y-63294463D01*
X39767772Y-63234448D01*
X39921586Y-63203852D01*
X40078414Y-63203852D01*
X40232228Y-63234448D01*
G37*
G36*
X28232228Y-56234448D02*
G01*
X28377117Y-56294463D01*
X28507515Y-56381592D01*
X28618408Y-56492485D01*
X28705537Y-56622883D01*
X28765552Y-56767772D01*
X28796148Y-56921586D01*
X28796148Y-57078414D01*
X28765552Y-57232228D01*
X28705537Y-57377117D01*
X28618408Y-57507515D01*
X28507515Y-57618408D01*
X28377117Y-57705537D01*
X28232228Y-57765552D01*
X28078414Y-57796148D01*
X27921586Y-57796148D01*
X27767772Y-57765552D01*
X27622883Y-57705537D01*
X27492485Y-57618408D01*
X27381592Y-57507515D01*
X27294463Y-57377117D01*
X27234448Y-57232228D01*
X27203852Y-57078414D01*
X27203852Y-56921586D01*
X27234448Y-56767772D01*
X27294463Y-56622883D01*
X27381592Y-56492485D01*
X27492485Y-56381592D01*
X27622883Y-56294463D01*
X27767772Y-56234448D01*
X27921586Y-56203852D01*
X28078414Y-56203852D01*
X28232228Y-56234448D01*
G37*
G36*
X34232228Y-56234448D02*
G01*
X34377117Y-56294463D01*
X34507515Y-56381592D01*
X34618408Y-56492485D01*
X34705537Y-56622883D01*
X34765552Y-56767772D01*
X34796148Y-56921586D01*
X34796148Y-57078414D01*
X34765552Y-57232228D01*
X34705537Y-57377117D01*
X34618408Y-57507515D01*
X34507515Y-57618408D01*
X34377117Y-57705537D01*
X34232228Y-57765552D01*
X34078414Y-57796148D01*
X33921586Y-57796148D01*
X33767772Y-57765552D01*
X33622883Y-57705537D01*
X33492485Y-57618408D01*
X33381592Y-57507515D01*
X33294463Y-57377117D01*
X33234448Y-57232228D01*
X33203852Y-57078414D01*
X33203852Y-56921586D01*
X33234448Y-56767772D01*
X33294463Y-56622883D01*
X33381592Y-56492485D01*
X33492485Y-56381592D01*
X33622883Y-56294463D01*
X33767772Y-56234448D01*
X33921586Y-56203852D01*
X34078414Y-56203852D01*
X34232228Y-56234448D01*
G37*
G36*
X40232228Y-56234448D02*
G01*
X40377117Y-56294463D01*
X40507515Y-56381592D01*
X40618408Y-56492485D01*
X40705537Y-56622883D01*
X40765552Y-56767772D01*
X40796148Y-56921586D01*
X40796148Y-57078414D01*
X40765552Y-57232228D01*
X40705537Y-57377117D01*
X40618408Y-57507515D01*
X40507515Y-57618408D01*
X40377117Y-57705537D01*
X40232228Y-57765552D01*
X40078414Y-57796148D01*
X39921586Y-57796148D01*
X39767772Y-57765552D01*
X39622883Y-57705537D01*
X39492485Y-57618408D01*
X39381592Y-57507515D01*
X39294463Y-57377117D01*
X39234448Y-57232228D01*
X39203852Y-57078414D01*
X39203852Y-56921586D01*
X39234448Y-56767772D01*
X39294463Y-56622883D01*
X39381592Y-56492485D01*
X39492485Y-56381592D01*
X39622883Y-56294463D01*
X39767772Y-56234448D01*
X39921586Y-56203852D01*
X40078414Y-56203852D01*
X40232228Y-56234448D01*
G37*
G36*
X51118462Y-49781775D02*
G01*
X51290086Y-49837539D01*
X51450873Y-49919464D01*
X51596865Y-50025533D01*
X51724467Y-50153135D01*
X51830536Y-50299127D01*
X51912461Y-50459914D01*
X51968225Y-50631538D01*
X51996455Y-50809772D01*
X51996455Y-50990228D01*
X51968225Y-51168462D01*
X51912461Y-51340086D01*
X51830536Y-51500873D01*
X51724467Y-51646865D01*
X51596865Y-51774467D01*
X51450873Y-51880536D01*
X51290086Y-51962461D01*
X51118462Y-52018225D01*
X50940228Y-52046455D01*
X50759772Y-52046455D01*
X50581538Y-52018225D01*
X50409914Y-51962461D01*
X50249127Y-51880536D01*
X50103135Y-51774467D01*
X49975533Y-51646865D01*
X49869464Y-51500873D01*
X49787539Y-51340086D01*
X49731775Y-51168462D01*
X49703545Y-50990228D01*
X49703545Y-50809772D01*
X49731775Y-50631538D01*
X49787539Y-50459914D01*
X49869464Y-50299127D01*
X49975533Y-50153135D01*
X50103135Y-50025533D01*
X50249127Y-49919464D01*
X50409914Y-49837539D01*
X50581538Y-49781775D01*
X50759772Y-49753545D01*
X50940228Y-49753545D01*
X51118462Y-49781775D01*
G37*
G36*
X74418462Y-49781775D02*
G01*
X74590086Y-49837539D01*
X74750873Y-49919464D01*
X74896865Y-50025533D01*
X75024467Y-50153135D01*
X75130536Y-50299127D01*
X75212461Y-50459914D01*
X75268225Y-50631538D01*
X75296455Y-50809772D01*
X75296455Y-50990228D01*
X75268225Y-51168462D01*
X75212461Y-51340086D01*
X75130536Y-51500873D01*
X75024467Y-51646865D01*
X74896865Y-51774467D01*
X74750873Y-51880536D01*
X74590086Y-51962461D01*
X74418462Y-52018225D01*
X74240228Y-52046455D01*
X74059772Y-52046455D01*
X73881538Y-52018225D01*
X73709914Y-51962461D01*
X73549127Y-51880536D01*
X73403135Y-51774467D01*
X73275533Y-51646865D01*
X73169464Y-51500873D01*
X73087539Y-51340086D01*
X73031775Y-51168462D01*
X73003545Y-50990228D01*
X73003545Y-50809772D01*
X73031775Y-50631538D01*
X73087539Y-50459914D01*
X73169464Y-50299127D01*
X73275533Y-50153135D01*
X73403135Y-50025533D01*
X73549127Y-49919464D01*
X73709914Y-49837539D01*
X73881538Y-49781775D01*
X74059772Y-49753545D01*
X74240228Y-49753545D01*
X74418462Y-49781775D01*
G37*
G36*
X34869134Y-30603806D02*
G01*
X34885355Y-30614645D01*
X34896194Y-30630866D01*
X34900000Y-30650000D01*
X34900000Y-32350000D01*
X34896194Y-32369134D01*
X34885355Y-32385355D01*
X34869134Y-32396194D01*
X34850000Y-32400000D01*
X33150000Y-32400000D01*
X33130866Y-32396194D01*
X33114645Y-32385355D01*
X33103806Y-32369134D01*
X33100000Y-32350000D01*
X33100000Y-30650000D01*
X33103806Y-30630866D01*
X33114645Y-30614645D01*
X33130866Y-30603806D01*
X33150000Y-30600000D01*
X34850000Y-30600000D01*
X34869134Y-30603806D01*
G37*
G36*
X36801256Y-30638754D02*
G01*
X36964257Y-30706271D01*
X37110954Y-30804291D01*
X37235709Y-30929046D01*
X37333729Y-31075743D01*
X37401246Y-31238744D01*
X37435666Y-31411785D01*
X37435666Y-31588215D01*
X37401246Y-31761256D01*
X37333729Y-31924257D01*
X37235709Y-32070954D01*
X37110954Y-32195709D01*
X36964257Y-32293729D01*
X36801256Y-32361246D01*
X36628215Y-32395666D01*
X36451785Y-32395666D01*
X36278744Y-32361246D01*
X36115743Y-32293729D01*
X35969046Y-32195709D01*
X35844291Y-32070954D01*
X35746271Y-31924257D01*
X35678754Y-31761256D01*
X35644334Y-31588215D01*
X35644334Y-31411785D01*
X35678754Y-31238744D01*
X35746271Y-31075743D01*
X35844291Y-30929046D01*
X35969046Y-30804291D01*
X36115743Y-30706271D01*
X36278744Y-30638754D01*
X36451785Y-30604334D01*
X36628215Y-30604334D01*
X36801256Y-30638754D01*
G37*
G36*
X39341256Y-30638754D02*
G01*
X39504257Y-30706271D01*
X39650954Y-30804291D01*
X39775709Y-30929046D01*
X39873729Y-31075743D01*
X39941246Y-31238744D01*
X39975666Y-31411785D01*
X39975666Y-31588215D01*
X39941246Y-31761256D01*
X39873729Y-31924257D01*
X39775709Y-32070954D01*
X39650954Y-32195709D01*
X39504257Y-32293729D01*
X39341256Y-32361246D01*
X39168215Y-32395666D01*
X38991785Y-32395666D01*
X38818744Y-32361246D01*
X38655743Y-32293729D01*
X38509046Y-32195709D01*
X38384291Y-32070954D01*
X38286271Y-31924257D01*
X38218754Y-31761256D01*
X38184334Y-31588215D01*
X38184334Y-31411785D01*
X38218754Y-31238744D01*
X38286271Y-31075743D01*
X38384291Y-30929046D01*
X38509046Y-30804291D01*
X38655743Y-30706271D01*
X38818744Y-30638754D01*
X38991785Y-30604334D01*
X39168215Y-30604334D01*
X39341256Y-30638754D01*
G37*
G36*
X41881256Y-30638754D02*
G01*
X42044257Y-30706271D01*
X42190954Y-30804291D01*
X42315709Y-30929046D01*
X42413729Y-31075743D01*
X42481246Y-31238744D01*
X42515666Y-31411785D01*
X42515666Y-31588215D01*
X42481246Y-31761256D01*
X42413729Y-31924257D01*
X42315709Y-32070954D01*
X42190954Y-32195709D01*
X42044257Y-32293729D01*
X41881256Y-32361246D01*
X41708215Y-32395666D01*
X41531785Y-32395666D01*
X41358744Y-32361246D01*
X41195743Y-32293729D01*
X41049046Y-32195709D01*
X40924291Y-32070954D01*
X40826271Y-31924257D01*
X40758754Y-31761256D01*
X40724334Y-31588215D01*
X40724334Y-31411785D01*
X40758754Y-31238744D01*
X40826271Y-31075743D01*
X40924291Y-30929046D01*
X41049046Y-30804291D01*
X41195743Y-30706271D01*
X41358744Y-30638754D01*
X41531785Y-30604334D01*
X41708215Y-30604334D01*
X41881256Y-30638754D01*
G37*
G36*
X59709134Y-26593806D02*
G01*
X59725355Y-26604645D01*
X59736194Y-26620866D01*
X59740000Y-26640000D01*
X59740000Y-28640000D01*
X59736194Y-28659134D01*
X59725355Y-28675355D01*
X59709134Y-28686194D01*
X59690000Y-28690000D01*
X57690000Y-28690000D01*
X57670866Y-28686194D01*
X57654645Y-28675355D01*
X57643806Y-28659134D01*
X57640000Y-28640000D01*
X57640000Y-26640000D01*
X57643806Y-26620866D01*
X57654645Y-26604645D01*
X57670866Y-26593806D01*
X57690000Y-26590000D01*
X59690000Y-26590000D01*
X59709134Y-26593806D01*
G37*
G36*
X61322587Y-26595056D02*
G01*
X61332918Y-26595056D01*
X61373289Y-26603086D01*
X61475071Y-26619207D01*
X61507811Y-26629844D01*
X61534799Y-26635213D01*
X61572879Y-26650986D01*
X61631743Y-26670112D01*
X61686890Y-26698211D01*
X61724967Y-26713983D01*
X61747842Y-26729268D01*
X61778518Y-26744898D01*
X61861901Y-26805479D01*
X61896113Y-26828339D01*
X61903414Y-26835640D01*
X61911789Y-26841725D01*
X62028274Y-26958210D01*
X62034358Y-26966584D01*
X62041661Y-26973887D01*
X62064523Y-27008103D01*
X62125101Y-27091481D01*
X62140729Y-27122154D01*
X62156017Y-27145033D01*
X62171790Y-27183114D01*
X62199887Y-27238256D01*
X62219010Y-27297113D01*
X62234787Y-27335201D01*
X62240156Y-27362194D01*
X62250792Y-27394928D01*
X62266912Y-27496702D01*
X62274944Y-27537082D01*
X62274944Y-27547413D01*
X62276563Y-27557635D01*
X62276563Y-27722364D01*
X62274944Y-27732585D01*
X62274944Y-27742918D01*
X62266911Y-27783300D01*
X62250792Y-27885071D01*
X62240156Y-27917803D01*
X62234787Y-27944799D01*
X62219009Y-27982890D01*
X62199887Y-28041743D01*
X62171793Y-28096880D01*
X62156017Y-28134967D01*
X62140727Y-28157849D01*
X62125101Y-28188518D01*
X62064531Y-28271884D01*
X62041661Y-28306113D01*
X62034355Y-28313418D01*
X62028274Y-28321789D01*
X61911789Y-28438274D01*
X61903418Y-28444355D01*
X61896113Y-28451661D01*
X61861884Y-28474531D01*
X61778518Y-28535101D01*
X61747849Y-28550727D01*
X61724967Y-28566017D01*
X61686880Y-28581793D01*
X61631743Y-28609887D01*
X61572890Y-28629009D01*
X61534799Y-28644787D01*
X61507803Y-28650156D01*
X61475071Y-28660792D01*
X61373298Y-28676911D01*
X61332918Y-28684944D01*
X61322587Y-28684944D01*
X61312365Y-28686563D01*
X61147635Y-28686563D01*
X61137413Y-28684944D01*
X61127082Y-28684944D01*
X61086702Y-28676912D01*
X60984928Y-28660792D01*
X60952194Y-28650156D01*
X60925201Y-28644787D01*
X60887113Y-28629010D01*
X60828256Y-28609887D01*
X60773114Y-28581790D01*
X60735033Y-28566017D01*
X60712154Y-28550729D01*
X60681481Y-28535101D01*
X60598103Y-28474523D01*
X60563887Y-28451661D01*
X60556584Y-28444358D01*
X60548210Y-28438274D01*
X60431725Y-28321789D01*
X60425640Y-28313414D01*
X60418339Y-28306113D01*
X60395479Y-28271901D01*
X60334898Y-28188518D01*
X60319268Y-28157842D01*
X60303983Y-28134967D01*
X60288211Y-28096890D01*
X60260112Y-28041743D01*
X60240986Y-27982879D01*
X60225213Y-27944799D01*
X60219844Y-27917811D01*
X60209207Y-27885071D01*
X60193086Y-27783291D01*
X60185056Y-27742918D01*
X60185056Y-27732586D01*
X60183437Y-27722364D01*
X60183437Y-27557635D01*
X60185056Y-27547412D01*
X60185056Y-27537082D01*
X60193086Y-27496712D01*
X60209207Y-27394928D01*
X60219845Y-27362186D01*
X60225213Y-27335201D01*
X60240984Y-27297124D01*
X60260112Y-27238256D01*
X60288213Y-27183103D01*
X60303983Y-27145033D01*
X60319266Y-27122160D01*
X60334898Y-27091481D01*
X60395487Y-27008086D01*
X60418339Y-26973887D01*
X60425638Y-26966587D01*
X60431725Y-26958210D01*
X60548210Y-26841725D01*
X60556587Y-26835638D01*
X60563887Y-26828339D01*
X60598086Y-26805487D01*
X60681481Y-26744898D01*
X60712160Y-26729266D01*
X60735033Y-26713983D01*
X60773103Y-26698213D01*
X60828256Y-26670112D01*
X60887124Y-26650984D01*
X60925201Y-26635213D01*
X60952186Y-26629845D01*
X60984928Y-26619207D01*
X61086712Y-26603086D01*
X61127082Y-26595056D01*
X61137413Y-26595056D01*
X61147635Y-26593437D01*
X61312365Y-26593437D01*
X61322587Y-26595056D01*
G37*
G36*
X63862587Y-26595056D02*
G01*
X63872918Y-26595056D01*
X63913289Y-26603086D01*
X64015071Y-26619207D01*
X64047811Y-26629844D01*
X64074799Y-26635213D01*
X64112879Y-26650986D01*
X64171743Y-26670112D01*
X64226890Y-26698211D01*
X64264967Y-26713983D01*
X64287842Y-26729268D01*
X64318518Y-26744898D01*
X64401901Y-26805479D01*
X64436113Y-26828339D01*
X64443414Y-26835640D01*
X64451789Y-26841725D01*
X64568274Y-26958210D01*
X64574358Y-26966584D01*
X64581661Y-26973887D01*
X64604523Y-27008103D01*
X64665101Y-27091481D01*
X64680729Y-27122154D01*
X64696017Y-27145033D01*
X64711790Y-27183114D01*
X64739887Y-27238256D01*
X64759010Y-27297113D01*
X64774787Y-27335201D01*
X64780156Y-27362194D01*
X64790792Y-27394928D01*
X64806912Y-27496702D01*
X64814944Y-27537082D01*
X64814944Y-27547413D01*
X64816563Y-27557635D01*
X64816563Y-27722364D01*
X64814944Y-27732585D01*
X64814944Y-27742918D01*
X64806911Y-27783300D01*
X64790792Y-27885071D01*
X64780156Y-27917803D01*
X64774787Y-27944799D01*
X64759009Y-27982890D01*
X64739887Y-28041743D01*
X64711793Y-28096880D01*
X64696017Y-28134967D01*
X64680727Y-28157849D01*
X64665101Y-28188518D01*
X64604531Y-28271884D01*
X64581661Y-28306113D01*
X64574355Y-28313418D01*
X64568274Y-28321789D01*
X64451789Y-28438274D01*
X64443418Y-28444355D01*
X64436113Y-28451661D01*
X64401884Y-28474531D01*
X64318518Y-28535101D01*
X64287849Y-28550727D01*
X64264967Y-28566017D01*
X64226880Y-28581793D01*
X64171743Y-28609887D01*
X64112890Y-28629009D01*
X64074799Y-28644787D01*
X64047803Y-28650156D01*
X64015071Y-28660792D01*
X63913298Y-28676911D01*
X63872918Y-28684944D01*
X63862587Y-28684944D01*
X63852365Y-28686563D01*
X63687635Y-28686563D01*
X63677413Y-28684944D01*
X63667082Y-28684944D01*
X63626702Y-28676912D01*
X63524928Y-28660792D01*
X63492194Y-28650156D01*
X63465201Y-28644787D01*
X63427113Y-28629010D01*
X63368256Y-28609887D01*
X63313114Y-28581790D01*
X63275033Y-28566017D01*
X63252154Y-28550729D01*
X63221481Y-28535101D01*
X63138103Y-28474523D01*
X63103887Y-28451661D01*
X63096584Y-28444358D01*
X63088210Y-28438274D01*
X62971725Y-28321789D01*
X62965640Y-28313414D01*
X62958339Y-28306113D01*
X62935479Y-28271901D01*
X62874898Y-28188518D01*
X62859268Y-28157842D01*
X62843983Y-28134967D01*
X62828211Y-28096890D01*
X62800112Y-28041743D01*
X62780986Y-27982879D01*
X62765213Y-27944799D01*
X62759844Y-27917811D01*
X62749207Y-27885071D01*
X62733086Y-27783291D01*
X62725056Y-27742918D01*
X62725056Y-27732586D01*
X62723437Y-27722364D01*
X62723437Y-27557635D01*
X62725056Y-27547412D01*
X62725056Y-27537082D01*
X62733086Y-27496712D01*
X62749207Y-27394928D01*
X62759845Y-27362186D01*
X62765213Y-27335201D01*
X62780984Y-27297124D01*
X62800112Y-27238256D01*
X62828213Y-27183103D01*
X62843983Y-27145033D01*
X62859266Y-27122160D01*
X62874898Y-27091481D01*
X62935487Y-27008086D01*
X62958339Y-26973887D01*
X62965638Y-26966587D01*
X62971725Y-26958210D01*
X63088210Y-26841725D01*
X63096587Y-26835638D01*
X63103887Y-26828339D01*
X63138086Y-26805487D01*
X63221481Y-26744898D01*
X63252160Y-26729266D01*
X63275033Y-26713983D01*
X63313103Y-26698213D01*
X63368256Y-26670112D01*
X63427124Y-26650984D01*
X63465201Y-26635213D01*
X63492186Y-26629845D01*
X63524928Y-26619207D01*
X63626712Y-26603086D01*
X63667082Y-26595056D01*
X63677413Y-26595056D01*
X63687635Y-26593437D01*
X63852365Y-26593437D01*
X63862587Y-26595056D01*
G37*
G36*
X66402587Y-26595056D02*
G01*
X66412918Y-26595056D01*
X66453289Y-26603086D01*
X66555071Y-26619207D01*
X66587811Y-26629844D01*
X66614799Y-26635213D01*
X66652879Y-26650986D01*
X66711743Y-26670112D01*
X66766890Y-26698211D01*
X66804967Y-26713983D01*
X66827842Y-26729268D01*
X66858518Y-26744898D01*
X66941901Y-26805479D01*
X66976113Y-26828339D01*
X66983414Y-26835640D01*
X66991789Y-26841725D01*
X67108274Y-26958210D01*
X67114358Y-26966584D01*
X67121661Y-26973887D01*
X67144523Y-27008103D01*
X67205101Y-27091481D01*
X67220729Y-27122154D01*
X67236017Y-27145033D01*
X67251790Y-27183114D01*
X67279887Y-27238256D01*
X67299010Y-27297113D01*
X67314787Y-27335201D01*
X67320156Y-27362194D01*
X67330792Y-27394928D01*
X67346912Y-27496702D01*
X67354944Y-27537082D01*
X67354944Y-27547413D01*
X67356563Y-27557635D01*
X67356563Y-27722364D01*
X67354944Y-27732585D01*
X67354944Y-27742918D01*
X67346911Y-27783300D01*
X67330792Y-27885071D01*
X67320156Y-27917803D01*
X67314787Y-27944799D01*
X67299009Y-27982890D01*
X67279887Y-28041743D01*
X67251793Y-28096880D01*
X67236017Y-28134967D01*
X67220727Y-28157849D01*
X67205101Y-28188518D01*
X67144531Y-28271884D01*
X67121661Y-28306113D01*
X67114355Y-28313418D01*
X67108274Y-28321789D01*
X66991789Y-28438274D01*
X66983418Y-28444355D01*
X66976113Y-28451661D01*
X66941884Y-28474531D01*
X66858518Y-28535101D01*
X66827849Y-28550727D01*
X66804967Y-28566017D01*
X66766880Y-28581793D01*
X66711743Y-28609887D01*
X66652890Y-28629009D01*
X66614799Y-28644787D01*
X66587803Y-28650156D01*
X66555071Y-28660792D01*
X66453298Y-28676911D01*
X66412918Y-28684944D01*
X66402587Y-28684944D01*
X66392365Y-28686563D01*
X66227635Y-28686563D01*
X66217413Y-28684944D01*
X66207082Y-28684944D01*
X66166702Y-28676912D01*
X66064928Y-28660792D01*
X66032194Y-28650156D01*
X66005201Y-28644787D01*
X65967113Y-28629010D01*
X65908256Y-28609887D01*
X65853114Y-28581790D01*
X65815033Y-28566017D01*
X65792154Y-28550729D01*
X65761481Y-28535101D01*
X65678103Y-28474523D01*
X65643887Y-28451661D01*
X65636584Y-28444358D01*
X65628210Y-28438274D01*
X65511725Y-28321789D01*
X65505640Y-28313414D01*
X65498339Y-28306113D01*
X65475479Y-28271901D01*
X65414898Y-28188518D01*
X65399268Y-28157842D01*
X65383983Y-28134967D01*
X65368211Y-28096890D01*
X65340112Y-28041743D01*
X65320986Y-27982879D01*
X65305213Y-27944799D01*
X65299844Y-27917811D01*
X65289207Y-27885071D01*
X65273086Y-27783291D01*
X65265056Y-27742918D01*
X65265056Y-27732586D01*
X65263437Y-27722364D01*
X65263437Y-27557635D01*
X65265056Y-27547412D01*
X65265056Y-27537082D01*
X65273086Y-27496712D01*
X65289207Y-27394928D01*
X65299845Y-27362186D01*
X65305213Y-27335201D01*
X65320984Y-27297124D01*
X65340112Y-27238256D01*
X65368213Y-27183103D01*
X65383983Y-27145033D01*
X65399266Y-27122160D01*
X65414898Y-27091481D01*
X65475487Y-27008086D01*
X65498339Y-26973887D01*
X65505638Y-26966587D01*
X65511725Y-26958210D01*
X65628210Y-26841725D01*
X65636587Y-26835638D01*
X65643887Y-26828339D01*
X65678086Y-26805487D01*
X65761481Y-26744898D01*
X65792160Y-26729266D01*
X65815033Y-26713983D01*
X65853103Y-26698213D01*
X65908256Y-26670112D01*
X65967124Y-26650984D01*
X66005201Y-26635213D01*
X66032186Y-26629845D01*
X66064928Y-26619207D01*
X66166712Y-26603086D01*
X66207082Y-26595056D01*
X66217413Y-26595056D01*
X66227635Y-26593437D01*
X66392365Y-26593437D01*
X66402587Y-26595056D01*
G37*
G36*
X51118462Y-25981775D02*
G01*
X51290086Y-26037539D01*
X51450873Y-26119464D01*
X51596865Y-26225533D01*
X51724467Y-26353135D01*
X51830536Y-26499127D01*
X51912461Y-26659914D01*
X51968225Y-26831538D01*
X51996455Y-27009772D01*
X51996455Y-27190228D01*
X51968225Y-27368462D01*
X51912461Y-27540086D01*
X51830536Y-27700873D01*
X51724467Y-27846865D01*
X51596865Y-27974467D01*
X51450873Y-28080536D01*
X51290086Y-28162461D01*
X51118462Y-28218225D01*
X50940228Y-28246455D01*
X50759772Y-28246455D01*
X50581538Y-28218225D01*
X50409914Y-28162461D01*
X50249127Y-28080536D01*
X50103135Y-27974467D01*
X49975533Y-27846865D01*
X49869464Y-27700873D01*
X49787539Y-27540086D01*
X49731775Y-27368462D01*
X49703545Y-27190228D01*
X49703545Y-27009772D01*
X49731775Y-26831538D01*
X49787539Y-26659914D01*
X49869464Y-26499127D01*
X49975533Y-26353135D01*
X50103135Y-26225533D01*
X50249127Y-26119464D01*
X50409914Y-26037539D01*
X50581538Y-25981775D01*
X50759772Y-25953545D01*
X50940228Y-25953545D01*
X51118462Y-25981775D01*
G37*
G36*
X74418462Y-25981775D02*
G01*
X74590086Y-26037539D01*
X74750873Y-26119464D01*
X74896865Y-26225533D01*
X75024467Y-26353135D01*
X75130536Y-26499127D01*
X75212461Y-26659914D01*
X75268225Y-26831538D01*
X75296455Y-27009772D01*
X75296455Y-27190228D01*
X75268225Y-27368462D01*
X75212461Y-27540086D01*
X75130536Y-27700873D01*
X75024467Y-27846865D01*
X74896865Y-27974467D01*
X74750873Y-28080536D01*
X74590086Y-28162461D01*
X74418462Y-28218225D01*
X74240228Y-28246455D01*
X74059772Y-28246455D01*
X73881538Y-28218225D01*
X73709914Y-28162461D01*
X73549127Y-28080536D01*
X73403135Y-27974467D01*
X73275533Y-27846865D01*
X73169464Y-27700873D01*
X73087539Y-27540086D01*
X73031775Y-27368462D01*
X73003545Y-27190228D01*
X73003545Y-27009772D01*
X73031775Y-26831538D01*
X73087539Y-26659914D01*
X73169464Y-26499127D01*
X73275533Y-26353135D01*
X73403135Y-26225533D01*
X73549127Y-26119464D01*
X73709914Y-26037539D01*
X73881538Y-25981775D01*
X74059772Y-25953545D01*
X74240228Y-25953545D01*
X74418462Y-25981775D01*
G37*
G36*
X33826824Y-22638682D02*
G01*
X34035757Y-22706569D01*
X34231498Y-22806304D01*
X34409227Y-22935432D01*
X34564568Y-23090773D01*
X34693696Y-23268502D01*
X34793431Y-23464243D01*
X34861318Y-23673176D01*
X34895684Y-23890157D01*
X34895684Y-24109843D01*
X34861318Y-24326824D01*
X34793431Y-24535757D01*
X34693696Y-24731498D01*
X34564568Y-24909227D01*
X34409227Y-25064568D01*
X34231498Y-25193696D01*
X34035757Y-25293431D01*
X33826824Y-25361318D01*
X33609843Y-25395684D01*
X33390157Y-25395684D01*
X33173176Y-25361318D01*
X32964243Y-25293431D01*
X32768502Y-25193696D01*
X32590773Y-25064568D01*
X32435432Y-24909227D01*
X32306304Y-24731498D01*
X32206569Y-24535757D01*
X32138682Y-24326824D01*
X32104316Y-24109843D01*
X32104316Y-23890157D01*
X32138682Y-23673176D01*
X32206569Y-23464243D01*
X32306304Y-23268502D01*
X32435432Y-23090773D01*
X32590773Y-22935432D01*
X32768502Y-22806304D01*
X32964243Y-22706569D01*
X33173176Y-22638682D01*
X33390157Y-22604316D01*
X33609843Y-22604316D01*
X33826824Y-22638682D01*
G37*
G36*
X91826824Y-22638682D02*
G01*
X92035757Y-22706569D01*
X92231498Y-22806304D01*
X92409227Y-22935432D01*
X92564568Y-23090773D01*
X92693696Y-23268502D01*
X92793431Y-23464243D01*
X92861318Y-23673176D01*
X92895684Y-23890157D01*
X92895684Y-24109843D01*
X92861318Y-24326824D01*
X92793431Y-24535757D01*
X92693696Y-24731498D01*
X92564568Y-24909227D01*
X92409227Y-25064568D01*
X92231498Y-25193696D01*
X92035757Y-25293431D01*
X91826824Y-25361318D01*
X91609843Y-25395684D01*
X91390157Y-25395684D01*
X91173176Y-25361318D01*
X90964243Y-25293431D01*
X90768502Y-25193696D01*
X90590773Y-25064568D01*
X90435432Y-24909227D01*
X90306304Y-24731498D01*
X90206569Y-24535757D01*
X90138682Y-24326824D01*
X90104316Y-24109843D01*
X90104316Y-23890157D01*
X90138682Y-23673176D01*
X90206569Y-23464243D01*
X90306304Y-23268502D01*
X90435432Y-23090773D01*
X90590773Y-22935432D01*
X90768502Y-22806304D01*
X90964243Y-22706569D01*
X91173176Y-22638682D01*
X91390157Y-22604316D01*
X91609843Y-22604316D01*
X91826824Y-22638682D01*
G37*
D10*
X34000000Y-31500000D03*
X36540000Y-31500000D03*
X39080000Y-31500000D03*
X41620000Y-31500000D03*
X50850000Y-27100000D03*
X50850000Y-50900000D03*
X74150000Y-27100000D03*
X74150000Y-50900000D03*
X58690000Y-27640000D03*
X61230000Y-27640000D03*
X63770000Y-27640000D03*
X66310000Y-27640000D03*
X91500000Y-24000000D03*
X59610000Y-99900000D03*
X65390000Y-99900000D03*
D11*
X58180000Y-99370000D03*
X58180000Y-103550000D03*
X66820000Y-99370000D03*
X66820000Y-103550000D03*
D10*
X33500000Y-24000000D03*
M02*
