%TF.GenerationSoftware,KiCad,Pcbnew,10.0.5*%
%TF.CreationDate,2026-08-10T11:52:26+09:00*%
%TF.ProjectId,hacking_box_v2,6861636b-696e-4675-9f62-6f785f76322e,A0*%
%TF.SameCoordinates,Original*%
%TF.FileFunction,Profile,NP*%
%FSLAX46Y46*%
G04 Gerber Fmt 4.6, Leading zero omitted, Abs format (unit mm)*
G04 Created by KiCad (PCBNEW 10.0.5) date 2026-08-10 11:52:26*
%MOMM*%
%LPD*%
G01*
G04 APERTURE LIST*
%TA.AperFunction,Profile*%
%ADD10C,0.050000*%
%TD*%
G04 APERTURE END LIST*
D10*
X20500000Y-70783154D02*
X20986395Y-76317883D01*
X20584199Y-65423486D02*
X20500000Y-70783154D01*
X20986395Y-76317883D02*
X22211612Y-81749878D01*
X21070765Y-60516672D02*
X20584199Y-65423486D01*
X21791472Y-56340505D02*
X21070765Y-60516672D01*
X22211612Y-81749878D02*
X24343877Y-86801349D01*
X22578092Y-53172777D02*
X21791472Y-56340505D01*
X23271266Y-50564346D02*
X22578092Y-53172777D01*
X23682460Y-17188222D02*
X23743480Y-17493081D01*
X23694396Y-16896125D02*
X23682460Y-17188222D01*
X23743480Y-17493081D02*
X24621266Y-20893021D01*
X23771012Y-16624368D02*
X23694396Y-16896125D01*
X23904029Y-16380525D02*
X23771012Y-16624368D01*
X23929119Y-47492113D02*
X23271266Y-50564346D01*
X24085170Y-16172172D02*
X23904029Y-16380525D01*
X24306157Y-16006883D02*
X24085170Y-16172172D01*
X24343877Y-86801349D02*
X27551419Y-91194500D01*
X24516843Y-44050043D02*
X23929119Y-47492113D01*
X24558712Y-15892234D02*
X24306157Y-16006883D01*
X24621266Y-20893021D02*
X25185270Y-24580871D01*
X24834557Y-15835800D02*
X24558712Y-15892234D01*
X24999631Y-40332099D02*
X24516843Y-44050043D01*
X25125416Y-15845157D02*
X24834557Y-15835800D01*
X25185270Y-24580871D02*
X25470302Y-28462668D01*
X25342675Y-36432246D02*
X24999631Y-40332099D01*
X25423010Y-15927879D02*
X25125416Y-15845157D01*
X25470302Y-28462668D02*
X25511168Y-32444448D01*
X25511168Y-32444448D02*
X25342675Y-36432246D01*
X27551419Y-91194500D02*
X32002465Y-94651539D01*
X27661540Y-16777576D02*
X25423010Y-15927879D01*
X30417040Y-17633448D02*
X27661540Y-16777576D01*
X32002465Y-94651539D02*
X37865240Y-96894673D01*
X33610589Y-18376106D02*
X30417040Y-17633448D01*
X37163265Y-18886163D02*
X33610589Y-18376106D01*
X37865240Y-96894673D02*
X42289370Y-98052455D01*
X40996149Y-19044232D02*
X37163265Y-18886163D01*
X42289370Y-98052455D02*
X46156838Y-99311207D01*
X45030320Y-18730923D02*
X40996149Y-19044232D01*
X46156838Y-99311207D02*
X49504304Y-100641144D01*
X49186856Y-17826850D02*
X45030320Y-18730923D01*
X49504304Y-100641144D02*
X52368425Y-102012487D01*
X52368425Y-102012487D02*
X54785859Y-103395451D01*
X53386837Y-16212625D02*
X49186856Y-17826850D01*
X54785859Y-103395451D02*
X56793266Y-104760255D01*
X56793266Y-104760255D02*
X58427303Y-106077118D01*
X57551342Y-13768860D02*
X53386837Y-16212625D01*
X58427303Y-106077118D02*
X59724628Y-107316257D01*
X59724628Y-107316257D02*
X60721900Y-108447890D01*
X60721900Y-108447890D02*
X61455778Y-109442234D01*
X61455778Y-109442234D02*
X61621434Y-109643030D01*
X61601451Y-10376167D02*
X57551342Y-13768860D01*
X61621434Y-109643030D02*
X61815471Y-109799204D01*
X61761041Y-10240747D02*
X61601451Y-10376167D01*
X61815471Y-109799204D02*
X62030794Y-109910757D01*
X61934204Y-10135420D02*
X61761041Y-10240747D01*
X62030794Y-109910757D02*
X62260307Y-109977689D01*
X62117547Y-10060186D02*
X61934204Y-10135420D01*
X62260307Y-109977689D02*
X62496915Y-110000000D01*
X62307676Y-10015046D02*
X62117547Y-10060186D01*
X62496915Y-110000000D02*
X62733523Y-109977689D01*
X62501199Y-10000000D02*
X62307676Y-10015046D01*
X62694722Y-10015046D02*
X62501199Y-10000000D01*
X62733523Y-109977689D02*
X62963036Y-109910757D01*
X62884852Y-10060186D02*
X62694722Y-10015046D01*
X62963036Y-109910757D02*
X63178358Y-109799204D01*
X63068195Y-10135420D02*
X62884852Y-10060186D01*
X63178358Y-109799204D02*
X63372395Y-109643030D01*
X63241358Y-10240747D02*
X63068195Y-10135420D01*
X63372395Y-109643030D02*
X63538052Y-109442234D01*
X63400947Y-10376167D02*
X63241358Y-10240747D01*
X63538052Y-109442234D02*
X64271929Y-108445788D01*
X64271929Y-108445788D02*
X65269201Y-107312936D01*
X65269201Y-107312936D02*
X66566527Y-106073305D01*
X66566527Y-106073305D02*
X68200563Y-104756520D01*
X67451056Y-13768860D02*
X63400947Y-10376167D01*
X68200563Y-104756520D02*
X70207970Y-103392208D01*
X70207970Y-103392208D02*
X72625404Y-102009996D01*
X71615561Y-16212625D02*
X67451056Y-13768860D01*
X72625404Y-102009996D02*
X75489525Y-100639510D01*
X75489525Y-100639510D02*
X78836991Y-99310377D01*
X75815543Y-17826850D02*
X71615561Y-16212625D01*
X78836991Y-99310377D02*
X82704459Y-98052222D01*
X79972079Y-18730923D02*
X75815543Y-17826850D01*
X82704459Y-98052222D02*
X87128589Y-96894673D01*
X84006249Y-19044232D02*
X79972079Y-18730923D01*
X87128589Y-96894673D02*
X92993678Y-94651539D01*
X87839133Y-18886163D02*
X84006249Y-19044232D01*
X91391810Y-18376106D02*
X87839133Y-18886163D01*
X92993678Y-94651539D02*
X97446523Y-91194500D01*
X94585358Y-17633448D02*
X91391810Y-18376106D01*
X97340858Y-16777576D02*
X94585358Y-17633448D01*
X97446523Y-91194500D02*
X100655350Y-86801349D01*
X99493698Y-32438222D02*
X99533716Y-28457220D01*
X99533716Y-28457220D02*
X99817950Y-24576720D01*
X99579389Y-15927879D02*
X97340858Y-16777576D01*
X99662937Y-36425760D02*
X99493698Y-32438222D01*
X99817950Y-24576720D02*
X100381364Y-20890686D01*
X99876983Y-15845157D02*
X99579389Y-15927879D01*
X100006469Y-40325873D02*
X99662937Y-36425760D01*
X100167841Y-15835800D02*
X99876983Y-15845157D01*
X100381364Y-20890686D02*
X101258918Y-17493081D01*
X100443687Y-15892234D02*
X100167841Y-15835800D01*
X100489334Y-44044595D02*
X100006469Y-40325873D01*
X100655350Y-86801349D02*
X102788387Y-81749878D01*
X100696242Y-16006883D02*
X100443687Y-15892234D01*
X100917228Y-16172172D02*
X100696242Y-16006883D01*
X101076569Y-47487962D02*
X100489334Y-44044595D01*
X101098369Y-16380525D02*
X100917228Y-16172172D01*
X101231386Y-16624368D02*
X101098369Y-16380525D01*
X101258918Y-17493081D02*
X101319938Y-17188222D01*
X101308002Y-16896125D02*
X101231386Y-16624368D01*
X101319938Y-17188222D02*
X101308002Y-16896125D01*
X101733214Y-50562011D02*
X101076569Y-47487962D01*
X102415737Y-53172777D02*
X102424306Y-53172777D01*
X102424306Y-53172777D02*
X101733214Y-50562011D01*
X102788387Y-81749878D02*
X104013861Y-76317883D01*
X103204671Y-56340505D02*
X102415737Y-53172777D01*
X103927177Y-60516672D02*
X103204671Y-56340505D01*
X104013861Y-76317883D02*
X104500000Y-70783154D01*
X104415029Y-65423486D02*
X103927177Y-60516672D01*
X104500000Y-70783154D02*
X104415029Y-65423486D01*
M02*
