M48
; DRILL file KiCad 10.0.5 date 2026-08-10T11:25:36
; FORMAT={-:-/ absolute / metric / decimal}
; #@! TF.CreationDate,2026-08-10T11:25:36+09:00
; #@! TF.GenerationSoftware,Kicad,Pcbnew,10.0.5
; #@! TF.FileFunction,Plated,1,2,PTH
FMAT,2
METRIC
; #@! TA.AperFunction,Plated,PTH,ViaDrill
T1C0.200
; #@! TA.AperFunction,Plated,PTH,ComponentDrill
T2C0.200
; #@! TA.AperFunction,Plated,PTH,ViaDrill
T3C0.250
; #@! TA.AperFunction,Plated,PTH,ComponentDrill
T4C0.800
; #@! TA.AperFunction,Plated,PTH,ComponentDrill
T5C1.000
; #@! TA.AperFunction,Plated,PTH,ComponentDrill
T6C1.100
%
G90
G05
T1
X30.207Y-55.306
X31.474Y-76.418
X32.797Y-51.869
X33.634Y-55.579
X37.148Y-75.786
X41.937Y-46.737
X42.802Y-78.01
X44.326Y-72.507
X45.08Y-58.526
X46.0Y-37.517
X46.855Y-36.662
X51.175Y-71.486
X53.152Y-68.078
X54.427Y-95.748
X59.735Y-96.614
X61.25Y-97.215
X64.25Y-99.712
X64.806Y-96.957
X69.602Y-97.497
X72.094Y-55.35
X73.735Y-71.486
X73.742Y-66.621
X73.947Y-55.741
X75.054Y-56.185
X76.287Y-73.063
X76.504Y-68.078
X77.964Y-81.129
X78.79Y-77.513
X79.67Y-60.504
X80.936Y-52.631
X81.33Y-60.963
X83.87Y-60.975
X85.14Y-65.23
X86.41Y-66.04
X86.779Y-58.972
X86.976Y-56.572
X87.68Y-59.875
X87.68Y-72.338
X87.805Y-56.83
X88.95Y-60.997
X88.95Y-74.137
X90.209Y-65.495
X90.22Y-63.514
T2
X83.64Y-68.8
X83.64Y-70.2
X84.34Y-68.1
X84.34Y-69.5
X84.34Y-70.9
X85.04Y-68.8
X85.04Y-70.2
X85.74Y-68.1
X85.74Y-69.5
X85.74Y-70.9
X86.44Y-68.8
X86.44Y-70.2
T3
X26.0Y-68.5
X28.0Y-67.0
X31.5Y-62.25
X31.5Y-64.75
X36.5Y-67.0
X36.5Y-69.0
X37.5Y-63.5
X39.75Y-60.5
X42.75Y-67.0
X42.75Y-69.0
X58.69Y-39.0
X61.23Y-39.0
X61.23Y-50.43
X62.0Y-96.792
X63.301Y-96.792
X63.77Y-50.43
X64.5Y-95.0
X66.31Y-50.43
X67.0Y-95.95
X68.5Y-94.6
X77.15Y-78.2
X78.05Y-78.2
T5
X34.0Y-31.5
X36.54Y-31.5
X39.08Y-31.5
X41.62Y-31.5
T6
X58.69Y-27.64
X61.23Y-27.64
X63.77Y-27.64
X66.31Y-27.64
T4
X58.18Y-98.92G85X58.18Y-99.82
G05
X58.18Y-103.1G85X58.18Y-104.0
G05
X66.82Y-98.92G85X66.82Y-99.82
G05
X66.82Y-103.1G85X66.82Y-104.0
G05
M30
