%TF.GenerationSoftware,KiCad,Pcbnew,10.0.5*%
%TF.CreationDate,2026-08-10T11:52:26+09:00*%
%TF.ProjectId,hacking_box_v2,6861636b-696e-4675-9f62-6f785f76322e,A0*%
%TF.SameCoordinates,Original*%
%TF.FileFunction,Copper,L2,Bot*%
%TF.FilePolarity,Positive*%
%FSLAX46Y46*%
G04 Gerber Fmt 4.6, Leading zero omitted, Abs format (unit mm)*
G04 Created by KiCad (PCBNEW 10.0.5) date 2026-08-10 11:52:26*
%MOMM*%
%LPD*%
G01*
G04 APERTURE LIST*
%TA.AperFunction,ComponentPad*%
%ADD10R,1.700000X1.700000*%
%TD*%
%TA.AperFunction,ComponentPad*%
%ADD11C,1.700000*%
%TD*%
%TA.AperFunction,ComponentPad*%
%ADD12R,2.000000X2.000000*%
%TD*%
%TA.AperFunction,ComponentPad*%
%ADD13C,2.000000*%
%TD*%
%TA.AperFunction,HeatsinkPad*%
%ADD14C,0.600000*%
%TD*%
%TA.AperFunction,ComponentPad*%
%ADD15O,1.300000X2.200000*%
%TD*%
%TA.AperFunction,SMDPad,CuDef*%
%ADD16C,1.500000*%
%TD*%
%TA.AperFunction,ViaPad*%
%ADD17C,0.600000*%
%TD*%
%TA.AperFunction,ViaPad*%
%ADD18C,0.650000*%
%TD*%
%TA.AperFunction,Conductor*%
%ADD19C,0.250000*%
%TD*%
%TA.AperFunction,Conductor*%
%ADD20C,0.200000*%
%TD*%
%ADD21C,0.200000*%
%ADD22C,0.250000*%
%ADD23C,0.350000*%
%ADD24O,0.800000X1.700000*%
G04 APERTURE END LIST*
D10*
%TO.P,P_UART,1*%
%TO.N,GND*%
X34000000Y-31500000D03*
D11*
%TO.P,P_UART,2*%
%TO.N,3V3*%
X36540000Y-31500000D03*
%TO.P,P_UART,3*%
%TO.N,PLAYER_UART_TX*%
X39080000Y-31500000D03*
%TO.P,P_UART,4*%
%TO.N,PLAYER_UART_RX*%
X41620000Y-31500000D03*
%TD*%
D12*
%TO.P,OLED1,1*%
%TO.N,GND*%
X58690000Y-27640000D03*
D13*
%TO.P,OLED1,2*%
%TO.N,3V3*%
X61230000Y-27640000D03*
%TO.P,OLED1,3*%
%TO.N,OLED_SCL*%
X63770000Y-27640000D03*
%TO.P,OLED1,4*%
%TO.N,OLED_SDA*%
X66310000Y-27640000D03*
%TD*%
D14*
%TO.P,U1,41*%
%TO.N,GND*%
X85740000Y-68100000D03*
X84340000Y-68100000D03*
X86440000Y-68800000D03*
X85040000Y-68800000D03*
X83640000Y-68800000D03*
X85740000Y-69500000D03*
X84340000Y-69500000D03*
X86440000Y-70200000D03*
X85040000Y-70200000D03*
X83640000Y-70200000D03*
X85740000Y-70900000D03*
X84340000Y-70900000D03*
%TD*%
D15*
%TO.P,J1,SH*%
%TO.N,GND*%
X58180000Y-99370000D03*
X58180000Y-103550000D03*
X66820000Y-99370000D03*
X66820000Y-103550000D03*
%TD*%
D16*
%TO.P,TP_GND,1*%
%TO.N,GND*%
X34000000Y-57000000D03*
%TD*%
%TO.P,TP_EN,1*%
%TO.N,EN*%
X28000000Y-64000000D03*
%TD*%
%TO.P,TP_3V3,1*%
%TO.N,3V3*%
X28000000Y-57000000D03*
%TD*%
%TO.P,TP_BOOT,1*%
%TO.N,BOOT_GPIO0*%
X34000000Y-64000000D03*
%TD*%
%TO.P,TP_UART_RX,1*%
%TO.N,PLAYER_UART_RX*%
X28000000Y-71000000D03*
%TD*%
%TO.P,TP_OLED_SCL,1*%
%TO.N,OLED_SCL*%
X34000000Y-71000000D03*
%TD*%
%TO.P,TP_UART_TX,1*%
%TO.N,PLAYER_UART_TX*%
X40000000Y-64000000D03*
%TD*%
%TO.P,TP_OLED_SDA,1*%
%TO.N,OLED_SDA*%
X40000000Y-71000000D03*
%TD*%
%TO.P,TP_VBUS,1*%
%TO.N,VBUS*%
X40000000Y-57000000D03*
%TD*%
D17*
%TO.N,GND*%
X32796800Y-51868800D03*
D18*
X58690000Y-39000000D03*
D17*
X41936600Y-46737300D03*
%TO.N,3V3*%
X80936000Y-52631500D03*
D18*
X61230000Y-50430000D03*
D17*
X86778600Y-58971800D03*
X90208600Y-65494800D03*
X30207400Y-55306000D03*
D18*
X61230000Y-39000000D03*
D17*
X86975600Y-56572400D03*
X77963800Y-81128800D03*
D18*
%TO.N,PLAYER_UART_TX*%
X39750000Y-60500000D03*
X37500000Y-63500000D03*
%TO.N,PLAYER_UART_RX*%
X28000000Y-67000000D03*
X26000000Y-68500000D03*
%TO.N,OLED_SCL*%
X63770000Y-50430000D03*
D17*
X87680000Y-59874800D03*
D18*
X36500000Y-67000000D03*
X36500000Y-69000000D03*
D17*
X45079800Y-58525700D03*
D18*
%TO.N,OLED_SDA*%
X42750000Y-69000000D03*
D17*
X88950000Y-60996800D03*
D18*
X66310000Y-50430000D03*
X42750000Y-67000000D03*
D17*
%TO.N,VBUS*%
X64806000Y-96957100D03*
X59735000Y-96613800D03*
D18*
X64500000Y-95000000D03*
D17*
X33634500Y-55578600D03*
%TO.N,CHAL_1_MCU*%
X37148400Y-75785700D03*
X85140000Y-65230300D03*
%TO.N,EN*%
X90220000Y-63513700D03*
X87805300Y-56829600D03*
%TO.N,BUZZER_GPIO*%
X79670400Y-60503600D03*
X73947300Y-55741200D03*
%TO.N,STATUS_LED_5_MCU*%
X81330000Y-60962600D03*
X72093700Y-55349600D03*
%TO.N,GAME_LEFT*%
X44325900Y-72506800D03*
X73742000Y-66621500D03*
%TO.N,UART_RX_MCU*%
X87680000Y-72338400D03*
X46000000Y-37517100D03*
%TO.N,STATUS_LED_3_MCU*%
X83870000Y-60975500D03*
X75054400Y-56184700D03*
%TO.N,CHAL_0_MCU*%
X31473800Y-76418000D03*
X86410000Y-66040500D03*
%TO.N,CHAL_2_MCU*%
X78790000Y-77512600D03*
X42802400Y-78009600D03*
D18*
%TO.N,USB_D_N*%
X68500000Y-94600000D03*
X78050000Y-78200000D03*
%TO.N,USB_D_P*%
X62000500Y-96791600D03*
X63301100Y-96791600D03*
X67000000Y-95950000D03*
X77150000Y-78200000D03*
D17*
%TO.N,STATUS_LED_1_MCU*%
X51175000Y-71486300D03*
X73734800Y-71486300D03*
%TO.N,STATUS_LED_2_MCU*%
X53151900Y-68077900D03*
X76503800Y-68077900D03*
D18*
%TO.N,BOOT_GPIO0*%
X31500000Y-64750000D03*
D17*
X76286600Y-73063200D03*
D18*
X31500000Y-62250000D03*
D17*
%TO.N,UART_TX_MCU*%
X88950000Y-74137300D03*
X46855200Y-36661900D03*
%TO.N,USB_CC1*%
X61250000Y-97215200D03*
X54427300Y-95747700D03*
%TO.N,USB_CC2*%
X69602400Y-97497400D03*
X64250000Y-99711800D03*
%TD*%
%TO.N,GND*%
D19*
X58690000Y-50430000D02*
X58690000Y-39000000D01*
X84340000Y-68800000D02*
X84340000Y-69500000D01*
X32868800Y-51868800D02*
X32796800Y-51868800D01*
X58690000Y-50430000D02*
X57463300Y-50430000D01*
X41936600Y-46737300D02*
X53770600Y-46737300D01*
X33000000Y-54500000D02*
X33000000Y-54750000D01*
X86440000Y-68800000D02*
X85740000Y-68800000D01*
X53770600Y-46737300D02*
X57463300Y-50430000D01*
X32750000Y-54750000D02*
X32750000Y-57000000D01*
X85740000Y-68800000D02*
X85040000Y-68800000D01*
X34000000Y-53000000D02*
X34000000Y-54500000D01*
X32750000Y-57000000D02*
X34000000Y-57000000D01*
X33000000Y-54750000D02*
X32750000Y-54750000D01*
X34000000Y-54500000D02*
X33000000Y-54500000D01*
X85740000Y-68800000D02*
X85740000Y-68100000D01*
X83640000Y-68800000D02*
X84340000Y-68800000D01*
X34000000Y-53000000D02*
X32868800Y-51868800D01*
X84340000Y-68800000D02*
X85040000Y-68800000D01*
X66820000Y-103550000D02*
X58180000Y-103550000D01*
%TO.N,3V3*%
X62915600Y-48744400D02*
X77048900Y-48744400D01*
X86975600Y-56572400D02*
X86778600Y-56769400D01*
X61230000Y-50430000D02*
X61730000Y-50430000D01*
X77963800Y-81128800D02*
X90208600Y-68884000D01*
X61230000Y-50430000D02*
X61230000Y-39000000D01*
X28000000Y-53000000D02*
X28000000Y-57000000D01*
X30207400Y-55207400D02*
X30207400Y-55306000D01*
X62915600Y-49244400D02*
X62915600Y-48744400D01*
X86778600Y-56769400D02*
X86778600Y-58971800D01*
X28500000Y-53000000D02*
X30207400Y-54707400D01*
X61730000Y-50430000D02*
X62915600Y-49244400D01*
X80936000Y-52631500D02*
X83034700Y-52631500D01*
X90208600Y-68884000D02*
X90208600Y-65494800D01*
X77048900Y-48744400D02*
X80936000Y-52631500D01*
X28000000Y-53000000D02*
X28500000Y-53000000D01*
X83034700Y-52631500D02*
X86975600Y-56572400D01*
X30207400Y-54707400D02*
X30207400Y-55207400D01*
%TO.N,PLAYER_UART_TX*%
X39080000Y-45405700D02*
X41110600Y-47436300D01*
X41110600Y-47436300D02*
X41110600Y-58889400D01*
X39080000Y-31500000D02*
X39080000Y-45405700D01*
X37500000Y-63500000D02*
X37500000Y-64000000D01*
X40000000Y-60000000D02*
X40000000Y-60500000D01*
X40000000Y-60500000D02*
X39750000Y-60500000D01*
X37500000Y-64000000D02*
X40000000Y-64000000D01*
X41110600Y-58889400D02*
X40000000Y-60000000D01*
%TO.N,PLAYER_UART_RX*%
X41309900Y-31810100D02*
X41309900Y-46996800D01*
X28000000Y-67000000D02*
X28000000Y-67000000D01*
X39720000Y-61879500D02*
X33120500Y-61879500D01*
X26000000Y-71000000D02*
X28000000Y-71000000D01*
X41309900Y-46996800D02*
X41620000Y-47306900D01*
X41620000Y-47306900D02*
X41620000Y-59979500D01*
X41620000Y-31500000D02*
X41309900Y-31810100D01*
X33120500Y-61879500D02*
X28000000Y-67000000D01*
X26000000Y-68500000D02*
X26000000Y-71000000D01*
X41620000Y-59979500D02*
X39720000Y-61879500D01*
%TO.N,OLED_SCL*%
X65003800Y-49196200D02*
X63770000Y-50430000D01*
X68287100Y-49196200D02*
X65003800Y-49196200D01*
X87680000Y-59874800D02*
X83483000Y-59874800D01*
X41500000Y-61500000D02*
X41750000Y-61500000D01*
X36500000Y-67000000D02*
X36500000Y-65500000D01*
X42250000Y-61000000D02*
X42250000Y-58500000D01*
X34000000Y-68750000D02*
X34000000Y-71000000D01*
X45079800Y-58525700D02*
X55674300Y-58525700D01*
X55674300Y-58525700D02*
X63770000Y-50430000D01*
X36605500Y-67000000D02*
X36500000Y-67000000D01*
X42250000Y-58500000D02*
X45000000Y-58500000D01*
X36500000Y-69000000D02*
X34000000Y-68750000D01*
X36500000Y-67000000D02*
X36500000Y-67000000D01*
X45079800Y-58525700D02*
X45000000Y-58500000D01*
X77219400Y-53611200D02*
X72702100Y-53611200D01*
X41500000Y-65500000D02*
X41500000Y-61500000D01*
X41750000Y-61000000D02*
X42250000Y-61000000D01*
X72702100Y-53611200D02*
X68287100Y-49196200D01*
X36500000Y-65500000D02*
X41500000Y-65500000D01*
X83483000Y-59874800D02*
X77219400Y-53611200D01*
X41750000Y-61500000D02*
X41750000Y-61000000D01*
%TO.N,OLED_SDA*%
X66310000Y-50430000D02*
X65810000Y-50430000D01*
X66310000Y-50515700D02*
X66310000Y-50430000D01*
X49740000Y-67000000D02*
X42750000Y-67000000D01*
X49740000Y-66500000D02*
X49740000Y-67000000D01*
X65810000Y-50430000D02*
X49740000Y-66500000D01*
X88950000Y-60996800D02*
X88297600Y-61649200D01*
X42750000Y-67000000D02*
X42750000Y-67000000D01*
X77443500Y-61649200D02*
X66310000Y-50515700D01*
X40000000Y-68750000D02*
X40000000Y-71000000D01*
X42750000Y-69000000D02*
X40000000Y-68750000D01*
X88297600Y-61649200D02*
X77443500Y-61649200D01*
%TO.N,VBUS*%
X59735000Y-96613800D02*
X60963200Y-97842000D01*
X37500000Y-57000000D02*
X40000000Y-57000000D01*
X64500000Y-95000000D02*
X64806000Y-96957100D01*
X63921100Y-97842000D02*
X64806000Y-96957100D01*
X37421400Y-55578600D02*
X33634500Y-55578600D01*
X60963200Y-97842000D02*
X63921100Y-97842000D01*
X37421400Y-55578600D02*
X37500000Y-57000000D01*
%TO.N,CHAL_1_MCU*%
X74584600Y-75785700D02*
X37148400Y-75785700D01*
X85140000Y-65230300D02*
X74584600Y-75785700D01*
%TO.N,EN*%
X26885800Y-64000000D02*
X28000000Y-64000000D01*
X89624000Y-63513700D02*
X55820000Y-63513700D01*
X89624000Y-58648300D02*
X87805300Y-56829600D01*
X26885800Y-64000000D02*
X26885800Y-67450700D01*
X90220000Y-63513700D02*
X89624000Y-63513700D01*
X51230900Y-68102800D02*
X27537900Y-68102800D01*
X55820000Y-63513700D02*
X51230900Y-68102800D01*
X27537900Y-68102800D02*
X26885800Y-67450700D01*
X89624000Y-63513700D02*
X89624000Y-58648300D01*
%TO.N,BUZZER_GPIO*%
X73947300Y-55963800D02*
X78487100Y-60503600D01*
X73947300Y-55741200D02*
X73947300Y-55963800D01*
X78487100Y-60503600D02*
X79670400Y-60503600D01*
%TO.N,STATUS_LED_5_MCU*%
X81150200Y-61142400D02*
X77886500Y-61142400D01*
X81330000Y-60962600D02*
X81150200Y-61142400D01*
X77886500Y-61142400D02*
X72093700Y-55349600D01*
%TO.N,GAME_LEFT*%
X44325900Y-72506800D02*
X47588500Y-72506800D01*
X47588500Y-72506800D02*
X53473800Y-66621500D01*
X53473800Y-66621500D02*
X73742000Y-66621500D01*
%TO.N,UART_RX_MCU*%
X69454100Y-37517100D02*
X46000000Y-37517100D01*
X87680000Y-72338400D02*
X90864200Y-69154200D01*
X90864200Y-69154200D02*
X90864200Y-58927200D01*
X90864200Y-58927200D02*
X69454100Y-37517100D01*
%TO.N,STATUS_LED_3_MCU*%
X79079200Y-56184700D02*
X83870000Y-60975500D01*
X75054400Y-56184700D02*
X79079200Y-56184700D01*
%TO.N,CHAL_0_MCU*%
X85216100Y-66040500D02*
X86410000Y-66040500D01*
X74838600Y-76418000D02*
X85216100Y-66040500D01*
X31473800Y-76418000D02*
X74838600Y-76418000D01*
%TO.N,CHAL_2_MCU*%
X42802400Y-78009600D02*
X43299400Y-77512600D01*
X43299400Y-77512600D02*
X78790000Y-77512600D01*
%TO.N,USB_D_N*%
D20*
X68000000Y-94100000D02*
X68500000Y-94600000D01*
X68000000Y-88250000D02*
X68000000Y-92500000D01*
X77850000Y-78400000D02*
X68000000Y-88250000D01*
X78050000Y-78200000D02*
X77850000Y-78400000D01*
X68000000Y-92500000D02*
X68000000Y-94100000D01*
%TO.N,USB_D_P*%
X67500000Y-88250000D02*
X67500000Y-92500000D01*
X67500000Y-95450000D02*
X67000000Y-95950000D01*
X77350000Y-78400000D02*
X67500000Y-88250000D01*
X62000500Y-96791600D02*
X63301100Y-96791600D01*
X77150000Y-78200000D02*
X77350000Y-78400000D01*
X67500000Y-92500000D02*
X67500000Y-95450000D01*
%TO.N,STATUS_LED_1_MCU*%
D19*
X51175000Y-71486300D02*
X73734800Y-71486300D01*
%TO.N,STATUS_LED_2_MCU*%
X53151900Y-68077900D02*
X76503800Y-68077900D01*
%TO.N,BOOT_GPIO0*%
X31750000Y-64750000D02*
X31750000Y-64500000D01*
X31750000Y-64500000D02*
X32000000Y-64500000D01*
X32000000Y-64250000D02*
X32250000Y-64250000D01*
X76216300Y-73133500D02*
X76286600Y-73063200D01*
X31500000Y-58897400D02*
X27543500Y-58897400D01*
X31914000Y-73133500D02*
X76216300Y-73133500D01*
X27543500Y-58897400D02*
X26387800Y-60053100D01*
X32000000Y-64500000D02*
X32000000Y-64250000D01*
X32250000Y-64250000D02*
X32250000Y-64000000D01*
X31500000Y-58897400D02*
X31500000Y-62250000D01*
X26387800Y-67607300D02*
X31914000Y-73133500D01*
X32250000Y-64000000D02*
X34000000Y-64000000D01*
X26387800Y-60053100D02*
X26387800Y-67607300D01*
X31500000Y-64750000D02*
X31750000Y-64750000D01*
%TO.N,UART_TX_MCU*%
X91315900Y-58740000D02*
X69237800Y-36661900D01*
X69237800Y-36661900D02*
X46855200Y-36661900D01*
X88950000Y-74137300D02*
X91315900Y-71771400D01*
X91315900Y-71771400D02*
X91315900Y-58740000D01*
%TO.N,USB_CC1*%
X54427300Y-95747700D02*
X59782500Y-95747700D01*
X59782500Y-95747700D02*
X61250000Y-97215200D01*
%TO.N,USB_CC2*%
X64250000Y-99711800D02*
X66464400Y-97497400D01*
X66464400Y-97497400D02*
X69602400Y-97497400D01*
%TD*%
%TA.AperFunction,Conductor*%
%TO.N,GND*%
G36*
X62605423Y-10510113D02*
G01*
X62607418Y-10510269D01*
X62626448Y-10513249D01*
X62721662Y-10535854D01*
X62740087Y-10541781D01*
X62832735Y-10579799D01*
X62850085Y-10588567D01*
X62939239Y-10642796D01*
X62939241Y-10642797D01*
X62955027Y-10654188D01*
X62955028Y-10654189D01*
X62955030Y-10654190D01*
X63020912Y-10710094D01*
X63025953Y-10714943D01*
X63078053Y-10758587D01*
X63078654Y-10759093D01*
X63130436Y-10803032D01*
X63136054Y-10807172D01*
X67106861Y-14133435D01*
X67115534Y-14141432D01*
X67140914Y-14167174D01*
X67140916Y-14167175D01*
X67140920Y-14167179D01*
X67152773Y-14174134D01*
X67169641Y-14186024D01*
X67180172Y-14194846D01*
X67212956Y-14210100D01*
X67223394Y-14215575D01*
X71335824Y-16628781D01*
X71345979Y-16635430D01*
X71374498Y-16656168D01*
X71374499Y-16656168D01*
X71374500Y-16656169D01*
X71378588Y-16657740D01*
X71388161Y-16661419D01*
X71388172Y-16661423D01*
X71406447Y-16670223D01*
X71419085Y-16677640D01*
X71426634Y-16679720D01*
X71453068Y-16687004D01*
X71464612Y-16690803D01*
X75604186Y-18281811D01*
X75616497Y-18287330D01*
X75644782Y-18301911D01*
X75662471Y-18305758D01*
X75680591Y-18311176D01*
X75697491Y-18317672D01*
X75729131Y-18321010D01*
X75742474Y-18323158D01*
X79827489Y-19211676D01*
X79842381Y-19215906D01*
X79867631Y-19224818D01*
X79890711Y-19226610D01*
X79907459Y-19229070D01*
X79930091Y-19233993D01*
X79956832Y-19232718D01*
X79972331Y-19232948D01*
X83922886Y-19539763D01*
X83940399Y-19542394D01*
X83961036Y-19547022D01*
X83989802Y-19545835D01*
X84004488Y-19546101D01*
X84033189Y-19548331D01*
X84053973Y-19544456D01*
X84071568Y-19542463D01*
X87809608Y-19388305D01*
X87829459Y-19389080D01*
X87845037Y-19390947D01*
X87878912Y-19386082D01*
X87891393Y-19384932D01*
X87925592Y-19383523D01*
X87940578Y-19378837D01*
X87959944Y-19374449D01*
X91408426Y-18879351D01*
X91430174Y-18878162D01*
X91440997Y-18878523D01*
X91479058Y-18869671D01*
X91489478Y-18867715D01*
X91528161Y-18862162D01*
X91538114Y-18857901D01*
X91558804Y-18851126D01*
X94641034Y-18134354D01*
X94664233Y-18131229D01*
X94670893Y-18130968D01*
X94712167Y-18118147D01*
X94720822Y-18115800D01*
X94762903Y-18106015D01*
X94768772Y-18102882D01*
X94790378Y-18093854D01*
X97429423Y-17274153D01*
X97453710Y-17269204D01*
X97454408Y-17269133D01*
X97456869Y-17268884D01*
X97500495Y-17252324D01*
X97507694Y-17249842D01*
X97552246Y-17236005D01*
X97554935Y-17234307D01*
X97577105Y-17223244D01*
X99730233Y-16405964D01*
X99741005Y-16402430D01*
X99938789Y-16347452D01*
X99968004Y-16342987D01*
X100110585Y-16338400D01*
X100139417Y-16340851D01*
X100274461Y-16368479D01*
X100300853Y-16377049D01*
X100427685Y-16434626D01*
X100450697Y-16448238D01*
X100564002Y-16532987D01*
X100583309Y-16550926D01*
X100676174Y-16657740D01*
X100691453Y-16679716D01*
X100758283Y-16802226D01*
X100768774Y-16827962D01*
X100806365Y-16961302D01*
X100810914Y-16989884D01*
X100816801Y-17133929D01*
X100814492Y-17163330D01*
X100771539Y-17377923D01*
X100770011Y-17384596D01*
X99909343Y-20716824D01*
X99902839Y-20735625D01*
X99896566Y-20749924D01*
X99891381Y-20783844D01*
X99888865Y-20796114D01*
X99880289Y-20829318D01*
X99880288Y-20829319D01*
X99880429Y-20844925D01*
X99879010Y-20864774D01*
X99331864Y-24444381D01*
X99326402Y-24466392D01*
X99323601Y-24474439D01*
X99323599Y-24474451D01*
X99320578Y-24515682D01*
X99319487Y-24525349D01*
X99313240Y-24566231D01*
X99313240Y-24566232D01*
X99314176Y-24574702D01*
X99314595Y-24597381D01*
X99039100Y-28358567D01*
X99034883Y-28382785D01*
X99033904Y-28386298D01*
X99033439Y-28432492D01*
X99033114Y-28440298D01*
X99032367Y-28450500D01*
X99029945Y-28483583D01*
X99029740Y-28486376D01*
X99030421Y-28489943D01*
X99032615Y-28514444D01*
X98993881Y-32367593D01*
X98990919Y-32393313D01*
X98990855Y-32393598D01*
X98990853Y-32393617D01*
X98992952Y-32443061D01*
X98993058Y-32449562D01*
X98992561Y-32499080D01*
X98992561Y-32499083D01*
X98992634Y-32499364D01*
X98996429Y-32524987D01*
X99160010Y-36379222D01*
X99158912Y-36395921D01*
X99158936Y-36395923D01*
X99158586Y-36404040D01*
X99163121Y-36455542D01*
X99163487Y-36461159D01*
X99165680Y-36512814D01*
X99167082Y-36520821D01*
X99167058Y-36520825D01*
X99170318Y-36537237D01*
X99501832Y-40300915D01*
X99501476Y-40316847D01*
X99501665Y-40316848D01*
X99501650Y-40324977D01*
X99508476Y-40377545D01*
X99509030Y-40382629D01*
X99513681Y-40435425D01*
X99515444Y-40443357D01*
X99515258Y-40443398D01*
X99519036Y-40458878D01*
X99549157Y-40690849D01*
X99984037Y-44040017D01*
X99984322Y-44055669D01*
X99984571Y-44055660D01*
X99984880Y-44063781D01*
X99993863Y-44116459D01*
X99994595Y-44121335D01*
X100001484Y-44174384D01*
X100003574Y-44182239D01*
X100003332Y-44182303D01*
X100007659Y-44197355D01*
X100460924Y-46855154D01*
X100452790Y-46924548D01*
X100408430Y-46978529D01*
X100341927Y-46999958D01*
X100338689Y-47000000D01*
X94250000Y-47000000D01*
X94250000Y-92981826D01*
X94230315Y-93048865D01*
X94202042Y-93079773D01*
X93302282Y-93778318D01*
X92760007Y-94199322D01*
X92728259Y-94217193D01*
X86981743Y-96414978D01*
X86968835Y-96419122D01*
X82639354Y-97551907D01*
X82614508Y-97555772D01*
X82612292Y-97555889D01*
X82612287Y-97555889D01*
X82612284Y-97555890D01*
X82612281Y-97555891D01*
X82567033Y-97570610D01*
X82560071Y-97572651D01*
X82546915Y-97576093D01*
X82514022Y-97584700D01*
X82514019Y-97584701D01*
X82512075Y-97585809D01*
X82489082Y-97595968D01*
X78741244Y-98815206D01*
X78717259Y-98820453D01*
X78713535Y-98820887D01*
X78713528Y-98820889D01*
X78670719Y-98837886D01*
X78663326Y-98840553D01*
X78619497Y-98854812D01*
X78619491Y-98854815D01*
X78616342Y-98856862D01*
X78594538Y-98868134D01*
X75361143Y-100151974D01*
X75338141Y-100158620D01*
X75332937Y-100159591D01*
X75332927Y-100159594D01*
X75292741Y-100178822D01*
X75284988Y-100182212D01*
X75243581Y-100198654D01*
X75243579Y-100198655D01*
X75239328Y-100201819D01*
X75218830Y-100214189D01*
X72462675Y-101533013D01*
X72440754Y-101541065D01*
X72434175Y-101542798D01*
X72434174Y-101542799D01*
X72396806Y-101564164D01*
X72388787Y-101568368D01*
X72349934Y-101586960D01*
X72344758Y-101591392D01*
X72325670Y-101604837D01*
X70009630Y-102929075D01*
X69988872Y-102938528D01*
X69981132Y-102941223D01*
X69946674Y-102964643D01*
X69938525Y-102969731D01*
X69902339Y-102990421D01*
X69902334Y-102990425D01*
X69896510Y-102996200D01*
X69878910Y-103010696D01*
X67965953Y-104310817D01*
X67946425Y-104321657D01*
X67937822Y-104325463D01*
X67906299Y-104350865D01*
X67898203Y-104356862D01*
X67896841Y-104357789D01*
X67864730Y-104379612D01*
X67858582Y-104386735D01*
X67842528Y-104402254D01*
X66295726Y-105648741D01*
X66277475Y-105660951D01*
X66268402Y-105665919D01*
X66268396Y-105665923D01*
X66239820Y-105693228D01*
X66231964Y-105700125D01*
X66201172Y-105724939D01*
X66201169Y-105724942D01*
X66195066Y-105733300D01*
X66180592Y-105749821D01*
X64963153Y-106913118D01*
X64946188Y-106926695D01*
X64937069Y-106932763D01*
X64937066Y-106932766D01*
X64911339Y-106961990D01*
X64903933Y-106969704D01*
X64875791Y-106996594D01*
X64875789Y-106996596D01*
X64870098Y-107005956D01*
X64857226Y-107023459D01*
X63932400Y-108074016D01*
X63916741Y-108088946D01*
X63908010Y-108095923D01*
X63885059Y-108127084D01*
X63878294Y-108135478D01*
X63852719Y-108164531D01*
X63852717Y-108164534D01*
X63847749Y-108174560D01*
X63836486Y-108193035D01*
X63145246Y-109131589D01*
X63141053Y-109136967D01*
X63026856Y-109275387D01*
X63008954Y-109293074D01*
X62913277Y-109370080D01*
X62892570Y-109383582D01*
X62786828Y-109438365D01*
X62764506Y-109447304D01*
X62650447Y-109480566D01*
X62627376Y-109484976D01*
X62508554Y-109496181D01*
X62485271Y-109496181D01*
X62366456Y-109484977D01*
X62343382Y-109480566D01*
X62256494Y-109455227D01*
X62229324Y-109447304D01*
X62207000Y-109438365D01*
X62101257Y-109383582D01*
X62080549Y-109370079D01*
X61984869Y-109293069D01*
X61966968Y-109275382D01*
X61852569Y-109136716D01*
X61848450Y-109131440D01*
X61157175Y-108194817D01*
X61145866Y-108176297D01*
X61140961Y-108166412D01*
X61140958Y-108166408D01*
X61115277Y-108137267D01*
X61108537Y-108128917D01*
X61085470Y-108097664D01*
X61085471Y-108097664D01*
X61085469Y-108097662D01*
X61076836Y-108090778D01*
X61061125Y-108075820D01*
X60136520Y-107026645D01*
X60123612Y-107009106D01*
X60121696Y-107005956D01*
X60117975Y-106999839D01*
X60089740Y-106972870D01*
X60082360Y-106965188D01*
X60079542Y-106961990D01*
X60056558Y-106935910D01*
X60047520Y-106929902D01*
X60030521Y-106916307D01*
X58813226Y-105753609D01*
X58798729Y-105737064D01*
X58792670Y-105728766D01*
X58792664Y-105728760D01*
X58761829Y-105703910D01*
X58753993Y-105697032D01*
X58725351Y-105669676D01*
X58718492Y-105665923D01*
X58716335Y-105664742D01*
X58698055Y-105652515D01*
X57151347Y-104406031D01*
X57135272Y-104390486D01*
X57129162Y-104383404D01*
X57129159Y-104383402D01*
X57095654Y-104360622D01*
X57087565Y-104354628D01*
X57056025Y-104329211D01*
X57056024Y-104329210D01*
X57056020Y-104329207D01*
X57056018Y-104329206D01*
X57056015Y-104329204D01*
X57047463Y-104325421D01*
X57027915Y-104314568D01*
X55114999Y-103014007D01*
X55097383Y-102999490D01*
X55091585Y-102993737D01*
X55091581Y-102993735D01*
X55055390Y-102973030D01*
X55047248Y-102967944D01*
X55012774Y-102944506D01*
X55012769Y-102944503D01*
X55005056Y-102941816D01*
X54984286Y-102932354D01*
X52668253Y-101607400D01*
X52649155Y-101593938D01*
X52646183Y-101591392D01*
X52643997Y-101589519D01*
X52605154Y-101570920D01*
X52597139Y-101566716D01*
X52559762Y-101545334D01*
X52553187Y-101543600D01*
X52531264Y-101535542D01*
X50578380Y-100600500D01*
X49775081Y-100215879D01*
X49754590Y-100203505D01*
X49750336Y-100200338D01*
X49708943Y-100183892D01*
X49701191Y-100180501D01*
X49661015Y-100161265D01*
X49661013Y-100161264D01*
X49661012Y-100161264D01*
X49655791Y-100160288D01*
X49632790Y-100153637D01*
X49168045Y-99968995D01*
X58909499Y-99968995D01*
X58936418Y-100104322D01*
X58936421Y-100104332D01*
X58989221Y-100231804D01*
X58989228Y-100231817D01*
X59065885Y-100346541D01*
X59065888Y-100346545D01*
X59163454Y-100444111D01*
X59163458Y-100444114D01*
X59278182Y-100520771D01*
X59278195Y-100520778D01*
X59405667Y-100573578D01*
X59405672Y-100573580D01*
X59405676Y-100573580D01*
X59405677Y-100573581D01*
X59541004Y-100600500D01*
X59541007Y-100600500D01*
X59678995Y-100600500D01*
X59770041Y-100582389D01*
X59814328Y-100573580D01*
X59941811Y-100520775D01*
X60056542Y-100444114D01*
X60154114Y-100346542D01*
X60230775Y-100231811D01*
X60283580Y-100104328D01*
X60310500Y-99968993D01*
X60310500Y-99831007D01*
X60310500Y-99831004D01*
X60283581Y-99695677D01*
X60283580Y-99695676D01*
X60283580Y-99695672D01*
X60257601Y-99632953D01*
X60230778Y-99568195D01*
X60230771Y-99568182D01*
X60154114Y-99453458D01*
X60154111Y-99453454D01*
X60056545Y-99355888D01*
X60056541Y-99355885D01*
X59941817Y-99279228D01*
X59941804Y-99279221D01*
X59814332Y-99226421D01*
X59814322Y-99226418D01*
X59678995Y-99199500D01*
X59678993Y-99199500D01*
X59541007Y-99199500D01*
X59541005Y-99199500D01*
X59405677Y-99226418D01*
X59405667Y-99226421D01*
X59278195Y-99279221D01*
X59278182Y-99279228D01*
X59163458Y-99355885D01*
X59163454Y-99355888D01*
X59065888Y-99453454D01*
X59065885Y-99453458D01*
X58989228Y-99568182D01*
X58989221Y-99568195D01*
X58936421Y-99695667D01*
X58936418Y-99695677D01*
X58909500Y-99831004D01*
X58909500Y-99831007D01*
X58909500Y-99968993D01*
X58909500Y-99968995D01*
X58909499Y-99968995D01*
X49168045Y-99968995D01*
X49095449Y-99940153D01*
X46399361Y-98869006D01*
X46377559Y-98857730D01*
X46374395Y-98855673D01*
X46374391Y-98855671D01*
X46330603Y-98841419D01*
X46323199Y-98838747D01*
X46280396Y-98821742D01*
X46276641Y-98821303D01*
X46252670Y-98816055D01*
X42504776Y-97596220D01*
X42481787Y-97586059D01*
X42479828Y-97584943D01*
X42433819Y-97572902D01*
X42426849Y-97570857D01*
X42381617Y-97556135D01*
X42381606Y-97556133D01*
X42379347Y-97556014D01*
X42354517Y-97552148D01*
X38025059Y-96419142D01*
X38012141Y-96414995D01*
X32267957Y-94217235D01*
X32236206Y-94199354D01*
X31926477Y-93958794D01*
X27927873Y-90853157D01*
X27903788Y-90828345D01*
X26176368Y-88462416D01*
X25150015Y-87056690D01*
X24790870Y-86564793D01*
X24776777Y-86539894D01*
X22845229Y-81963937D01*
X22694333Y-81606454D01*
X22687616Y-81585530D01*
X21483860Y-76248691D01*
X21481300Y-76232278D01*
X21001404Y-70771505D01*
X21000944Y-70758729D01*
X21035151Y-68581307D01*
X25174499Y-68581307D01*
X25206222Y-68740783D01*
X25206225Y-68740793D01*
X25268450Y-68891019D01*
X25268452Y-68891023D01*
X25353602Y-69018459D01*
X25374480Y-69085136D01*
X25374500Y-69087349D01*
X25374500Y-71061610D01*
X25398535Y-71182444D01*
X25398538Y-71182454D01*
X25445687Y-71296283D01*
X25445692Y-71296292D01*
X25514141Y-71398732D01*
X25514144Y-71398736D01*
X25601263Y-71485855D01*
X25601267Y-71485858D01*
X25703707Y-71554307D01*
X25703713Y-71554310D01*
X25703714Y-71554311D01*
X25817548Y-71601463D01*
X25938389Y-71625499D01*
X25938393Y-71625500D01*
X25938394Y-71625500D01*
X26061606Y-71625500D01*
X26845567Y-71625500D01*
X26912606Y-71645185D01*
X26945885Y-71676614D01*
X26977254Y-71719789D01*
X27046172Y-71814646D01*
X27185354Y-71953828D01*
X27344595Y-72069524D01*
X27420278Y-72108086D01*
X27519970Y-72158882D01*
X27519972Y-72158882D01*
X27519975Y-72158884D01*
X27554590Y-72170131D01*
X27707173Y-72219709D01*
X27901578Y-72250500D01*
X27901583Y-72250500D01*
X28098422Y-72250500D01*
X28292826Y-72219709D01*
X28480025Y-72158884D01*
X28655405Y-72069524D01*
X28814646Y-71953828D01*
X28953828Y-71814646D01*
X29069524Y-71655405D01*
X29154664Y-71488306D01*
X29202638Y-71437510D01*
X29270459Y-71420715D01*
X29336594Y-71443252D01*
X29352830Y-71456920D01*
X31425016Y-73529106D01*
X31425045Y-73529137D01*
X31515264Y-73619356D01*
X31515267Y-73619358D01*
X31566490Y-73653584D01*
X31617714Y-73687812D01*
X31698207Y-73721152D01*
X31731548Y-73734963D01*
X31791971Y-73746981D01*
X31852393Y-73759000D01*
X31852394Y-73759000D01*
X75427348Y-73759000D01*
X75494387Y-73778685D01*
X75540142Y-73831489D01*
X75550086Y-73900647D01*
X75521061Y-73964203D01*
X75515029Y-73970681D01*
X74361829Y-75123881D01*
X74300506Y-75157366D01*
X74274148Y-75160200D01*
X37690750Y-75160200D01*
X37623711Y-75140515D01*
X37621859Y-75139302D01*
X37527584Y-75076309D01*
X37527572Y-75076302D01*
X37381901Y-75015964D01*
X37381889Y-75015961D01*
X37227245Y-74985200D01*
X37227242Y-74985200D01*
X37069558Y-74985200D01*
X37069555Y-74985200D01*
X36914910Y-75015961D01*
X36914898Y-75015964D01*
X36769227Y-75076302D01*
X36769214Y-75076309D01*
X36638111Y-75163910D01*
X36638107Y-75163913D01*
X36526613Y-75275407D01*
X36526610Y-75275411D01*
X36439009Y-75406514D01*
X36439002Y-75406527D01*
X36378664Y-75552198D01*
X36378661Y-75552208D01*
X36350717Y-75692692D01*
X36318332Y-75754603D01*
X36257616Y-75789177D01*
X36229100Y-75792500D01*
X32016150Y-75792500D01*
X31949111Y-75772815D01*
X31947259Y-75771602D01*
X31852984Y-75708609D01*
X31852972Y-75708602D01*
X31707301Y-75648264D01*
X31707289Y-75648261D01*
X31552645Y-75617500D01*
X31552642Y-75617500D01*
X31394958Y-75617500D01*
X31394955Y-75617500D01*
X31240310Y-75648261D01*
X31240298Y-75648264D01*
X31094627Y-75708602D01*
X31094614Y-75708609D01*
X30963511Y-75796210D01*
X30963507Y-75796213D01*
X30852013Y-75907707D01*
X30852010Y-75907711D01*
X30764409Y-76038814D01*
X30764402Y-76038827D01*
X30704064Y-76184498D01*
X30704061Y-76184510D01*
X30673300Y-76339153D01*
X30673300Y-76496846D01*
X30704061Y-76651489D01*
X30704064Y-76651501D01*
X30764402Y-76797172D01*
X30764409Y-76797185D01*
X30852010Y-76928288D01*
X30852013Y-76928292D01*
X30963507Y-77039786D01*
X30963511Y-77039789D01*
X31094614Y-77127390D01*
X31094627Y-77127397D01*
X31234050Y-77185147D01*
X31240303Y-77187737D01*
X31354252Y-77210403D01*
X31394953Y-77218499D01*
X31394956Y-77218500D01*
X31394958Y-77218500D01*
X31552644Y-77218500D01*
X31552645Y-77218499D01*
X31707297Y-77187737D01*
X31838414Y-77133427D01*
X31852972Y-77127397D01*
X31852972Y-77127396D01*
X31852979Y-77127394D01*
X31947259Y-77064398D01*
X32013936Y-77043520D01*
X32016150Y-77043500D01*
X42419574Y-77043500D01*
X42486613Y-77063185D01*
X42532368Y-77115989D01*
X42542312Y-77185147D01*
X42513287Y-77248703D01*
X42467026Y-77282061D01*
X42423227Y-77300202D01*
X42423214Y-77300209D01*
X42292111Y-77387810D01*
X42292107Y-77387813D01*
X42180613Y-77499307D01*
X42180610Y-77499311D01*
X42093009Y-77630414D01*
X42093002Y-77630427D01*
X42032664Y-77776098D01*
X42032661Y-77776110D01*
X42001900Y-77930753D01*
X42001900Y-78088446D01*
X42032661Y-78243089D01*
X42032664Y-78243101D01*
X42093002Y-78388772D01*
X42093009Y-78388785D01*
X42180610Y-78519888D01*
X42180613Y-78519892D01*
X42292107Y-78631386D01*
X42292111Y-78631389D01*
X42423214Y-78718990D01*
X42423227Y-78718997D01*
X42568898Y-78779335D01*
X42568903Y-78779337D01*
X42723553Y-78810099D01*
X42723556Y-78810100D01*
X42723558Y-78810100D01*
X42881244Y-78810100D01*
X42881245Y-78810099D01*
X43035897Y-78779337D01*
X43148566Y-78732667D01*
X43181572Y-78718997D01*
X43181572Y-78718996D01*
X43181579Y-78718994D01*
X43312689Y-78631389D01*
X43424189Y-78519889D01*
X43511794Y-78388779D01*
X43572137Y-78243097D01*
X43573168Y-78237914D01*
X43605550Y-78176001D01*
X43666265Y-78141425D01*
X43694786Y-78138100D01*
X76200500Y-78138100D01*
X76267539Y-78157785D01*
X76313294Y-78210589D01*
X76324500Y-78262100D01*
X76324500Y-78281305D01*
X76324500Y-78281307D01*
X76324499Y-78281307D01*
X76356223Y-78440787D01*
X76357993Y-78446622D01*
X76355943Y-78447243D01*
X76362370Y-78507088D01*
X76331088Y-78569564D01*
X76328024Y-78572738D01*
X67131286Y-87769478D01*
X67019481Y-87881282D01*
X67019479Y-87881285D01*
X66969361Y-87968094D01*
X66969359Y-87968096D01*
X66940425Y-88018209D01*
X66940424Y-88018210D01*
X66940423Y-88018215D01*
X66899499Y-88170943D01*
X66899499Y-88170945D01*
X66899499Y-88339046D01*
X66899500Y-88339059D01*
X66899500Y-95026554D01*
X66879815Y-95093593D01*
X66827011Y-95139348D01*
X66799693Y-95148171D01*
X66759215Y-95156223D01*
X66759206Y-95156225D01*
X66608980Y-95218450D01*
X66608976Y-95218452D01*
X66473779Y-95308788D01*
X66473771Y-95308794D01*
X66358794Y-95423771D01*
X66358788Y-95423779D01*
X66268452Y-95558976D01*
X66268450Y-95558980D01*
X66206225Y-95709206D01*
X66206222Y-95709216D01*
X66174500Y-95868692D01*
X66174500Y-95868695D01*
X66174500Y-96031305D01*
X66174500Y-96031307D01*
X66174499Y-96031307D01*
X66206222Y-96190783D01*
X66206225Y-96190793D01*
X66268450Y-96341019D01*
X66268452Y-96341023D01*
X66358788Y-96476220D01*
X66358794Y-96476228D01*
X66473772Y-96591206D01*
X66473775Y-96591208D01*
X66553976Y-96644796D01*
X66598782Y-96698408D01*
X66607489Y-96767733D01*
X66577335Y-96830761D01*
X66517892Y-96867481D01*
X66485086Y-96871899D01*
X66402794Y-96871899D01*
X66301997Y-96891948D01*
X66301992Y-96891948D01*
X66281953Y-96895935D01*
X66281948Y-96895936D01*
X66281948Y-96895937D01*
X66247790Y-96910086D01*
X66247788Y-96910087D01*
X66247787Y-96910086D01*
X66168111Y-96943089D01*
X66065667Y-97011541D01*
X66065663Y-97011544D01*
X65787592Y-97289615D01*
X65726269Y-97323100D01*
X65656577Y-97318116D01*
X65600644Y-97276244D01*
X65576227Y-97210780D01*
X65578294Y-97177742D01*
X65606500Y-97035944D01*
X65606500Y-96878255D01*
X65606499Y-96878253D01*
X65588548Y-96788009D01*
X65575737Y-96723603D01*
X65562913Y-96692642D01*
X65515397Y-96577927D01*
X65515390Y-96577914D01*
X65427789Y-96446811D01*
X65427786Y-96446807D01*
X65375208Y-96394229D01*
X65341723Y-96332906D01*
X65340377Y-96325703D01*
X65335335Y-96293458D01*
X65208787Y-95484080D01*
X65217880Y-95414805D01*
X65228195Y-95396038D01*
X65231548Y-95391021D01*
X65293776Y-95240789D01*
X65304157Y-95188598D01*
X65325500Y-95081307D01*
X65325500Y-94918692D01*
X65293777Y-94759216D01*
X65293776Y-94759215D01*
X65293776Y-94759211D01*
X65293774Y-94759206D01*
X65231549Y-94608980D01*
X65231547Y-94608976D01*
X65141211Y-94473779D01*
X65141205Y-94473771D01*
X65026228Y-94358794D01*
X65026220Y-94358788D01*
X64891023Y-94268452D01*
X64891019Y-94268450D01*
X64740793Y-94206225D01*
X64740783Y-94206222D01*
X64581307Y-94174500D01*
X64581305Y-94174500D01*
X64418695Y-94174500D01*
X64418693Y-94174500D01*
X64259216Y-94206222D01*
X64259206Y-94206225D01*
X64108980Y-94268450D01*
X64108976Y-94268452D01*
X63973779Y-94358788D01*
X63973771Y-94358794D01*
X63858794Y-94473771D01*
X63858788Y-94473779D01*
X63768452Y-94608976D01*
X63768450Y-94608980D01*
X63706225Y-94759206D01*
X63706222Y-94759216D01*
X63674500Y-94918692D01*
X63674500Y-94918695D01*
X63674500Y-95081305D01*
X63674500Y-95081307D01*
X63674499Y-95081307D01*
X63706222Y-95240783D01*
X63706225Y-95240793D01*
X63768450Y-95391019D01*
X63768452Y-95391023D01*
X63858788Y-95526220D01*
X63858794Y-95526228D01*
X63937342Y-95604776D01*
X63970827Y-95666099D01*
X63972173Y-95673302D01*
X64028828Y-96035651D01*
X64019735Y-96104926D01*
X63974633Y-96158289D01*
X63907841Y-96178797D01*
X63840565Y-96159938D01*
X63827653Y-96150660D01*
X63827326Y-96150391D01*
X63692123Y-96060052D01*
X63692119Y-96060050D01*
X63541893Y-95997825D01*
X63541883Y-95997822D01*
X63382407Y-95966100D01*
X63382405Y-95966100D01*
X63219795Y-95966100D01*
X63219793Y-95966100D01*
X63060316Y-95997822D01*
X63060306Y-95997825D01*
X62910080Y-96060050D01*
X62910076Y-96060052D01*
X62774879Y-96150388D01*
X62774871Y-96150394D01*
X62770485Y-96154781D01*
X62709162Y-96188266D01*
X62682804Y-96191100D01*
X62618796Y-96191100D01*
X62551757Y-96171415D01*
X62531115Y-96154781D01*
X62526728Y-96150394D01*
X62526720Y-96150388D01*
X62391523Y-96060052D01*
X62391519Y-96060050D01*
X62241293Y-95997825D01*
X62241283Y-95997822D01*
X62081807Y-95966100D01*
X62081805Y-95966100D01*
X61919195Y-95966100D01*
X61919193Y-95966100D01*
X61759716Y-95997822D01*
X61759706Y-95997825D01*
X61609480Y-96060050D01*
X61609476Y-96060052D01*
X61474279Y-96150388D01*
X61474271Y-96150394D01*
X61359709Y-96264957D01*
X61298386Y-96298442D01*
X61228694Y-96293458D01*
X61184347Y-96264957D01*
X60275428Y-95356038D01*
X60275425Y-95356034D01*
X60275425Y-95356035D01*
X60268358Y-95348968D01*
X60268358Y-95348967D01*
X60181233Y-95261842D01*
X60181232Y-95261841D01*
X60181231Y-95261840D01*
X60130009Y-95227615D01*
X60078787Y-95193389D01*
X60078786Y-95193388D01*
X60078783Y-95193386D01*
X60078780Y-95193385D01*
X59997158Y-95159577D01*
X59997156Y-95159576D01*
X59964956Y-95146238D01*
X59964944Y-95146235D01*
X59864342Y-95126224D01*
X59864341Y-95126224D01*
X59844111Y-95122200D01*
X59844107Y-95122200D01*
X59844106Y-95122200D01*
X54969650Y-95122200D01*
X54902611Y-95102515D01*
X54900759Y-95101302D01*
X54806484Y-95038309D01*
X54806472Y-95038302D01*
X54660801Y-94977964D01*
X54660789Y-94977961D01*
X54506145Y-94947200D01*
X54506142Y-94947200D01*
X54348458Y-94947200D01*
X54348455Y-94947200D01*
X54193810Y-94977961D01*
X54193798Y-94977964D01*
X54048127Y-95038302D01*
X54048114Y-95038309D01*
X53917011Y-95125910D01*
X53917007Y-95125913D01*
X53805513Y-95237407D01*
X53805510Y-95237411D01*
X53717909Y-95368514D01*
X53717902Y-95368527D01*
X53657564Y-95514198D01*
X53657561Y-95514210D01*
X53626800Y-95668853D01*
X53626800Y-95826546D01*
X53657561Y-95981189D01*
X53657564Y-95981201D01*
X53717902Y-96126872D01*
X53717909Y-96126885D01*
X53805510Y-96257988D01*
X53805513Y-96257992D01*
X53917007Y-96369486D01*
X53917011Y-96369489D01*
X54048114Y-96457090D01*
X54048127Y-96457097D01*
X54187550Y-96514847D01*
X54193803Y-96517437D01*
X54348453Y-96548199D01*
X54348456Y-96548200D01*
X54348458Y-96548200D01*
X54506144Y-96548200D01*
X54506145Y-96548199D01*
X54660797Y-96517437D01*
X54806479Y-96457094D01*
X54900759Y-96394098D01*
X54967436Y-96373220D01*
X54969650Y-96373200D01*
X58815581Y-96373200D01*
X58882620Y-96392885D01*
X58928375Y-96445689D01*
X58938319Y-96514847D01*
X58937198Y-96521392D01*
X58934500Y-96534955D01*
X58934500Y-96692646D01*
X58965261Y-96847289D01*
X58965264Y-96847301D01*
X59025602Y-96992972D01*
X59025609Y-96992985D01*
X59113210Y-97124088D01*
X59113213Y-97124092D01*
X59224707Y-97235586D01*
X59224711Y-97235589D01*
X59355814Y-97323190D01*
X59355827Y-97323197D01*
X59443230Y-97359399D01*
X59501503Y-97383537D01*
X59612716Y-97405658D01*
X59674623Y-97438041D01*
X59676203Y-97439593D01*
X60474216Y-98237606D01*
X60474245Y-98237637D01*
X60564463Y-98327855D01*
X60564471Y-98327861D01*
X60608716Y-98357425D01*
X60608717Y-98357425D01*
X60666914Y-98396312D01*
X60747407Y-98429652D01*
X60780748Y-98443463D01*
X60841171Y-98455481D01*
X60901593Y-98467500D01*
X63982707Y-98467500D01*
X64043129Y-98455481D01*
X64103552Y-98443463D01*
X64103555Y-98443461D01*
X64103558Y-98443461D01*
X64136887Y-98429654D01*
X64136886Y-98429654D01*
X64136892Y-98429652D01*
X64217386Y-98396312D01*
X64275583Y-98357425D01*
X64275584Y-98357425D01*
X64304880Y-98337848D01*
X64319833Y-98327858D01*
X64406958Y-98240733D01*
X64406958Y-98240731D01*
X64417166Y-98230524D01*
X64417168Y-98230521D01*
X64864797Y-97782891D01*
X64926118Y-97749408D01*
X64928108Y-97748993D01*
X65026649Y-97729392D01*
X65096236Y-97735621D01*
X65151413Y-97778484D01*
X65174657Y-97844374D01*
X65158589Y-97912371D01*
X65138516Y-97938691D01*
X64191203Y-98886005D01*
X64180430Y-98891887D01*
X64172574Y-98901318D01*
X64150338Y-98908319D01*
X64129880Y-98919490D01*
X64127714Y-98919941D01*
X64016508Y-98942061D01*
X64016498Y-98942064D01*
X63870827Y-99002402D01*
X63870814Y-99002409D01*
X63739711Y-99090010D01*
X63739707Y-99090013D01*
X63628213Y-99201507D01*
X63628210Y-99201511D01*
X63540609Y-99332614D01*
X63540602Y-99332627D01*
X63480264Y-99478298D01*
X63480261Y-99478310D01*
X63449500Y-99632953D01*
X63449500Y-99790646D01*
X63480261Y-99945289D01*
X63480264Y-99945301D01*
X63540602Y-100090972D01*
X63540609Y-100090985D01*
X63628210Y-100222088D01*
X63628213Y-100222092D01*
X63739707Y-100333586D01*
X63739711Y-100333589D01*
X63870814Y-100421190D01*
X63870827Y-100421197D01*
X64016498Y-100481535D01*
X64016503Y-100481537D01*
X64171153Y-100512299D01*
X64171156Y-100512300D01*
X64171158Y-100512300D01*
X64328844Y-100512300D01*
X64328845Y-100512299D01*
X64483497Y-100481537D01*
X64629179Y-100421194D01*
X64629184Y-100421190D01*
X64629187Y-100421189D01*
X64696143Y-100376450D01*
X64719221Y-100361029D01*
X64785897Y-100340151D01*
X64853278Y-100358635D01*
X64875793Y-100376450D01*
X64943454Y-100444111D01*
X64943458Y-100444114D01*
X65058182Y-100520771D01*
X65058195Y-100520778D01*
X65185667Y-100573578D01*
X65185672Y-100573580D01*
X65185676Y-100573580D01*
X65185677Y-100573581D01*
X65321004Y-100600500D01*
X65321007Y-100600500D01*
X65458995Y-100600500D01*
X65550041Y-100582389D01*
X65594328Y-100573580D01*
X65721811Y-100520775D01*
X65836542Y-100444114D01*
X65934114Y-100346542D01*
X66010775Y-100231811D01*
X66063580Y-100104328D01*
X66090500Y-99968993D01*
X66090500Y-99831007D01*
X66090500Y-99831004D01*
X66063581Y-99695677D01*
X66063580Y-99695676D01*
X66063580Y-99695672D01*
X66037601Y-99632953D01*
X66010778Y-99568195D01*
X66010771Y-99568182D01*
X65934114Y-99453458D01*
X65934111Y-99453454D01*
X65836545Y-99355888D01*
X65836541Y-99355885D01*
X65754737Y-99301225D01*
X65709932Y-99247613D01*
X65701225Y-99178288D01*
X65731380Y-99115260D01*
X65735947Y-99110442D01*
X65904326Y-98942064D01*
X66687172Y-98159219D01*
X66748495Y-98125734D01*
X66774853Y-98122900D01*
X69060050Y-98122900D01*
X69127089Y-98142585D01*
X69128941Y-98143798D01*
X69223221Y-98206794D01*
X69223223Y-98206795D01*
X69223227Y-98206797D01*
X69368898Y-98267135D01*
X69368903Y-98267137D01*
X69523553Y-98297899D01*
X69523556Y-98297900D01*
X69523558Y-98297900D01*
X69681244Y-98297900D01*
X69681245Y-98297899D01*
X69835897Y-98267137D01*
X69981579Y-98206794D01*
X70112689Y-98119189D01*
X70224189Y-98007689D01*
X70311794Y-97876579D01*
X70372137Y-97730897D01*
X70402900Y-97576242D01*
X70402900Y-97418558D01*
X70402900Y-97418555D01*
X70402899Y-97418553D01*
X70393624Y-97371923D01*
X70372137Y-97263903D01*
X70341773Y-97190597D01*
X70311797Y-97118227D01*
X70311790Y-97118214D01*
X70224189Y-96987111D01*
X70224186Y-96987107D01*
X70112692Y-96875613D01*
X70112688Y-96875610D01*
X69981585Y-96788009D01*
X69981572Y-96788002D01*
X69835901Y-96727664D01*
X69835889Y-96727661D01*
X69681245Y-96696900D01*
X69681242Y-96696900D01*
X69523558Y-96696900D01*
X69523555Y-96696900D01*
X69368910Y-96727661D01*
X69368898Y-96727664D01*
X69223227Y-96788002D01*
X69223215Y-96788009D01*
X69128941Y-96851002D01*
X69062264Y-96871880D01*
X69060050Y-96871900D01*
X67514913Y-96871900D01*
X67447874Y-96852215D01*
X67402119Y-96799411D01*
X67392175Y-96730253D01*
X67421200Y-96666697D01*
X67446023Y-96644798D01*
X67505659Y-96604949D01*
X67526225Y-96591208D01*
X67641208Y-96476225D01*
X67705301Y-96380303D01*
X67731547Y-96341023D01*
X67731549Y-96341019D01*
X67752290Y-96290943D01*
X67793776Y-96190789D01*
X67825500Y-96031305D01*
X67825500Y-96025098D01*
X67845185Y-95958059D01*
X67861819Y-95937417D01*
X67913294Y-95885941D01*
X67980520Y-95818716D01*
X68059577Y-95681784D01*
X68100501Y-95529057D01*
X68100501Y-95512826D01*
X68120186Y-95445787D01*
X68172990Y-95400032D01*
X68242148Y-95390088D01*
X68254726Y-95392884D01*
X68418692Y-95425500D01*
X68418695Y-95425500D01*
X68581307Y-95425500D01*
X68688598Y-95404157D01*
X68740789Y-95393776D01*
X68891021Y-95331548D01*
X68891023Y-95331547D01*
X68995347Y-95261840D01*
X69026225Y-95241208D01*
X69141208Y-95126225D01*
X69213422Y-95018149D01*
X69231547Y-94991023D01*
X69231549Y-94991019D01*
X69293774Y-94840793D01*
X69293776Y-94840789D01*
X69325500Y-94681305D01*
X69325500Y-94518695D01*
X69325500Y-94518692D01*
X69293777Y-94359216D01*
X69293776Y-94359215D01*
X69293776Y-94359211D01*
X69293603Y-94358794D01*
X69231549Y-94208980D01*
X69231547Y-94208976D01*
X69141211Y-94073779D01*
X69141205Y-94073771D01*
X69026228Y-93958794D01*
X69026220Y-93958788D01*
X68891023Y-93868452D01*
X68891019Y-93868450D01*
X68740793Y-93806225D01*
X68740784Y-93806223D01*
X68700307Y-93798171D01*
X68638397Y-93765785D01*
X68603823Y-93705069D01*
X68600500Y-93676554D01*
X68600500Y-88550097D01*
X68620185Y-88483058D01*
X68636819Y-88462416D01*
X78037417Y-79061819D01*
X78098740Y-79028334D01*
X78125098Y-79025500D01*
X78131307Y-79025500D01*
X78238598Y-79004157D01*
X78290789Y-78993776D01*
X78441021Y-78931548D01*
X78441023Y-78931547D01*
X78508169Y-78886680D01*
X78576225Y-78841208D01*
X78691208Y-78726225D01*
X78781548Y-78591021D01*
X78843776Y-78440789D01*
X78853025Y-78394290D01*
X78885409Y-78332381D01*
X78946125Y-78297807D01*
X78950388Y-78296878D01*
X79023497Y-78282337D01*
X79169179Y-78221994D01*
X79300289Y-78134389D01*
X79411789Y-78022889D01*
X79499394Y-77891779D01*
X79559737Y-77746097D01*
X79590500Y-77591442D01*
X79590500Y-77433758D01*
X79590500Y-77433755D01*
X79590499Y-77433753D01*
X79581361Y-77387813D01*
X79559737Y-77279103D01*
X79547145Y-77248703D01*
X79499397Y-77133427D01*
X79499390Y-77133414D01*
X79411789Y-77002311D01*
X79411786Y-77002307D01*
X79300292Y-76890813D01*
X79300288Y-76890810D01*
X79169185Y-76803209D01*
X79169172Y-76803202D01*
X79023501Y-76742864D01*
X79023489Y-76742861D01*
X78868845Y-76712100D01*
X78868842Y-76712100D01*
X78711158Y-76712100D01*
X78711155Y-76712100D01*
X78556510Y-76742861D01*
X78556498Y-76742864D01*
X78410827Y-76803202D01*
X78410815Y-76803209D01*
X78316541Y-76866202D01*
X78249864Y-76887080D01*
X78247650Y-76887100D01*
X75553451Y-76887100D01*
X75486412Y-76867415D01*
X75440657Y-76814611D01*
X75430713Y-76745453D01*
X75459738Y-76681897D01*
X75465770Y-76675419D01*
X80404126Y-71737064D01*
X85438871Y-66702319D01*
X85500194Y-66668834D01*
X85526552Y-66666000D01*
X85867650Y-66666000D01*
X85934689Y-66685685D01*
X85936541Y-66686898D01*
X86030821Y-66749894D01*
X86030823Y-66749895D01*
X86030827Y-66749897D01*
X86176498Y-66810235D01*
X86176503Y-66810237D01*
X86331153Y-66840999D01*
X86331156Y-66841000D01*
X86331158Y-66841000D01*
X86488844Y-66841000D01*
X86488845Y-66840999D01*
X86643497Y-66810237D01*
X86789179Y-66749894D01*
X86920289Y-66662289D01*
X87031789Y-66550789D01*
X87119394Y-66419679D01*
X87122306Y-66412650D01*
X87175508Y-66284207D01*
X87179737Y-66273997D01*
X87210500Y-66119342D01*
X87210500Y-65961658D01*
X87210500Y-65961655D01*
X87210499Y-65961653D01*
X87193058Y-65873972D01*
X87179737Y-65807003D01*
X87128147Y-65682452D01*
X87119397Y-65661327D01*
X87119390Y-65661314D01*
X87031789Y-65530211D01*
X87031786Y-65530207D01*
X86920292Y-65418713D01*
X86920288Y-65418710D01*
X86789185Y-65331109D01*
X86789172Y-65331102D01*
X86643501Y-65270764D01*
X86643489Y-65270761D01*
X86488845Y-65240000D01*
X86488842Y-65240000D01*
X86331158Y-65240000D01*
X86331155Y-65240000D01*
X86176510Y-65270761D01*
X86176498Y-65270764D01*
X86111952Y-65297500D01*
X86042482Y-65304969D01*
X85980003Y-65273693D01*
X85944352Y-65213604D01*
X85940500Y-65182939D01*
X85940500Y-65151455D01*
X85940499Y-65151453D01*
X85933373Y-65115627D01*
X85909737Y-64996803D01*
X85909735Y-64996798D01*
X85849397Y-64851127D01*
X85849390Y-64851114D01*
X85761789Y-64720011D01*
X85761786Y-64720007D01*
X85650292Y-64608513D01*
X85650288Y-64608510D01*
X85519185Y-64520909D01*
X85519172Y-64520902D01*
X85373501Y-64460564D01*
X85373489Y-64460561D01*
X85218845Y-64429800D01*
X85218842Y-64429800D01*
X85061158Y-64429800D01*
X85061155Y-64429800D01*
X84906510Y-64460561D01*
X84906498Y-64460564D01*
X84760827Y-64520902D01*
X84760814Y-64520909D01*
X84629711Y-64608510D01*
X84629707Y-64608513D01*
X84518213Y-64720007D01*
X84518210Y-64720011D01*
X84430609Y-64851114D01*
X84430602Y-64851127D01*
X84370264Y-64996798D01*
X84370261Y-64996808D01*
X84348141Y-65108014D01*
X84315756Y-65169925D01*
X84314205Y-65171503D01*
X77008275Y-72477434D01*
X76946952Y-72510919D01*
X76877260Y-72505935D01*
X76832913Y-72477434D01*
X76796892Y-72441413D01*
X76796888Y-72441410D01*
X76665785Y-72353809D01*
X76665772Y-72353802D01*
X76520101Y-72293464D01*
X76520089Y-72293461D01*
X76365445Y-72262700D01*
X76365442Y-72262700D01*
X76207758Y-72262700D01*
X76207755Y-72262700D01*
X76053110Y-72293461D01*
X76053098Y-72293464D01*
X75907427Y-72353802D01*
X75907414Y-72353809D01*
X75776311Y-72441410D01*
X75776307Y-72441413D01*
X75746040Y-72471681D01*
X75684717Y-72505166D01*
X75658359Y-72508000D01*
X73960587Y-72508000D01*
X73893548Y-72488315D01*
X73847793Y-72435511D01*
X73837849Y-72366353D01*
X73866874Y-72302797D01*
X73925652Y-72265023D01*
X73936396Y-72262383D01*
X73950242Y-72259628D01*
X73968297Y-72256037D01*
X74113979Y-72195694D01*
X74245089Y-72108089D01*
X74356589Y-71996589D01*
X74444194Y-71865479D01*
X74452685Y-71844981D01*
X74472389Y-71797409D01*
X74504537Y-71719797D01*
X74535300Y-71565142D01*
X74535300Y-71407458D01*
X74535300Y-71407455D01*
X74535299Y-71407453D01*
X74517148Y-71316203D01*
X74504537Y-71252803D01*
X74475394Y-71182444D01*
X74444197Y-71107127D01*
X74444190Y-71107114D01*
X74356589Y-70976011D01*
X74356586Y-70976007D01*
X74245092Y-70864513D01*
X74245088Y-70864510D01*
X74113985Y-70776909D01*
X74113972Y-70776902D01*
X73968301Y-70716564D01*
X73968289Y-70716561D01*
X73813645Y-70685800D01*
X73813642Y-70685800D01*
X73655958Y-70685800D01*
X73655955Y-70685800D01*
X73501310Y-70716561D01*
X73501298Y-70716564D01*
X73355627Y-70776902D01*
X73355615Y-70776909D01*
X73261341Y-70839902D01*
X73194664Y-70860780D01*
X73192450Y-70860800D01*
X51717350Y-70860800D01*
X51650311Y-70841115D01*
X51648459Y-70839902D01*
X51554184Y-70776909D01*
X51554172Y-70776902D01*
X51408501Y-70716564D01*
X51408489Y-70716561D01*
X51253845Y-70685800D01*
X51253842Y-70685800D01*
X51096158Y-70685800D01*
X51096155Y-70685800D01*
X50941510Y-70716561D01*
X50941498Y-70716564D01*
X50795827Y-70776902D01*
X50795814Y-70776909D01*
X50664711Y-70864510D01*
X50664707Y-70864513D01*
X50553213Y-70976007D01*
X50553210Y-70976011D01*
X50465609Y-71107114D01*
X50465602Y-71107127D01*
X50405264Y-71252798D01*
X50405261Y-71252810D01*
X50374500Y-71407453D01*
X50374500Y-71565146D01*
X50405261Y-71719789D01*
X50405264Y-71719801D01*
X50465602Y-71865472D01*
X50465609Y-71865485D01*
X50553210Y-71996588D01*
X50553213Y-71996592D01*
X50664707Y-72108086D01*
X50664711Y-72108089D01*
X50795814Y-72195690D01*
X50795827Y-72195697D01*
X50928135Y-72250500D01*
X50941503Y-72256037D01*
X50956301Y-72258980D01*
X50973404Y-72262383D01*
X51035315Y-72294768D01*
X51069889Y-72355483D01*
X51066150Y-72425253D01*
X51025283Y-72481925D01*
X50960265Y-72507506D01*
X50949213Y-72508000D01*
X48771252Y-72508000D01*
X48704213Y-72488315D01*
X48658458Y-72435511D01*
X48648514Y-72366353D01*
X48677539Y-72302797D01*
X48683571Y-72296319D01*
X52373224Y-68606665D01*
X52434547Y-68573180D01*
X52504239Y-68578164D01*
X52548586Y-68606665D01*
X52641607Y-68699686D01*
X52641611Y-68699689D01*
X52772714Y-68787290D01*
X52772727Y-68787297D01*
X52918398Y-68847635D01*
X52918403Y-68847637D01*
X53063461Y-68876491D01*
X53073053Y-68878399D01*
X53073056Y-68878400D01*
X53073058Y-68878400D01*
X53230744Y-68878400D01*
X53230745Y-68878399D01*
X53385397Y-68847637D01*
X53531079Y-68787294D01*
X53625359Y-68724298D01*
X53692036Y-68703420D01*
X53694250Y-68703400D01*
X75961450Y-68703400D01*
X76028489Y-68723085D01*
X76030341Y-68724298D01*
X76055012Y-68740783D01*
X76124621Y-68787294D01*
X76124623Y-68787295D01*
X76124627Y-68787297D01*
X76270298Y-68847635D01*
X76270303Y-68847637D01*
X76415361Y-68876491D01*
X76424953Y-68878399D01*
X76424956Y-68878400D01*
X76424958Y-68878400D01*
X76582644Y-68878400D01*
X76582645Y-68878399D01*
X76737297Y-68847637D01*
X76882979Y-68787294D01*
X77014089Y-68699689D01*
X77125589Y-68588189D01*
X77213194Y-68457079D01*
X77273537Y-68311397D01*
X77304300Y-68156742D01*
X77304300Y-67999058D01*
X77304300Y-67999055D01*
X77304299Y-67999053D01*
X77299270Y-67973771D01*
X77273537Y-67844403D01*
X77273535Y-67844398D01*
X77213197Y-67698727D01*
X77213190Y-67698714D01*
X77125589Y-67567611D01*
X77125586Y-67567607D01*
X77014092Y-67456113D01*
X77014088Y-67456110D01*
X76882985Y-67368509D01*
X76882972Y-67368502D01*
X76737301Y-67308164D01*
X76737289Y-67308161D01*
X76582645Y-67277400D01*
X76582642Y-67277400D01*
X76424958Y-67277400D01*
X76424955Y-67277400D01*
X76270310Y-67308161D01*
X76270298Y-67308164D01*
X76124627Y-67368502D01*
X76124615Y-67368509D01*
X76030341Y-67431502D01*
X75963664Y-67452380D01*
X75961450Y-67452400D01*
X74342541Y-67452400D01*
X74275502Y-67432715D01*
X74229747Y-67379911D01*
X74219803Y-67310753D01*
X74248828Y-67247197D01*
X74254860Y-67240719D01*
X74363786Y-67131792D01*
X74363789Y-67131789D01*
X74451394Y-67000679D01*
X74511737Y-66854997D01*
X74542500Y-66700342D01*
X74542500Y-66542658D01*
X74542500Y-66542655D01*
X74542499Y-66542653D01*
X74530343Y-66481540D01*
X74511737Y-66388003D01*
X74499638Y-66358794D01*
X74451397Y-66242327D01*
X74451390Y-66242314D01*
X74363789Y-66111211D01*
X74363786Y-66111207D01*
X74252292Y-65999713D01*
X74252288Y-65999710D01*
X74121185Y-65912109D01*
X74121172Y-65912102D01*
X73975501Y-65851764D01*
X73975489Y-65851761D01*
X73820845Y-65821000D01*
X73820842Y-65821000D01*
X73663158Y-65821000D01*
X73663155Y-65821000D01*
X73508510Y-65851761D01*
X73508498Y-65851764D01*
X73362827Y-65912102D01*
X73362815Y-65912109D01*
X73268541Y-65975102D01*
X73201864Y-65995980D01*
X73199650Y-65996000D01*
X54521653Y-65996000D01*
X54454614Y-65976315D01*
X54408859Y-65923511D01*
X54398915Y-65854353D01*
X54427940Y-65790797D01*
X54433972Y-65784319D01*
X56042772Y-64175519D01*
X56104095Y-64142034D01*
X56130453Y-64139200D01*
X89562394Y-64139200D01*
X89677650Y-64139200D01*
X89744689Y-64158885D01*
X89746541Y-64160098D01*
X89840821Y-64223094D01*
X89840823Y-64223095D01*
X89840827Y-64223097D01*
X89986498Y-64283435D01*
X89986503Y-64283437D01*
X90138891Y-64313749D01*
X90200802Y-64346134D01*
X90235376Y-64406849D01*
X90238700Y-64435366D01*
X90238700Y-64571182D01*
X90219015Y-64638221D01*
X90166211Y-64683976D01*
X90135559Y-64692243D01*
X90135732Y-64693111D01*
X89975110Y-64725061D01*
X89975098Y-64725064D01*
X89829427Y-64785402D01*
X89829414Y-64785409D01*
X89698311Y-64873010D01*
X89698307Y-64873013D01*
X89586813Y-64984507D01*
X89586810Y-64984511D01*
X89499209Y-65115614D01*
X89499202Y-65115627D01*
X89438864Y-65261298D01*
X89438861Y-65261310D01*
X89408100Y-65415953D01*
X89408100Y-65573646D01*
X89438861Y-65728289D01*
X89438864Y-65728301D01*
X89499202Y-65873972D01*
X89499209Y-65873984D01*
X89562202Y-65968259D01*
X89583080Y-66034936D01*
X89583100Y-66037150D01*
X89583100Y-68573547D01*
X89563415Y-68640586D01*
X89546781Y-68661228D01*
X77905003Y-80303005D01*
X77843680Y-80336490D01*
X77841514Y-80336941D01*
X77730308Y-80359061D01*
X77730298Y-80359064D01*
X77584627Y-80419402D01*
X77584614Y-80419409D01*
X77453511Y-80507010D01*
X77453507Y-80507013D01*
X77342013Y-80618507D01*
X77342010Y-80618511D01*
X77254409Y-80749614D01*
X77254402Y-80749627D01*
X77194064Y-80895298D01*
X77194061Y-80895310D01*
X77163300Y-81049953D01*
X77163300Y-81207646D01*
X77194061Y-81362289D01*
X77194064Y-81362301D01*
X77254402Y-81507972D01*
X77254409Y-81507985D01*
X77342010Y-81639088D01*
X77342013Y-81639092D01*
X77453507Y-81750586D01*
X77453511Y-81750589D01*
X77584614Y-81838190D01*
X77584627Y-81838197D01*
X77730298Y-81898535D01*
X77730303Y-81898537D01*
X77859716Y-81924279D01*
X77884953Y-81929299D01*
X77884956Y-81929300D01*
X77884958Y-81929300D01*
X78042644Y-81929300D01*
X78042645Y-81929299D01*
X78197297Y-81898537D01*
X78342979Y-81838194D01*
X78474089Y-81750589D01*
X78585589Y-81639089D01*
X78673194Y-81507979D01*
X78733537Y-81362297D01*
X78755658Y-81251082D01*
X78788040Y-81189175D01*
X78789535Y-81187653D01*
X87006367Y-72970822D01*
X87067688Y-72937339D01*
X87137380Y-72942323D01*
X87164065Y-72957673D01*
X87164646Y-72956805D01*
X87300814Y-73047790D01*
X87300827Y-73047797D01*
X87446498Y-73108135D01*
X87446503Y-73108137D01*
X87601153Y-73138899D01*
X87601156Y-73138900D01*
X87601158Y-73138900D01*
X87758844Y-73138900D01*
X87758845Y-73138899D01*
X87913497Y-73108137D01*
X88059179Y-73047794D01*
X88190289Y-72960189D01*
X88301789Y-72848689D01*
X88389394Y-72717579D01*
X88449737Y-72571897D01*
X88471858Y-72460682D01*
X88504240Y-72398775D01*
X88505734Y-72397254D01*
X90478720Y-70424268D01*
X90540042Y-70390785D01*
X90609734Y-70395769D01*
X90665667Y-70437641D01*
X90690084Y-70503105D01*
X90690400Y-70511951D01*
X90690400Y-71460947D01*
X90670715Y-71527986D01*
X90654081Y-71548628D01*
X88891203Y-73311505D01*
X88829880Y-73344990D01*
X88827714Y-73345441D01*
X88716508Y-73367561D01*
X88716498Y-73367564D01*
X88570827Y-73427902D01*
X88570814Y-73427909D01*
X88439711Y-73515510D01*
X88439707Y-73515513D01*
X88328213Y-73627007D01*
X88328210Y-73627011D01*
X88240609Y-73758114D01*
X88240602Y-73758127D01*
X88180264Y-73903798D01*
X88180261Y-73903810D01*
X88149500Y-74058453D01*
X88149500Y-74216146D01*
X88180261Y-74370789D01*
X88180264Y-74370801D01*
X88240602Y-74516472D01*
X88240609Y-74516485D01*
X88328210Y-74647588D01*
X88328213Y-74647592D01*
X88439707Y-74759086D01*
X88439711Y-74759089D01*
X88570814Y-74846690D01*
X88570827Y-74846697D01*
X88716498Y-74907035D01*
X88716503Y-74907037D01*
X88871153Y-74937799D01*
X88871156Y-74937800D01*
X88871158Y-74937800D01*
X89028844Y-74937800D01*
X89028845Y-74937799D01*
X89183497Y-74907037D01*
X89329179Y-74846694D01*
X89460289Y-74759089D01*
X89571789Y-74647589D01*
X89659394Y-74516479D01*
X89719737Y-74370797D01*
X89741858Y-74259582D01*
X89774240Y-74197675D01*
X89775735Y-74196153D01*
X91714629Y-72257260D01*
X91714633Y-72257258D01*
X91801758Y-72170133D01*
X91870211Y-72067686D01*
X91870212Y-72067685D01*
X91909780Y-71972158D01*
X91917363Y-71953852D01*
X91941400Y-71833006D01*
X91941400Y-58678394D01*
X91917363Y-58557548D01*
X91870211Y-58443714D01*
X91870210Y-58443713D01*
X91870207Y-58443707D01*
X91801759Y-58341268D01*
X91761594Y-58301103D01*
X91714633Y-58254142D01*
X91714632Y-58254141D01*
X69727997Y-36267507D01*
X69727978Y-36267486D01*
X69636533Y-36176041D01*
X69585309Y-36141815D01*
X69534087Y-36107589D01*
X69534086Y-36107588D01*
X69534083Y-36107586D01*
X69534080Y-36107585D01*
X69453592Y-36074247D01*
X69420253Y-36060437D01*
X69410227Y-36058443D01*
X69359829Y-36048418D01*
X69299410Y-36036400D01*
X69299407Y-36036400D01*
X69299406Y-36036400D01*
X47397550Y-36036400D01*
X47330511Y-36016715D01*
X47328659Y-36015502D01*
X47234384Y-35952509D01*
X47234372Y-35952502D01*
X47088701Y-35892164D01*
X47088689Y-35892161D01*
X46934045Y-35861400D01*
X46934042Y-35861400D01*
X46776358Y-35861400D01*
X46776355Y-35861400D01*
X46621710Y-35892161D01*
X46621698Y-35892164D01*
X46476027Y-35952502D01*
X46476014Y-35952509D01*
X46344911Y-36040110D01*
X46344907Y-36040113D01*
X46233413Y-36151607D01*
X46233410Y-36151611D01*
X46145809Y-36282714D01*
X46145802Y-36282727D01*
X46085464Y-36428398D01*
X46085461Y-36428410D01*
X46054700Y-36583053D01*
X46054700Y-36592600D01*
X46035015Y-36659639D01*
X45982211Y-36705394D01*
X45930700Y-36716600D01*
X45921155Y-36716600D01*
X45766510Y-36747361D01*
X45766498Y-36747364D01*
X45620827Y-36807702D01*
X45620814Y-36807709D01*
X45489711Y-36895310D01*
X45489707Y-36895313D01*
X45378213Y-37006807D01*
X45378210Y-37006811D01*
X45290609Y-37137914D01*
X45290602Y-37137927D01*
X45230264Y-37283598D01*
X45230261Y-37283610D01*
X45199500Y-37438253D01*
X45199500Y-37595946D01*
X45230261Y-37750589D01*
X45230264Y-37750601D01*
X45290602Y-37896272D01*
X45290609Y-37896285D01*
X45378210Y-38027388D01*
X45378213Y-38027392D01*
X45489707Y-38138886D01*
X45489711Y-38138889D01*
X45620814Y-38226490D01*
X45620827Y-38226497D01*
X45722117Y-38268452D01*
X45766503Y-38286837D01*
X45921153Y-38317599D01*
X45921156Y-38317600D01*
X45921158Y-38317600D01*
X46078844Y-38317600D01*
X46078845Y-38317599D01*
X46233497Y-38286837D01*
X46379179Y-38226494D01*
X46473459Y-38163498D01*
X46540136Y-38142620D01*
X46542350Y-38142600D01*
X60620648Y-38142600D01*
X60687687Y-38162285D01*
X60733442Y-38215089D01*
X60743386Y-38284247D01*
X60714361Y-38347803D01*
X60707796Y-38354198D01*
X60708082Y-38354484D01*
X60588794Y-38473771D01*
X60588788Y-38473779D01*
X60498452Y-38608976D01*
X60498450Y-38608980D01*
X60436225Y-38759206D01*
X60436222Y-38759216D01*
X60404500Y-38918692D01*
X60404500Y-38918695D01*
X60404500Y-39081305D01*
X60404500Y-39081307D01*
X60404499Y-39081307D01*
X60436222Y-39240783D01*
X60436225Y-39240793D01*
X60498450Y-39391019D01*
X60498452Y-39391023D01*
X60583602Y-39518459D01*
X60604480Y-39585136D01*
X60604500Y-39587349D01*
X60604500Y-49842650D01*
X60584815Y-49909689D01*
X60583603Y-49911540D01*
X60498450Y-50038982D01*
X60436225Y-50189206D01*
X60436222Y-50189216D01*
X60404500Y-50348692D01*
X60404500Y-50348695D01*
X60404500Y-50511305D01*
X60404500Y-50511307D01*
X60404499Y-50511307D01*
X60436222Y-50670783D01*
X60436225Y-50670793D01*
X60498450Y-50821019D01*
X60498452Y-50821023D01*
X60588788Y-50956220D01*
X60588794Y-50956228D01*
X60703771Y-51071205D01*
X60703779Y-51071211D01*
X60838976Y-51161547D01*
X60838980Y-51161549D01*
X60989206Y-51223774D01*
X60989211Y-51223776D01*
X60989215Y-51223776D01*
X60989216Y-51223777D01*
X61148692Y-51255500D01*
X61148695Y-51255500D01*
X61311307Y-51255500D01*
X61427454Y-51232396D01*
X61470789Y-51223776D01*
X61621021Y-51161548D01*
X61754193Y-51072565D01*
X61798892Y-51054051D01*
X61808528Y-51052134D01*
X61881075Y-51037704D01*
X61881077Y-51037704D01*
X61896869Y-51034562D01*
X61912452Y-51031463D01*
X61912457Y-51031460D01*
X61912460Y-51031460D01*
X61945788Y-51017654D01*
X61945792Y-51017652D01*
X61970703Y-51007333D01*
X62040171Y-50999868D01*
X62102649Y-51031145D01*
X62138299Y-51091236D01*
X62135803Y-51161061D01*
X62105831Y-51209578D01*
X55451529Y-57863881D01*
X55390206Y-57897366D01*
X55363848Y-57900200D01*
X45622150Y-57900200D01*
X45555111Y-57880515D01*
X45553259Y-57879302D01*
X45458984Y-57816309D01*
X45458972Y-57816302D01*
X45313301Y-57755964D01*
X45313289Y-57755961D01*
X45158645Y-57725200D01*
X45158642Y-57725200D01*
X45000958Y-57725200D01*
X45000955Y-57725200D01*
X44846310Y-57755961D01*
X44846298Y-57755964D01*
X44700627Y-57816302D01*
X44700612Y-57816310D01*
X44644805Y-57853601D01*
X44578128Y-57874480D01*
X44575913Y-57874500D01*
X42369500Y-57874500D01*
X42302461Y-57854815D01*
X42256706Y-57802011D01*
X42245500Y-57750500D01*
X42245500Y-50793713D01*
X49499500Y-50793713D01*
X49499500Y-51006287D01*
X49532754Y-51216243D01*
X49549029Y-51266333D01*
X49598444Y-51418414D01*
X49694951Y-51607820D01*
X49819890Y-51779786D01*
X49970213Y-51930109D01*
X50142179Y-52055048D01*
X50142181Y-52055049D01*
X50142184Y-52055051D01*
X50331588Y-52151557D01*
X50533757Y-52217246D01*
X50743713Y-52250500D01*
X50743714Y-52250500D01*
X50956286Y-52250500D01*
X50956287Y-52250500D01*
X51166243Y-52217246D01*
X51368412Y-52151557D01*
X51557816Y-52055051D01*
X51579789Y-52039086D01*
X51729786Y-51930109D01*
X51729788Y-51930106D01*
X51729792Y-51930104D01*
X51880104Y-51779792D01*
X51880106Y-51779788D01*
X51880109Y-51779786D01*
X52005048Y-51607820D01*
X52005047Y-51607820D01*
X52005051Y-51607816D01*
X52101557Y-51418412D01*
X52167246Y-51216243D01*
X52200500Y-51006287D01*
X52200500Y-50793713D01*
X52167246Y-50583757D01*
X52101557Y-50381588D01*
X52005051Y-50192184D01*
X52005049Y-50192181D01*
X52005048Y-50192179D01*
X51880109Y-50020213D01*
X51729786Y-49869890D01*
X51557820Y-49744951D01*
X51368414Y-49648444D01*
X51368413Y-49648443D01*
X51368412Y-49648443D01*
X51166243Y-49582754D01*
X51166241Y-49582753D01*
X51166240Y-49582753D01*
X51004957Y-49557208D01*
X50956287Y-49549500D01*
X50743713Y-49549500D01*
X50695042Y-49557208D01*
X50533760Y-49582753D01*
X50331585Y-49648444D01*
X50142179Y-49744951D01*
X49970213Y-49869890D01*
X49819890Y-50020213D01*
X49694951Y-50192179D01*
X49598444Y-50381585D01*
X49532753Y-50583760D01*
X49517801Y-50678166D01*
X49499500Y-50793713D01*
X42245500Y-50793713D01*
X42245500Y-47374641D01*
X42245501Y-47374620D01*
X42245501Y-47245291D01*
X42221464Y-47124455D01*
X42221463Y-47124449D01*
X42174312Y-47010615D01*
X42105858Y-46908167D01*
X42105855Y-46908163D01*
X41971719Y-46774027D01*
X41938234Y-46712704D01*
X41935400Y-46686346D01*
X41935400Y-32907610D01*
X41955085Y-32840571D01*
X42007889Y-32794816D01*
X42021066Y-32789685D01*
X42138412Y-32751557D01*
X42327816Y-32655051D01*
X42414471Y-32592093D01*
X42499786Y-32530109D01*
X42499788Y-32530106D01*
X42499792Y-32530104D01*
X42650104Y-32379792D01*
X42650106Y-32379788D01*
X42650109Y-32379786D01*
X42775048Y-32207820D01*
X42775047Y-32207820D01*
X42775051Y-32207816D01*
X42871557Y-32018412D01*
X42937246Y-31816243D01*
X42970500Y-31606287D01*
X42970500Y-31393713D01*
X42937246Y-31183757D01*
X42871557Y-30981588D01*
X42775051Y-30792184D01*
X42775049Y-30792181D01*
X42775048Y-30792179D01*
X42650109Y-30620213D01*
X42499786Y-30469890D01*
X42327820Y-30344951D01*
X42138414Y-30248444D01*
X42138413Y-30248443D01*
X42138412Y-30248443D01*
X41936243Y-30182754D01*
X41936241Y-30182753D01*
X41936240Y-30182753D01*
X41774957Y-30157208D01*
X41726287Y-30149500D01*
X41513713Y-30149500D01*
X41465042Y-30157208D01*
X41303760Y-30182753D01*
X41101585Y-30248444D01*
X40912179Y-30344951D01*
X40740213Y-30469890D01*
X40589890Y-30620213D01*
X40464949Y-30792182D01*
X40460484Y-30800946D01*
X40412509Y-30851742D01*
X40344688Y-30868536D01*
X40278553Y-30845998D01*
X40239516Y-30800946D01*
X40235050Y-30792182D01*
X40110109Y-30620213D01*
X39959786Y-30469890D01*
X39787820Y-30344951D01*
X39598414Y-30248444D01*
X39598413Y-30248443D01*
X39598412Y-30248443D01*
X39396243Y-30182754D01*
X39396241Y-30182753D01*
X39396240Y-30182753D01*
X39234957Y-30157208D01*
X39186287Y-30149500D01*
X38973713Y-30149500D01*
X38925042Y-30157208D01*
X38763760Y-30182753D01*
X38561585Y-30248444D01*
X38372179Y-30344951D01*
X38200213Y-30469890D01*
X38049890Y-30620213D01*
X37924949Y-30792182D01*
X37920484Y-30800946D01*
X37872509Y-30851742D01*
X37804688Y-30868536D01*
X37738553Y-30845998D01*
X37699516Y-30800946D01*
X37695050Y-30792182D01*
X37570109Y-30620213D01*
X37419786Y-30469890D01*
X37247820Y-30344951D01*
X37058414Y-30248444D01*
X37058413Y-30248443D01*
X37058412Y-30248443D01*
X36856243Y-30182754D01*
X36856241Y-30182753D01*
X36856240Y-30182753D01*
X36694957Y-30157208D01*
X36646287Y-30149500D01*
X36433713Y-30149500D01*
X36385042Y-30157208D01*
X36223760Y-30182753D01*
X36021585Y-30248444D01*
X35832179Y-30344951D01*
X35660215Y-30469889D01*
X35546285Y-30583819D01*
X35484962Y-30617303D01*
X35415270Y-30612319D01*
X35359337Y-30570447D01*
X35342422Y-30539470D01*
X35293354Y-30407913D01*
X35293350Y-30407906D01*
X35207190Y-30292812D01*
X35207187Y-30292809D01*
X35092093Y-30206649D01*
X35092086Y-30206645D01*
X34957379Y-30156403D01*
X34957372Y-30156401D01*
X34897844Y-30150000D01*
X34250000Y-30150000D01*
X34250000Y-31066988D01*
X34192993Y-31034075D01*
X34065826Y-31000000D01*
X33934174Y-31000000D01*
X33807007Y-31034075D01*
X33750000Y-31066988D01*
X33750000Y-30150000D01*
X33102155Y-30150000D01*
X33042627Y-30156401D01*
X33042620Y-30156403D01*
X32907913Y-30206645D01*
X32907906Y-30206649D01*
X32792812Y-30292809D01*
X32792809Y-30292812D01*
X32706649Y-30407906D01*
X32706645Y-30407913D01*
X32656403Y-30542620D01*
X32656401Y-30542627D01*
X32650000Y-30602155D01*
X32650000Y-31250000D01*
X33566988Y-31250000D01*
X33534075Y-31307007D01*
X33500000Y-31434174D01*
X33500000Y-31565826D01*
X33534075Y-31692993D01*
X33566988Y-31750000D01*
X32650000Y-31750000D01*
X32650000Y-32397844D01*
X32656401Y-32457372D01*
X32656403Y-32457379D01*
X32706645Y-32592086D01*
X32706649Y-32592093D01*
X32792809Y-32707187D01*
X32792812Y-32707190D01*
X32907906Y-32793350D01*
X32907913Y-32793354D01*
X33042620Y-32843596D01*
X33042627Y-32843598D01*
X33102155Y-32849999D01*
X33102172Y-32850000D01*
X33750000Y-32850000D01*
X33750000Y-31933012D01*
X33807007Y-31965925D01*
X33934174Y-32000000D01*
X34065826Y-32000000D01*
X34192993Y-31965925D01*
X34250000Y-31933012D01*
X34250000Y-32850000D01*
X34897828Y-32850000D01*
X34897844Y-32849999D01*
X34957372Y-32843598D01*
X34957379Y-32843596D01*
X35092086Y-32793354D01*
X35092093Y-32793350D01*
X35207187Y-32707190D01*
X35207190Y-32707187D01*
X35293350Y-32592093D01*
X35293354Y-32592086D01*
X35342422Y-32460529D01*
X35384293Y-32404595D01*
X35449757Y-32380178D01*
X35518030Y-32395030D01*
X35546285Y-32416181D01*
X35660213Y-32530109D01*
X35832179Y-32655048D01*
X35832181Y-32655049D01*
X35832184Y-32655051D01*
X36021588Y-32751557D01*
X36223757Y-32817246D01*
X36433713Y-32850500D01*
X36433714Y-32850500D01*
X36646286Y-32850500D01*
X36646287Y-32850500D01*
X36856243Y-32817246D01*
X37058412Y-32751557D01*
X37247816Y-32655051D01*
X37334471Y-32592093D01*
X37419786Y-32530109D01*
X37419788Y-32530106D01*
X37419792Y-32530104D01*
X37570104Y-32379792D01*
X37570106Y-32379788D01*
X37570109Y-32379786D01*
X37695048Y-32207820D01*
X37695047Y-32207820D01*
X37695051Y-32207816D01*
X37699514Y-32199054D01*
X37747488Y-32148259D01*
X37815308Y-32131463D01*
X37881444Y-32153999D01*
X37920486Y-32199056D01*
X37924951Y-32207820D01*
X38049890Y-32379786D01*
X38200213Y-32530109D01*
X38372181Y-32655050D01*
X38386792Y-32662494D01*
X38437589Y-32710467D01*
X38454500Y-32772980D01*
X38454500Y-45467311D01*
X38478535Y-45588144D01*
X38478540Y-45588161D01*
X38525685Y-45701980D01*
X38525690Y-45701989D01*
X38559914Y-45753207D01*
X38559915Y-45753209D01*
X38594141Y-45804433D01*
X38685586Y-45895878D01*
X38685608Y-45895898D01*
X40448781Y-47659071D01*
X40482266Y-47720394D01*
X40485100Y-47746752D01*
X40485100Y-55672092D01*
X40465415Y-55739131D01*
X40412611Y-55784886D01*
X40343453Y-55794830D01*
X40322784Y-55790024D01*
X40292827Y-55780291D01*
X40098422Y-55749500D01*
X40098417Y-55749500D01*
X39901583Y-55749500D01*
X39901578Y-55749500D01*
X39707173Y-55780290D01*
X39519970Y-55841117D01*
X39344594Y-55930476D01*
X39253741Y-55996485D01*
X39185354Y-56046172D01*
X39185352Y-56046174D01*
X39185351Y-56046174D01*
X39046173Y-56185352D01*
X38945885Y-56323386D01*
X38890554Y-56366051D01*
X38845567Y-56374500D01*
X38209200Y-56374500D01*
X38142161Y-56354815D01*
X38096406Y-56302011D01*
X38085389Y-56257347D01*
X38047089Y-55564743D01*
X38046900Y-55557896D01*
X38046900Y-55516994D01*
X38045214Y-55508520D01*
X38043020Y-55491165D01*
X38042544Y-55482555D01*
X38042544Y-55482554D01*
X38042544Y-55482552D01*
X38032355Y-55442915D01*
X38030846Y-55436289D01*
X38022863Y-55396148D01*
X38019559Y-55388173D01*
X38014021Y-55371581D01*
X38011872Y-55363219D01*
X38011296Y-55362021D01*
X37994151Y-55326340D01*
X37991362Y-55320098D01*
X37975711Y-55282313D01*
X37970910Y-55275128D01*
X37962248Y-55259947D01*
X37958507Y-55252161D01*
X37933932Y-55219447D01*
X37929978Y-55213869D01*
X37907258Y-55179867D01*
X37907257Y-55179865D01*
X37901156Y-55173765D01*
X37889689Y-55160554D01*
X37884502Y-55153649D01*
X37884499Y-55153647D01*
X37884495Y-55153641D01*
X37854019Y-55126360D01*
X37849043Y-55121652D01*
X37820134Y-55092743D01*
X37812950Y-55087943D01*
X37799130Y-55077225D01*
X37792704Y-55071472D01*
X37792702Y-55071471D01*
X37792699Y-55071468D01*
X37757486Y-55050655D01*
X37751704Y-55047018D01*
X37717694Y-55024294D01*
X37717691Y-55024292D01*
X37717686Y-55024289D01*
X37717679Y-55024286D01*
X37709703Y-55020982D01*
X37694070Y-55013174D01*
X37693057Y-55012575D01*
X37686629Y-55008776D01*
X37686625Y-55008774D01*
X37686624Y-55008774D01*
X37648041Y-54995236D01*
X37641646Y-54992791D01*
X37603855Y-54977137D01*
X37595369Y-54975449D01*
X37578526Y-54970843D01*
X37570368Y-54967981D01*
X37555371Y-54965851D01*
X37529857Y-54962226D01*
X37523135Y-54961081D01*
X37483006Y-54953100D01*
X37483005Y-54953100D01*
X37474366Y-54953100D01*
X37456931Y-54951868D01*
X37448377Y-54950653D01*
X37448376Y-54950653D01*
X37426404Y-54951868D01*
X37407542Y-54952911D01*
X37400696Y-54953100D01*
X34176850Y-54953100D01*
X34109811Y-54933415D01*
X34107959Y-54932202D01*
X34013684Y-54869209D01*
X34013672Y-54869202D01*
X33868001Y-54808864D01*
X33867989Y-54808861D01*
X33713345Y-54778100D01*
X33713342Y-54778100D01*
X33555658Y-54778100D01*
X33555655Y-54778100D01*
X33401010Y-54808861D01*
X33400998Y-54808864D01*
X33255327Y-54869202D01*
X33255314Y-54869209D01*
X33124211Y-54956810D01*
X33124207Y-54956813D01*
X33012713Y-55068307D01*
X33012710Y-55068311D01*
X32925109Y-55199414D01*
X32925102Y-55199427D01*
X32864764Y-55345098D01*
X32864761Y-55345110D01*
X32834000Y-55499753D01*
X32834000Y-55657446D01*
X32864761Y-55812089D01*
X32864764Y-55812101D01*
X32925102Y-55957772D01*
X32925109Y-55957785D01*
X33014599Y-56091716D01*
X33035477Y-56158394D01*
X33016992Y-56225774D01*
X33011815Y-56233493D01*
X32930904Y-56344856D01*
X32841581Y-56520164D01*
X32780778Y-56707294D01*
X32750000Y-56901617D01*
X32750000Y-57098382D01*
X32780778Y-57292705D01*
X32841581Y-57479835D01*
X32930905Y-57655145D01*
X32956319Y-57690125D01*
X32956320Y-57690125D01*
X33735542Y-56910904D01*
X33796865Y-56877419D01*
X33866557Y-56882403D01*
X33910904Y-56910904D01*
X33999999Y-56999999D01*
X34089094Y-56910904D01*
X34150417Y-56877419D01*
X34220109Y-56882403D01*
X34264457Y-56910904D01*
X35043678Y-57690126D01*
X35043678Y-57690125D01*
X35069095Y-57655143D01*
X35158418Y-57479835D01*
X35219221Y-57292705D01*
X35250000Y-57098382D01*
X35250000Y-56901617D01*
X35219221Y-56707294D01*
X35158418Y-56520164D01*
X35089241Y-56384395D01*
X35076345Y-56315726D01*
X35102621Y-56250985D01*
X35159728Y-56210728D01*
X35199726Y-56204100D01*
X36712200Y-56204100D01*
X36779239Y-56223785D01*
X36824994Y-56276589D01*
X36836011Y-56321253D01*
X36874311Y-57013856D01*
X36874500Y-57020703D01*
X36874500Y-57061608D01*
X36876186Y-57070084D01*
X36878379Y-57087418D01*
X36878856Y-57096053D01*
X36889036Y-57135660D01*
X36890556Y-57142332D01*
X36898536Y-57182451D01*
X36898537Y-57182454D01*
X36901841Y-57190430D01*
X36907373Y-57207003D01*
X36909527Y-57215381D01*
X36927253Y-57252271D01*
X36930047Y-57258524D01*
X36945687Y-57296284D01*
X36950487Y-57303467D01*
X36959144Y-57318640D01*
X36962893Y-57326440D01*
X36962894Y-57326442D01*
X36962895Y-57326443D01*
X36987459Y-57359142D01*
X36991417Y-57364725D01*
X37014139Y-57398729D01*
X37014144Y-57398735D01*
X37020247Y-57404838D01*
X37031707Y-57418041D01*
X37036896Y-57424949D01*
X37067376Y-57452234D01*
X37072334Y-57456925D01*
X37095244Y-57479835D01*
X37101266Y-57485857D01*
X37108449Y-57490657D01*
X37122258Y-57501365D01*
X37128701Y-57507133D01*
X37128703Y-57507134D01*
X37128704Y-57507135D01*
X37163923Y-57527951D01*
X37169714Y-57531593D01*
X37203714Y-57554311D01*
X37203716Y-57554312D01*
X37203720Y-57554314D01*
X37211688Y-57557614D01*
X37227333Y-57565429D01*
X37234771Y-57569825D01*
X37273390Y-57583375D01*
X37279765Y-57585813D01*
X37317539Y-57601460D01*
X37317544Y-57601461D01*
X37317548Y-57601463D01*
X37326006Y-57603145D01*
X37342883Y-57607759D01*
X37351035Y-57610620D01*
X37391558Y-57616375D01*
X37398258Y-57617515D01*
X37438394Y-57625500D01*
X37447026Y-57625500D01*
X37464461Y-57626732D01*
X37467159Y-57627115D01*
X37473024Y-57627948D01*
X37512259Y-57625778D01*
X37513876Y-57625689D01*
X37520722Y-57625500D01*
X38845567Y-57625500D01*
X38912606Y-57645185D01*
X38945885Y-57676614D01*
X38955702Y-57690126D01*
X39046172Y-57814646D01*
X39185354Y-57953828D01*
X39344595Y-58069524D01*
X39412537Y-58104142D01*
X39519970Y-58158882D01*
X39519972Y-58158882D01*
X39519975Y-58158884D01*
X39620317Y-58191487D01*
X39707173Y-58219709D01*
X39901578Y-58250500D01*
X39901583Y-58250500D01*
X40098422Y-58250500D01*
X40292826Y-58219709D01*
X40322781Y-58209976D01*
X40392622Y-58207980D01*
X40452455Y-58244060D01*
X40483284Y-58306761D01*
X40485100Y-58327907D01*
X40485100Y-58578947D01*
X40465415Y-58645986D01*
X40448781Y-58666628D01*
X39601269Y-59514140D01*
X39601267Y-59514142D01*
X39572824Y-59542585D01*
X39514140Y-59601268D01*
X39487394Y-59641298D01*
X39487391Y-59641303D01*
X39446098Y-59703100D01*
X39442303Y-59708780D01*
X39440772Y-59707757D01*
X39397843Y-59751453D01*
X39384912Y-59757710D01*
X39358979Y-59768452D01*
X39358972Y-59768455D01*
X39223775Y-59858791D01*
X39223771Y-59858794D01*
X39108794Y-59973771D01*
X39108788Y-59973779D01*
X39018452Y-60108976D01*
X39018450Y-60108980D01*
X38956225Y-60259206D01*
X38956222Y-60259216D01*
X38924500Y-60418692D01*
X38924500Y-60418695D01*
X38924500Y-60581305D01*
X38924500Y-60581307D01*
X38924499Y-60581307D01*
X38956222Y-60740783D01*
X38956225Y-60740793D01*
X39018450Y-60891019D01*
X39018452Y-60891023D01*
X39108788Y-61026220D01*
X39108794Y-61026228D01*
X39124885Y-61042319D01*
X39158370Y-61103642D01*
X39153386Y-61173334D01*
X39111514Y-61229267D01*
X39046050Y-61253684D01*
X39037204Y-61254000D01*
X33188241Y-61254000D01*
X33188221Y-61253999D01*
X33182107Y-61253999D01*
X33058894Y-61253999D01*
X33058892Y-61253999D01*
X32961677Y-61273337D01*
X32947446Y-61276167D01*
X32938046Y-61278037D01*
X32938043Y-61278038D01*
X32901718Y-61293085D01*
X32824221Y-61325184D01*
X32824208Y-61325191D01*
X32721767Y-61393641D01*
X32721763Y-61393644D01*
X32348354Y-61767053D01*
X32287031Y-61800538D01*
X32217339Y-61795554D01*
X32161406Y-61753682D01*
X32157570Y-61748262D01*
X32146397Y-61731540D01*
X32125520Y-61664862D01*
X32125500Y-61662650D01*
X32125500Y-58835793D01*
X32125499Y-58835789D01*
X32101464Y-58714955D01*
X32101463Y-58714948D01*
X32054311Y-58601114D01*
X32054310Y-58601113D01*
X32054307Y-58601107D01*
X31985858Y-58498667D01*
X31985855Y-58498663D01*
X31898736Y-58411544D01*
X31898732Y-58411541D01*
X31796292Y-58343092D01*
X31796283Y-58343087D01*
X31682454Y-58295938D01*
X31682455Y-58295938D01*
X31682452Y-58295937D01*
X31682448Y-58295936D01*
X31682444Y-58295935D01*
X31561610Y-58271900D01*
X31561606Y-58271900D01*
X28758491Y-58271900D01*
X28730951Y-58263813D01*
X28702714Y-58258647D01*
X28697846Y-58254092D01*
X28691452Y-58252215D01*
X28672658Y-58230525D01*
X28651694Y-58210911D01*
X28650061Y-58204447D01*
X28645697Y-58199411D01*
X28641612Y-58171001D01*
X28634581Y-58143169D01*
X28636701Y-58136849D01*
X28635753Y-58130253D01*
X28647677Y-58104142D01*
X28656809Y-58076930D01*
X28662974Y-58070646D01*
X28664778Y-58066697D01*
X28680923Y-58051157D01*
X28683221Y-58049313D01*
X28690978Y-58043677D01*
X33309873Y-58043677D01*
X33309873Y-58043678D01*
X33344858Y-58069096D01*
X33520164Y-58158418D01*
X33707294Y-58219221D01*
X33901618Y-58250000D01*
X34098382Y-58250000D01*
X34292705Y-58219221D01*
X34479835Y-58158418D01*
X34655143Y-58069095D01*
X34690125Y-58043678D01*
X34690126Y-58043678D01*
X34000001Y-57353553D01*
X34000000Y-57353553D01*
X33309873Y-58043677D01*
X28690978Y-58043677D01*
X28814646Y-57953828D01*
X28953828Y-57814646D01*
X29069524Y-57655405D01*
X29158884Y-57480025D01*
X29219709Y-57292826D01*
X29233302Y-57207003D01*
X29250500Y-57098422D01*
X29250500Y-56901577D01*
X29219709Y-56707173D01*
X29158882Y-56519970D01*
X29074731Y-56354815D01*
X29069524Y-56344595D01*
X28953828Y-56185354D01*
X28814646Y-56046172D01*
X28676612Y-55945884D01*
X28633949Y-55890556D01*
X28625500Y-55845568D01*
X28625500Y-54309452D01*
X28645185Y-54242413D01*
X28697989Y-54196658D01*
X28767147Y-54186714D01*
X28830703Y-54215739D01*
X28837181Y-54221771D01*
X29452372Y-54836962D01*
X29485857Y-54898285D01*
X29480873Y-54967977D01*
X29479252Y-54972095D01*
X29437664Y-55072498D01*
X29437661Y-55072510D01*
X29406900Y-55227153D01*
X29406900Y-55384846D01*
X29437661Y-55539489D01*
X29437664Y-55539501D01*
X29498002Y-55685172D01*
X29498009Y-55685185D01*
X29585610Y-55816288D01*
X29585613Y-55816292D01*
X29697107Y-55927786D01*
X29697111Y-55927789D01*
X29828214Y-56015390D01*
X29828227Y-56015397D01*
X29973898Y-56075735D01*
X29973903Y-56075737D01*
X30128553Y-56106499D01*
X30128556Y-56106500D01*
X30128558Y-56106500D01*
X30286244Y-56106500D01*
X30286245Y-56106499D01*
X30440897Y-56075737D01*
X30586579Y-56015394D01*
X30717689Y-55927789D01*
X30829189Y-55816289D01*
X30916794Y-55685179D01*
X30977137Y-55539497D01*
X31007900Y-55384842D01*
X31007900Y-55227158D01*
X31007900Y-55227155D01*
X31007899Y-55227153D01*
X30996046Y-55167565D01*
X30977137Y-55072503D01*
X30957165Y-55024286D01*
X30916797Y-54926828D01*
X30916796Y-54926827D01*
X30916794Y-54926821D01*
X30853797Y-54832539D01*
X30832920Y-54765863D01*
X30832900Y-54763650D01*
X30832900Y-54645793D01*
X30832899Y-54645789D01*
X30831789Y-54640209D01*
X30808863Y-54524948D01*
X30761711Y-54411114D01*
X30761710Y-54411113D01*
X30761707Y-54411107D01*
X30693258Y-54308667D01*
X30693255Y-54308663D01*
X30603037Y-54218445D01*
X30603006Y-54218416D01*
X28990198Y-52605608D01*
X28990178Y-52605586D01*
X28898733Y-52514141D01*
X28847509Y-52479915D01*
X28796286Y-52445688D01*
X28796283Y-52445686D01*
X28796280Y-52445685D01*
X28715792Y-52412347D01*
X28682453Y-52398537D01*
X28672427Y-52396543D01*
X28622029Y-52386518D01*
X28561610Y-52374500D01*
X28561607Y-52374500D01*
X28561606Y-52374500D01*
X28061606Y-52374500D01*
X27938394Y-52374500D01*
X27938389Y-52374500D01*
X27817555Y-52398535D01*
X27817545Y-52398538D01*
X27703716Y-52445687D01*
X27703707Y-52445692D01*
X27601267Y-52514141D01*
X27601263Y-52514144D01*
X27514144Y-52601263D01*
X27514141Y-52601267D01*
X27445692Y-52703707D01*
X27445687Y-52703716D01*
X27398538Y-52817545D01*
X27398535Y-52817555D01*
X27374500Y-52938389D01*
X27374500Y-55845568D01*
X27354815Y-55912607D01*
X27323388Y-55945883D01*
X27185354Y-56046172D01*
X27185352Y-56046174D01*
X27185351Y-56046174D01*
X27046174Y-56185351D01*
X27046174Y-56185352D01*
X27046172Y-56185354D01*
X27027737Y-56210728D01*
X26930476Y-56344594D01*
X26841117Y-56519970D01*
X26780290Y-56707173D01*
X26749500Y-56901577D01*
X26749500Y-57098422D01*
X26780290Y-57292826D01*
X26841117Y-57480029D01*
X26916486Y-57627948D01*
X26930476Y-57655405D01*
X27046172Y-57814646D01*
X27185354Y-57953828D01*
X27344595Y-58069524D01*
X27357417Y-58076057D01*
X27408213Y-58124032D01*
X27425008Y-58191853D01*
X27402471Y-58257988D01*
X27348576Y-58301102D01*
X27313897Y-58315467D01*
X27247219Y-58343085D01*
X27247217Y-58343086D01*
X27144766Y-58411541D01*
X27144763Y-58411544D01*
X25989069Y-59567240D01*
X25901941Y-59654367D01*
X25893836Y-59666498D01*
X25888490Y-59674500D01*
X25869380Y-59703100D01*
X25833487Y-59756814D01*
X25833485Y-59756818D01*
X25800147Y-59837307D01*
X25798294Y-59841781D01*
X25786337Y-59870645D01*
X25786335Y-59870653D01*
X25762300Y-59991489D01*
X25762300Y-67622090D01*
X25742615Y-67689129D01*
X25689811Y-67734884D01*
X25685753Y-67736651D01*
X25608977Y-67768452D01*
X25608976Y-67768452D01*
X25473779Y-67858788D01*
X25473771Y-67858794D01*
X25358794Y-67973771D01*
X25358788Y-67973779D01*
X25268452Y-68108976D01*
X25268450Y-68108980D01*
X25206225Y-68259206D01*
X25206222Y-68259216D01*
X25174500Y-68418692D01*
X25174500Y-68418695D01*
X25174500Y-68581305D01*
X25174500Y-68581307D01*
X25174499Y-68581307D01*
X21035151Y-68581307D01*
X21084229Y-65457313D01*
X21084819Y-65447026D01*
X21085675Y-65438394D01*
X21566602Y-60588445D01*
X21567796Y-60579639D01*
X22280831Y-56447923D01*
X22282679Y-56439137D01*
X22300828Y-56366051D01*
X23062616Y-53298323D01*
X23063107Y-53296414D01*
X23737833Y-50757403D01*
X23745592Y-50737178D01*
X23746871Y-50733579D01*
X23746875Y-50733573D01*
X23757481Y-50684035D01*
X23758879Y-50678204D01*
X23771901Y-50629208D01*
X23771901Y-50629203D01*
X23772386Y-50625463D01*
X23774650Y-50603857D01*
X24404082Y-47664348D01*
X24409146Y-47649118D01*
X24408985Y-47649069D01*
X24411383Y-47641314D01*
X24411388Y-47641305D01*
X24420280Y-47589227D01*
X24421260Y-47584131D01*
X24432321Y-47532478D01*
X24432320Y-47532470D01*
X24432971Y-47524375D01*
X24433137Y-47524388D01*
X24434086Y-47508370D01*
X24456920Y-47374641D01*
X24998497Y-44202836D01*
X25002835Y-44187756D01*
X25002601Y-44187694D01*
X25004690Y-44179842D01*
X25004691Y-44179837D01*
X25011571Y-44126846D01*
X25012302Y-44121984D01*
X25021293Y-44069331D01*
X25021292Y-44069327D01*
X25021293Y-44069325D01*
X25021604Y-44061208D01*
X25021845Y-44061217D01*
X25022131Y-44045527D01*
X25487065Y-40465073D01*
X25490850Y-40449567D01*
X25490669Y-40449527D01*
X25492430Y-40441598D01*
X25492432Y-40441594D01*
X25497072Y-40388827D01*
X25497628Y-40383726D01*
X25504449Y-40331206D01*
X25504447Y-40331198D01*
X25504434Y-40323076D01*
X25504619Y-40323075D01*
X25504260Y-40307117D01*
X25506828Y-40277928D01*
X25835308Y-36543637D01*
X25838568Y-36527219D01*
X25838546Y-36527216D01*
X25839945Y-36519213D01*
X25839947Y-36519208D01*
X25842129Y-36467535D01*
X25842493Y-36461964D01*
X25842564Y-36461159D01*
X25847024Y-36410463D01*
X25847022Y-36410456D01*
X25846673Y-36402342D01*
X25846694Y-36402341D01*
X25845590Y-36385630D01*
X26008452Y-32531117D01*
X26012246Y-32505479D01*
X26012318Y-32505200D01*
X26011809Y-32455678D01*
X26011912Y-32449205D01*
X26014003Y-32399743D01*
X26013939Y-32399460D01*
X26010968Y-32373718D01*
X26010905Y-32367593D01*
X25971413Y-28519798D01*
X25973604Y-28495293D01*
X25974284Y-28491732D01*
X25970896Y-28445603D01*
X25970573Y-28437876D01*
X25970099Y-28391643D01*
X25969126Y-28388158D01*
X25964898Y-28363916D01*
X25964505Y-28358567D01*
X25864287Y-26993713D01*
X49499500Y-26993713D01*
X49499500Y-27206287D01*
X49532754Y-27416243D01*
X49581930Y-27567591D01*
X49598444Y-27618414D01*
X49694951Y-27807820D01*
X49819890Y-27979786D01*
X49970213Y-28130109D01*
X50142179Y-28255048D01*
X50142181Y-28255049D01*
X50142184Y-28255051D01*
X50331588Y-28351557D01*
X50533757Y-28417246D01*
X50743713Y-28450500D01*
X50743714Y-28450500D01*
X50956286Y-28450500D01*
X50956287Y-28450500D01*
X51166243Y-28417246D01*
X51368412Y-28351557D01*
X51557816Y-28255051D01*
X51611571Y-28215996D01*
X51729786Y-28130109D01*
X51729788Y-28130106D01*
X51729792Y-28130104D01*
X51880104Y-27979792D01*
X51880106Y-27979788D01*
X51880109Y-27979786D01*
X52005048Y-27807820D01*
X52005047Y-27807820D01*
X52005051Y-27807816D01*
X52101557Y-27618412D01*
X52167246Y-27416243D01*
X52200500Y-27206287D01*
X52200500Y-26993713D01*
X52167246Y-26783757D01*
X52104990Y-26592155D01*
X57190000Y-26592155D01*
X57190000Y-27390000D01*
X58199252Y-27390000D01*
X58177482Y-27427708D01*
X58140000Y-27567591D01*
X58140000Y-27712409D01*
X58177482Y-27852292D01*
X58199252Y-27890000D01*
X57190000Y-27890000D01*
X57190000Y-28687844D01*
X57196401Y-28747372D01*
X57196403Y-28747379D01*
X57246645Y-28882086D01*
X57246649Y-28882093D01*
X57332809Y-28997187D01*
X57332812Y-28997190D01*
X57447906Y-29083350D01*
X57447913Y-29083354D01*
X57582620Y-29133596D01*
X57582627Y-29133598D01*
X57642155Y-29139999D01*
X57642172Y-29140000D01*
X58440000Y-29140000D01*
X58440000Y-28130747D01*
X58477708Y-28152518D01*
X58617591Y-28190000D01*
X58762409Y-28190000D01*
X58902292Y-28152518D01*
X58940000Y-28130747D01*
X58940000Y-29140000D01*
X59737828Y-29140000D01*
X59737844Y-29139999D01*
X59797372Y-29133598D01*
X59797379Y-29133596D01*
X59932086Y-29083354D01*
X59932093Y-29083350D01*
X60047187Y-28997190D01*
X60047190Y-28997187D01*
X60133350Y-28882093D01*
X60137604Y-28874304D01*
X60140883Y-28876094D01*
X60172118Y-28834276D01*
X60237556Y-28809789D01*
X60305845Y-28824566D01*
X60319410Y-28833137D01*
X60443567Y-28923343D01*
X60542991Y-28974002D01*
X60654003Y-29030566D01*
X60654005Y-29030566D01*
X60654008Y-29030568D01*
X60774412Y-29069689D01*
X60878631Y-29103553D01*
X61111903Y-29140500D01*
X61111908Y-29140500D01*
X61348097Y-29140500D01*
X61581368Y-29103553D01*
X61805992Y-29030568D01*
X62016433Y-28923343D01*
X62207510Y-28784517D01*
X62374517Y-28617510D01*
X62399682Y-28582872D01*
X62455011Y-28540207D01*
X62524625Y-28534228D01*
X62586420Y-28566833D01*
X62600315Y-28582870D01*
X62625483Y-28617510D01*
X62792490Y-28784517D01*
X62983567Y-28923343D01*
X63082991Y-28974002D01*
X63194003Y-29030566D01*
X63194005Y-29030566D01*
X63194008Y-29030568D01*
X63314412Y-29069689D01*
X63418631Y-29103553D01*
X63651903Y-29140500D01*
X63651908Y-29140500D01*
X63888097Y-29140500D01*
X64121368Y-29103553D01*
X64345992Y-29030568D01*
X64556433Y-28923343D01*
X64747510Y-28784517D01*
X64914517Y-28617510D01*
X64939682Y-28582872D01*
X64995011Y-28540207D01*
X65064625Y-28534228D01*
X65126420Y-28566833D01*
X65140315Y-28582870D01*
X65165483Y-28617510D01*
X65332490Y-28784517D01*
X65523567Y-28923343D01*
X65622991Y-28974002D01*
X65734003Y-29030566D01*
X65734005Y-29030566D01*
X65734008Y-29030568D01*
X65854412Y-29069689D01*
X65958631Y-29103553D01*
X66191903Y-29140500D01*
X66191908Y-29140500D01*
X66428097Y-29140500D01*
X66661368Y-29103553D01*
X66885992Y-29030568D01*
X67096433Y-28923343D01*
X67287510Y-28784517D01*
X67454517Y-28617510D01*
X67593343Y-28426433D01*
X67700568Y-28215992D01*
X67773553Y-27991368D01*
X67789608Y-27890000D01*
X67810500Y-27758097D01*
X67810500Y-27521902D01*
X67773553Y-27288631D01*
X67709013Y-27090000D01*
X67700568Y-27064008D01*
X67700565Y-27064004D01*
X67700565Y-27064001D01*
X67690953Y-27045137D01*
X67690952Y-27045136D01*
X67664751Y-26993713D01*
X72799500Y-26993713D01*
X72799500Y-27206287D01*
X72832754Y-27416243D01*
X72881930Y-27567591D01*
X72898444Y-27618414D01*
X72994951Y-27807820D01*
X73119890Y-27979786D01*
X73270213Y-28130109D01*
X73442179Y-28255048D01*
X73442181Y-28255049D01*
X73442184Y-28255051D01*
X73631588Y-28351557D01*
X73833757Y-28417246D01*
X74043713Y-28450500D01*
X74043714Y-28450500D01*
X74256286Y-28450500D01*
X74256287Y-28450500D01*
X74466243Y-28417246D01*
X74668412Y-28351557D01*
X74857816Y-28255051D01*
X74911571Y-28215996D01*
X75029786Y-28130109D01*
X75029788Y-28130106D01*
X75029792Y-28130104D01*
X75180104Y-27979792D01*
X75180106Y-27979788D01*
X75180109Y-27979786D01*
X75305048Y-27807820D01*
X75305047Y-27807820D01*
X75305051Y-27807816D01*
X75401557Y-27618412D01*
X75467246Y-27416243D01*
X75500500Y-27206287D01*
X75500500Y-26993713D01*
X75467246Y-26783757D01*
X75401557Y-26581588D01*
X75305051Y-26392184D01*
X75305049Y-26392181D01*
X75305048Y-26392179D01*
X75180109Y-26220213D01*
X75029786Y-26069890D01*
X74857820Y-25944951D01*
X74668414Y-25848444D01*
X74668413Y-25848443D01*
X74668412Y-25848443D01*
X74466243Y-25782754D01*
X74466241Y-25782753D01*
X74466240Y-25782753D01*
X74304957Y-25757208D01*
X74256287Y-25749500D01*
X74043713Y-25749500D01*
X73995042Y-25757208D01*
X73833760Y-25782753D01*
X73631585Y-25848444D01*
X73442179Y-25944951D01*
X73270213Y-26069890D01*
X73119890Y-26220213D01*
X72994951Y-26392179D01*
X72898444Y-26581585D01*
X72832753Y-26783760D01*
X72824606Y-26835201D01*
X72799500Y-26993713D01*
X67664751Y-26993713D01*
X67593343Y-26853567D01*
X67454517Y-26662490D01*
X67287510Y-26495483D01*
X67096433Y-26356657D01*
X66885996Y-26249433D01*
X66661368Y-26176446D01*
X66428097Y-26139500D01*
X66428092Y-26139500D01*
X66191908Y-26139500D01*
X66191903Y-26139500D01*
X65958631Y-26176446D01*
X65734003Y-26249433D01*
X65523566Y-26356657D01*
X65414550Y-26435862D01*
X65332490Y-26495483D01*
X65332488Y-26495485D01*
X65332487Y-26495485D01*
X65165484Y-26662488D01*
X65140318Y-26697127D01*
X65084987Y-26739792D01*
X65015374Y-26745771D01*
X64953579Y-26713165D01*
X64939682Y-26697127D01*
X64914517Y-26662490D01*
X64747510Y-26495483D01*
X64556433Y-26356657D01*
X64345996Y-26249433D01*
X64121368Y-26176446D01*
X63888097Y-26139500D01*
X63888092Y-26139500D01*
X63651908Y-26139500D01*
X63651903Y-26139500D01*
X63418631Y-26176446D01*
X63194003Y-26249433D01*
X62983566Y-26356657D01*
X62874550Y-26435862D01*
X62792490Y-26495483D01*
X62792488Y-26495485D01*
X62792487Y-26495485D01*
X62625484Y-26662488D01*
X62600318Y-26697127D01*
X62544987Y-26739792D01*
X62475374Y-26745771D01*
X62413579Y-26713165D01*
X62399682Y-26697127D01*
X62374517Y-26662490D01*
X62207510Y-26495483D01*
X62016433Y-26356657D01*
X61805996Y-26249433D01*
X61581368Y-26176446D01*
X61348097Y-26139500D01*
X61348092Y-26139500D01*
X61111908Y-26139500D01*
X61111903Y-26139500D01*
X60878631Y-26176446D01*
X60654003Y-26249433D01*
X60443566Y-26356657D01*
X60319422Y-26446854D01*
X60253615Y-26470334D01*
X60185561Y-26454509D01*
X60137942Y-26405510D01*
X60137604Y-26405696D01*
X60136938Y-26404478D01*
X60136866Y-26404403D01*
X60136719Y-26404076D01*
X60133350Y-26397906D01*
X60047190Y-26282812D01*
X60047187Y-26282809D01*
X59932093Y-26196649D01*
X59932086Y-26196645D01*
X59797379Y-26146403D01*
X59797372Y-26146401D01*
X59737844Y-26140000D01*
X58940000Y-26140000D01*
X58940000Y-27149252D01*
X58902292Y-27127482D01*
X58762409Y-27090000D01*
X58617591Y-27090000D01*
X58477708Y-27127482D01*
X58440000Y-27149252D01*
X58440000Y-26140000D01*
X57642155Y-26140000D01*
X57582627Y-26146401D01*
X57582620Y-26146403D01*
X57447913Y-26196645D01*
X57447906Y-26196649D01*
X57332812Y-26282809D01*
X57332809Y-26282812D01*
X57246649Y-26397906D01*
X57246645Y-26397913D01*
X57196403Y-26532620D01*
X57196401Y-26532627D01*
X57190000Y-26592155D01*
X52104990Y-26592155D01*
X52101557Y-26581588D01*
X52005051Y-26392184D01*
X52005049Y-26392181D01*
X52005048Y-26392179D01*
X51880109Y-26220213D01*
X51729786Y-26069890D01*
X51557820Y-25944951D01*
X51368414Y-25848444D01*
X51368413Y-25848443D01*
X51368412Y-25848443D01*
X51166243Y-25782754D01*
X51166241Y-25782753D01*
X51166240Y-25782753D01*
X51004957Y-25757208D01*
X50956287Y-25749500D01*
X50743713Y-25749500D01*
X50695042Y-25757208D01*
X50533760Y-25782753D01*
X50331585Y-25848444D01*
X50142179Y-25944951D01*
X49970213Y-26069890D01*
X49819890Y-26220213D01*
X49694951Y-26392179D01*
X49598444Y-26581585D01*
X49532753Y-26783760D01*
X49524606Y-26835201D01*
X49499500Y-26993713D01*
X25864287Y-26993713D01*
X25688630Y-24601474D01*
X25689048Y-24578772D01*
X25689979Y-24570343D01*
X25689979Y-24570340D01*
X25683722Y-24529434D01*
X25682631Y-24519777D01*
X25679601Y-24478504D01*
X25676810Y-24470492D01*
X25671338Y-24448461D01*
X25583488Y-23874038D01*
X31899500Y-23874038D01*
X31899500Y-24125961D01*
X31938910Y-24374785D01*
X32016760Y-24614383D01*
X32131132Y-24838848D01*
X32279201Y-25042649D01*
X32279205Y-25042654D01*
X32457345Y-25220794D01*
X32457350Y-25220798D01*
X32635117Y-25349952D01*
X32661155Y-25368870D01*
X32804184Y-25441747D01*
X32885616Y-25483239D01*
X32885618Y-25483239D01*
X32885621Y-25483241D01*
X33125215Y-25561090D01*
X33374038Y-25600500D01*
X33374039Y-25600500D01*
X33625961Y-25600500D01*
X33625962Y-25600500D01*
X33874785Y-25561090D01*
X34114379Y-25483241D01*
X34338845Y-25368870D01*
X34542656Y-25220793D01*
X34720793Y-25042656D01*
X34868870Y-24838845D01*
X34983241Y-24614379D01*
X35061090Y-24374785D01*
X35100500Y-24125962D01*
X35100500Y-23874038D01*
X89899500Y-23874038D01*
X89899500Y-24125961D01*
X89938910Y-24374785D01*
X90016760Y-24614383D01*
X90131132Y-24838848D01*
X90279201Y-25042649D01*
X90279205Y-25042654D01*
X90457345Y-25220794D01*
X90457350Y-25220798D01*
X90635117Y-25349952D01*
X90661155Y-25368870D01*
X90804184Y-25441747D01*
X90885616Y-25483239D01*
X90885618Y-25483239D01*
X90885621Y-25483241D01*
X91125215Y-25561090D01*
X91374038Y-25600500D01*
X91374039Y-25600500D01*
X91625961Y-25600500D01*
X91625962Y-25600500D01*
X91874785Y-25561090D01*
X92114379Y-25483241D01*
X92338845Y-25368870D01*
X92542656Y-25220793D01*
X92720793Y-25042656D01*
X92868870Y-24838845D01*
X92983241Y-24614379D01*
X93061090Y-24374785D01*
X93100500Y-24125962D01*
X93100500Y-23874038D01*
X93061090Y-23625215D01*
X92983241Y-23385621D01*
X92983239Y-23385618D01*
X92983239Y-23385616D01*
X92941747Y-23304184D01*
X92868870Y-23161155D01*
X92849952Y-23135117D01*
X92720798Y-22957350D01*
X92720794Y-22957345D01*
X92542654Y-22779205D01*
X92542649Y-22779201D01*
X92338848Y-22631132D01*
X92338847Y-22631131D01*
X92338845Y-22631130D01*
X92268747Y-22595413D01*
X92114383Y-22516760D01*
X91874785Y-22438910D01*
X91625962Y-22399500D01*
X91374038Y-22399500D01*
X91249626Y-22419205D01*
X91125214Y-22438910D01*
X90885616Y-22516760D01*
X90661151Y-22631132D01*
X90457350Y-22779201D01*
X90457345Y-22779205D01*
X90279205Y-22957345D01*
X90279201Y-22957350D01*
X90131132Y-23161151D01*
X90016760Y-23385616D01*
X89938910Y-23625214D01*
X89899500Y-23874038D01*
X35100500Y-23874038D01*
X35061090Y-23625215D01*
X34983241Y-23385621D01*
X34983239Y-23385618D01*
X34983239Y-23385616D01*
X34941747Y-23304184D01*
X34868870Y-23161155D01*
X34849952Y-23135117D01*
X34720798Y-22957350D01*
X34720794Y-22957345D01*
X34542654Y-22779205D01*
X34542649Y-22779201D01*
X34338848Y-22631132D01*
X34338847Y-22631131D01*
X34338845Y-22631130D01*
X34268747Y-22595413D01*
X34114383Y-22516760D01*
X33874785Y-22438910D01*
X33625962Y-22399500D01*
X33374038Y-22399500D01*
X33249626Y-22419205D01*
X33125214Y-22438910D01*
X32885616Y-22516760D01*
X32661151Y-22631132D01*
X32457350Y-22779201D01*
X32457345Y-22779205D01*
X32279205Y-22957345D01*
X32279201Y-22957350D01*
X32131132Y-23161151D01*
X32016760Y-23385616D01*
X31938910Y-23625214D01*
X31899500Y-23874038D01*
X25583488Y-23874038D01*
X25123623Y-20867121D01*
X25122204Y-20847251D01*
X25122347Y-20831706D01*
X25113759Y-20798441D01*
X25111247Y-20786191D01*
X25110888Y-20783844D01*
X25106052Y-20752222D01*
X25099804Y-20737987D01*
X25093289Y-20719159D01*
X24232390Y-17384626D01*
X24230866Y-17377968D01*
X24205220Y-17249842D01*
X24187903Y-17163328D01*
X24185595Y-17133929D01*
X24191482Y-16989884D01*
X24196031Y-16961301D01*
X24233624Y-16827957D01*
X24244111Y-16802230D01*
X24310943Y-16679714D01*
X24326218Y-16657745D01*
X24419092Y-16550919D01*
X24438389Y-16532989D01*
X24551707Y-16448233D01*
X24574702Y-16434631D01*
X24701549Y-16377047D01*
X24727934Y-16368479D01*
X24862977Y-16340851D01*
X24891807Y-16338400D01*
X25034392Y-16342987D01*
X25063609Y-16347452D01*
X25261389Y-16402429D01*
X25272174Y-16405967D01*
X27263736Y-17161921D01*
X27425289Y-17223243D01*
X27447462Y-17234307D01*
X27450152Y-17236005D01*
X27494710Y-17249844D01*
X27501930Y-17252334D01*
X27545528Y-17268884D01*
X27548687Y-17269204D01*
X27572975Y-17274154D01*
X30212018Y-18093854D01*
X30233624Y-18102881D01*
X30239495Y-18106015D01*
X30275350Y-18114353D01*
X30281551Y-18115795D01*
X30290246Y-18118153D01*
X30331502Y-18130967D01*
X30331501Y-18130967D01*
X30331505Y-18130968D01*
X30338162Y-18131229D01*
X30361363Y-18134354D01*
X33443585Y-18851124D01*
X33464284Y-18857901D01*
X33474238Y-18862162D01*
X33512913Y-18867714D01*
X33523349Y-18869674D01*
X33561402Y-18878523D01*
X33572222Y-18878162D01*
X33593971Y-18879351D01*
X37042443Y-19374448D01*
X37061819Y-19378838D01*
X37075035Y-19382969D01*
X37076806Y-19383523D01*
X37111003Y-19384932D01*
X37123488Y-19386083D01*
X37157361Y-19390947D01*
X37172938Y-19389080D01*
X37192787Y-19388305D01*
X40930828Y-19542463D01*
X40948427Y-19544457D01*
X40969209Y-19548331D01*
X40997892Y-19546102D01*
X41012594Y-19545835D01*
X41041362Y-19547022D01*
X41061998Y-19542394D01*
X41079512Y-19539763D01*
X45030066Y-19232948D01*
X45045566Y-19232718D01*
X45072308Y-19233993D01*
X45094943Y-19229069D01*
X45111688Y-19226610D01*
X45134768Y-19224818D01*
X45160004Y-19215910D01*
X45174910Y-19211675D01*
X49259931Y-18323157D01*
X49273263Y-18321010D01*
X49304908Y-18317672D01*
X49321806Y-18311176D01*
X49339926Y-18305758D01*
X49357618Y-18301911D01*
X49385900Y-18287331D01*
X49398225Y-18281806D01*
X53537793Y-16690798D01*
X53549317Y-16687006D01*
X53583313Y-16677640D01*
X53595951Y-16670222D01*
X53614216Y-16661426D01*
X53627900Y-16656168D01*
X53656422Y-16635426D01*
X53666548Y-16628796D01*
X57779020Y-14215565D01*
X57789431Y-14210104D01*
X57822226Y-14194846D01*
X57832759Y-14186021D01*
X57849633Y-14174129D01*
X57861476Y-14167180D01*
X57861475Y-14167180D01*
X57861478Y-14167179D01*
X57886872Y-14141422D01*
X57895523Y-14133445D01*
X61866356Y-10807160D01*
X61871960Y-10803032D01*
X61875032Y-10800424D01*
X61875036Y-10800423D01*
X61923912Y-10758947D01*
X61924341Y-10758587D01*
X61973358Y-10717528D01*
X61973357Y-10717528D01*
X61976449Y-10714939D01*
X61981473Y-10710104D01*
X62047374Y-10654184D01*
X62063144Y-10642805D01*
X62152318Y-10588564D01*
X62169664Y-10579799D01*
X62262324Y-10541776D01*
X62280725Y-10535856D01*
X62375951Y-10513248D01*
X62394972Y-10510268D01*
X62491591Y-10502757D01*
X62510806Y-10502757D01*
X62605423Y-10510113D01*
G37*
%TD.AperFunction*%
%TD*%
D21*
X32796800Y-51868800D03*
D22*
X58690000Y-39000000D03*
D21*
X41936600Y-46737300D03*
X80936000Y-52631500D03*
D22*
X61230000Y-50430000D03*
D21*
X86778600Y-58971800D03*
X90208600Y-65494800D03*
X30207400Y-55306000D03*
D22*
X61230000Y-39000000D03*
D21*
X86975600Y-56572400D03*
X77963800Y-81128800D03*
D22*
X39750000Y-60500000D03*
X37500000Y-63500000D03*
X28000000Y-67000000D03*
X26000000Y-68500000D03*
X63770000Y-50430000D03*
D21*
X87680000Y-59874800D03*
D22*
X36500000Y-67000000D03*
X36500000Y-69000000D03*
D21*
X45079800Y-58525700D03*
D22*
X42750000Y-69000000D03*
D21*
X88950000Y-60996800D03*
D22*
X66310000Y-50430000D03*
X42750000Y-67000000D03*
D21*
X64806000Y-96957100D03*
X59735000Y-96613800D03*
D22*
X64500000Y-95000000D03*
D21*
X33634500Y-55578600D03*
X37148400Y-75785700D03*
X85140000Y-65230300D03*
X90220000Y-63513700D03*
X87805300Y-56829600D03*
X79670400Y-60503600D03*
X73947300Y-55741200D03*
X81330000Y-60962600D03*
X72093700Y-55349600D03*
X44325900Y-72506800D03*
X73742000Y-66621500D03*
X87680000Y-72338400D03*
X46000000Y-37517100D03*
X83870000Y-60975500D03*
X75054400Y-56184700D03*
X31473800Y-76418000D03*
X86410000Y-66040500D03*
X78790000Y-77512600D03*
X42802400Y-78009600D03*
D22*
X68500000Y-94600000D03*
X78050000Y-78200000D03*
X62000500Y-96791600D03*
X63301100Y-96791600D03*
X67000000Y-95950000D03*
X77150000Y-78200000D03*
D21*
X51175000Y-71486300D03*
X73734800Y-71486300D03*
X53151900Y-68077900D03*
X76503800Y-68077900D03*
D22*
X31500000Y-64750000D03*
D21*
X76286600Y-73063200D03*
D22*
X31500000Y-62250000D03*
D21*
X88950000Y-74137300D03*
X46855200Y-36661900D03*
X61250000Y-97215200D03*
X54427300Y-95747700D03*
X69602400Y-97497400D03*
X64250000Y-99711800D03*
D23*
X34000000Y-31500000D03*
X36540000Y-31500000D03*
X39080000Y-31500000D03*
X41620000Y-31500000D03*
X50850000Y-27100000D03*
X50850000Y-50900000D03*
X74150000Y-27100000D03*
X74150000Y-50900000D03*
X58690000Y-27640000D03*
X61230000Y-27640000D03*
X63770000Y-27640000D03*
X66310000Y-27640000D03*
X91500000Y-24000000D03*
D21*
X85740000Y-68100000D03*
X84340000Y-68100000D03*
X86440000Y-68800000D03*
X85040000Y-68800000D03*
X83640000Y-68800000D03*
X85740000Y-69500000D03*
X84340000Y-69500000D03*
X86440000Y-70200000D03*
X85040000Y-70200000D03*
X83640000Y-70200000D03*
X85740000Y-70900000D03*
X84340000Y-70900000D03*
D23*
X59610000Y-99900000D03*
X65390000Y-99900000D03*
D24*
X58180000Y-99370000D03*
X58180000Y-103550000D03*
X66820000Y-99370000D03*
X66820000Y-103550000D03*
D23*
X33500000Y-24000000D03*
M02*
