<svg xmlns="http://www.w3.org/2000/svg" xmlns:xlink="http://www.w3.org/1999/xlink" width="1920" zoomAndPan="magnify" viewBox="0 0 1440 809.999993" height="1080" preserveAspectRatio="xMidYMid meet" version="1.0"><defs><clipPath id="56aa689fcb"><path d="M 660 391.5 L 779 391.5 L 779 417.75 L 660 417.75 Z M 660 391.5 " clip-rule="nonzero"/></clipPath></defs><g clip-path="url(#56aa689fcb)"><path fill="#ffffff" d="M 684.503906 407.402344 L 691.578125 407.414062 C 691.398438 407.914062 690.613281 408.988281 690.3125 409.359375 C 690.121094 409.597656 689.398438 410.46875 689.183594 410.664062 C 689.015625 410.820312 688.9375 410.902344 688.792969 411.046875 C 688.082031 411.75 687.875 411.921875 687.09375 412.550781 C 684.09375 414.96875 680.039062 416.539062 675.839844 417.207031 C 673.75 417.542969 672.09375 417.601562 669.980469 417.269531 C 668.1875 416.984375 666.546875 416.488281 665.125 415.75 C 663.636719 414.976562 662.542969 414.015625 661.679688 412.824219 C 660.890625 411.742188 660.078125 409.8125 660.039062 408.066406 C 660.046875 408.074219 660.054688 408.085938 660.058594 408.089844 L 660.066406 408.101562 L 660.078125 408.117188 L 660.09375 408.140625 L 660.429688 408.878906 C 660.644531 409.285156 660.875 409.667969 661.136719 410.027344 L 661.339844 410.292969 L 661.871094 410.902344 C 664.46875 413.757812 668.550781 414.28125 672.488281 413.855469 C 675.234375 413.554688 677.257812 412.914062 679.632812 411.757812 C 681.230469 410.984375 682.949219 409.519531 684.011719 408.066406 C 684.105469 407.9375 684.390625 407.472656 684.503906 407.402344 Z M 707.964844 396.949219 C 708 396.949219 708.035156 396.953125 708.074219 396.960938 C 708.335938 397.019531 708.503906 397.285156 708.445312 397.546875 C 707.222656 402.945312 706.453125 406.140625 706.140625 407.136719 C 705.648438 408.6875 704.933594 409.890625 703.617188 410.800781 C 702.304688 411.710938 700.789062 412.164062 699.078125 412.164062 C 697.925781 412.164062 696.796875 412.027344 695.6875 411.75 C 695.425781 411.683594 695.265625 411.417969 695.328125 411.15625 L 695.992188 408.417969 C 696.050781 408.160156 696.304688 408 696.558594 408.050781 C 698.289062 408.378906 699.589844 408.4375 700.46875 408.222656 C 701.898438 407.875 702.316406 406.449219 702.769531 404.558594 C 702.890625 404.054688 703.167969 402.871094 703.59375 401.011719 C 703.605469 400.96875 703.609375 400.925781 703.609375 400.882812 C 703.601562 400.597656 703.363281 400.371094 703.082031 400.378906 C 703.039062 400.378906 702.996094 400.375 702.953125 400.367188 C 702.675781 400.304688 702.5 400.027344 702.5625 399.746094 L 703.117188 397.332031 C 703.167969 397.105469 703.367188 396.949219 703.59375 396.949219 Z M 758.9375 396.730469 C 761.152344 396.730469 762.761719 397.175781 763.761719 398.0625 C 764.539062 398.75 764.910156 400.066406 764.789062 401.140625 C 764.773438 401.273438 764.734375 401.441406 764.675781 401.636719 C 764.609375 401.84375 764.421875 401.984375 764.203125 401.984375 L 761.023438 401.984375 C 760.792969 401.984375 760.597656 401.828125 760.542969 401.605469 C 760.519531 401.503906 760.492188 401.417969 760.457031 401.355469 C 760.140625 400.710938 759.324219 400.269531 758.207031 400.269531 C 756.75 400.269531 754.957031 401.339844 754.5625 403.300781 C 754.339844 404.128906 754.164062 404.824219 754.03125 405.382812 C 753.671875 406.890625 753.769531 408.722656 756.15625 408.722656 C 756.96875 408.722656 758.191406 408.734375 759.015625 407.511719 C 759.066406 407.433594 759.136719 407.3125 759.214844 407.15625 C 759.300781 406.992188 759.46875 406.890625 759.652344 406.890625 L 762.738281 406.890625 C 762.78125 406.890625 762.824219 406.894531 762.863281 406.90625 C 763.128906 406.976562 763.285156 407.246094 763.214844 407.507812 C 763.1875 407.613281 763.160156 407.703125 763.136719 407.773438 C 762.683594 409.082031 761.890625 410.105469 760.75 410.839844 C 759.382812 411.722656 757.636719 412.164062 755.515625 412.164062 C 753.355469 412.164062 751.757812 411.597656 750.71875 410.464844 C 749.683594 409.332031 749.382812 407.847656 749.820312 406.015625 L 750.570312 402.882812 C 751.007812 401.054688 751.996094 399.574219 753.527344 398.4375 C 755.058594 397.300781 756.863281 396.730469 758.9375 396.730469 Z M 729.6875 396.730469 C 731.902344 396.730469 733.511719 397.175781 734.511719 398.0625 C 735.289062 398.75 735.660156 400.066406 735.539062 401.140625 C 735.523438 401.273438 735.488281 401.441406 735.425781 401.636719 C 735.363281 401.84375 735.171875 401.984375 734.957031 401.984375 L 731.773438 401.984375 C 731.546875 401.984375 731.347656 401.828125 731.296875 401.605469 C 731.269531 401.503906 731.242188 401.417969 731.210938 401.355469 C 730.890625 400.710938 730.074219 400.269531 728.957031 400.269531 C 727.5 400.269531 725.707031 401.339844 725.3125 403.300781 C 725.09375 404.128906 724.917969 404.824219 724.78125 405.382812 C 724.421875 406.890625 724.519531 408.722656 726.910156 408.722656 C 727.71875 408.722656 728.941406 408.734375 729.765625 407.511719 C 729.820312 407.433594 729.886719 407.3125 729.96875 407.15625 C 730.050781 406.992188 730.21875 406.890625 730.40625 406.890625 L 733.492188 406.890625 C 733.535156 406.890625 733.574219 406.894531 733.617188 406.90625 C 733.878906 406.976562 734.035156 407.246094 733.96875 407.507812 C 733.9375 407.613281 733.914062 407.703125 733.886719 407.773438 C 733.4375 409.082031 732.640625 410.105469 731.5 410.839844 C 730.132812 411.722656 728.386719 412.164062 726.269531 412.164062 C 724.105469 412.164062 722.507812 411.597656 721.46875 410.464844 C 720.433594 409.332031 720.132812 407.847656 720.574219 406.015625 L 721.324219 402.882812 C 721.761719 401.054688 722.746094 399.574219 724.277344 398.4375 C 725.8125 397.300781 727.613281 396.730469 729.6875 396.730469 Z M 772.660156 396.949219 C 778.878906 396.949219 778.660156 399.628906 778.402344 401.023438 C 778.265625 401.746094 778.035156 402.296875 777.539062 402.921875 C 777.042969 403.546875 776.316406 403.941406 775.429688 404.222656 C 777.257812 404.695312 777.523438 406.132812 777.300781 407.335938 C 777.082031 408.539062 776.464844 409.554688 776.054688 409.96875 C 775.121094 410.910156 773.5 411.949219 770.003906 411.949219 L 763.964844 411.949219 C 763.925781 411.949219 763.886719 411.945312 763.847656 411.9375 C 763.585938 411.871094 763.421875 411.605469 763.484375 411.34375 L 766.84375 397.324219 C 766.894531 397.105469 767.09375 396.949219 767.320312 396.949219 Z M 744.449219 396.949219 C 749.90625 396.949219 750.023438 400.359375 749.671875 401.835938 C 749.316406 403.3125 748.691406 407.445312 741.957031 407.445312 L 739.339844 407.445312 L 738.332031 411.574219 C 738.277344 411.792969 738.082031 411.949219 737.855469 411.949219 L 734.808594 411.949219 C 734.769531 411.949219 734.730469 411.945312 734.691406 411.9375 C 734.429688 411.871094 734.265625 411.605469 734.328125 411.34375 L 737.6875 397.324219 C 737.738281 397.105469 737.9375 396.949219 738.164062 396.949219 Z M 714.050781 396.949219 C 714.089844 396.949219 714.128906 396.953125 714.167969 396.960938 C 714.429688 397.023438 714.59375 397.289062 714.53125 397.554688 L 712.046875 407.886719 C 712.035156 407.925781 712.03125 407.964844 712.03125 408.003906 C 712.03125 408.273438 712.253906 408.496094 712.523438 408.496094 L 718.78125 408.496094 C 718.820312 408.496094 718.859375 408.5 718.894531 408.507812 C 719.160156 408.570312 719.324219 408.835938 719.261719 409.101562 L 718.675781 411.570312 C 718.625 411.792969 718.425781 411.949219 718.199219 411.949219 L 707.648438 411.949219 C 707.609375 411.949219 707.574219 411.945312 707.535156 411.9375 C 707.269531 411.871094 707.109375 411.605469 707.171875 411.34375 L 710.527344 397.324219 C 710.582031 397.105469 710.777344 396.949219 711.007812 396.949219 Z M 771.234375 405.671875 L 769.355469 405.671875 C 769.128906 405.671875 768.929688 405.824219 768.875 406.046875 L 768.339844 408.253906 C 768.328125 408.292969 768.324219 408.332031 768.324219 408.371094 C 768.324219 408.644531 768.546875 408.863281 768.816406 408.863281 L 770.246094 408.863281 C 772.394531 408.863281 772.972656 407.863281 773.109375 407.351562 C 773.253906 406.808594 773.109375 405.671875 771.234375 405.671875 Z M 681.578125 397.742188 C 681.511719 398.105469 681.257812 399.324219 681.011719 400.507812 C 680.71875 401.929688 680.386719 403.53125 680.21875 404.390625 L 680.191406 404.53125 L 680.167969 404.652344 L 681.03125 404.65625 C 681.984375 404.660156 683.03125 404.667969 683.902344 404.667969 L 684.261719 404.667969 L 683.832031 406.8125 L 683.652344 406.8125 C 682.75 406.816406 680.117188 406.816406 678.523438 406.820312 L 677.558594 406.820312 C 677.714844 406.035156 678.625 401.550781 679.113281 399.144531 L 679.148438 398.964844 L 679.394531 397.742188 L 679.585938 397.742188 C 680.097656 397.742188 681.175781 397.746094 681.578125 397.742188 Z M 667.644531 397.703125 L 666.371094 403.851562 C 665.988281 405.707031 664.59375 406.8125 662.640625 406.8125 C 661.667969 406.8125 660.914062 406.519531 660.460938 405.964844 C 660.050781 405.460938 659.914062 404.789062 660.050781 403.964844 L 660.085938 403.785156 L 660.191406 403.273438 L 662.347656 403.273438 L 662.238281 403.796875 C 662.164062 404.171875 662.203125 404.460938 662.34375 404.632812 C 662.464844 404.78125 662.664062 404.851562 662.9375 404.851562 C 663.578125 404.851562 664.042969 404.460938 664.226562 403.773438 L 664.257812 403.640625 L 665.488281 397.703125 Z M 693.980469 400.117188 C 694 400.222656 694.003906 400.472656 694.003906 400.613281 L 694.003906 400.714844 L 691.90625 400.703125 L 691.863281 400.585938 C 691.570312 399.84375 691.0625 399.527344 690.207031 399.558594 C 689.554688 399.582031 688.976562 399.839844 688.535156 400.304688 C 688.070312 400.792969 687.753906 401.503906 687.617188 402.359375 C 687.484375 403.191406 687.578125 403.878906 687.890625 404.347656 C 688.191406 404.800781 688.683594 405.03125 689.316406 405.011719 C 690.125 404.988281 690.863281 404.542969 691.320312 403.878906 L 691.40625 403.746094 L 691.441406 403.691406 L 693.503906 403.695312 C 693.386719 404.039062 693.234375 404.371094 693.03125 404.671875 C 692.140625 405.984375 690.75 406.730469 689.054688 406.792969 C 688.980469 406.792969 688.90625 406.796875 688.835938 406.796875 C 685.902344 406.796875 685.207031 404.566406 685.542969 402.4375 C 685.738281 401.191406 686.25 400.105469 687.015625 399.292969 C 687.902344 398.355469 689.101562 397.832031 690.492188 397.78125 C 692.375 397.71875 693.695312 398.585938 693.980469 400.117188 Z M 677.871094 400.382812 C 678.050781 402.421875 676.554688 404.234375 674.679688 404.460938 C 673.167969 404.644531 673.121094 403.796875 673.027344 403.6875 C 672.664062 403.9375 672.53125 404.089844 672.023438 404.261719 C 671.59375 404.410156 671.082031 404.4375 670.664062 404.261719 C 668.957031 403.535156 670.699219 400.238281 672.988281 400.125 C 673.753906 400.089844 673.949219 400.320312 674.042969 400.507812 L 674.058594 400.542969 L 674.234375 400.210938 L 675.324219 400.210938 C 675.324219 400.210938 674.121094 402.714844 674.113281 403.164062 C 674.105469 403.871094 675.203125 403.53125 675.53125 403.324219 C 676.910156 402.457031 677.289062 400.101562 675.957031 399.128906 C 673.824219 397.574219 668.800781 399.285156 668.476562 403.136719 C 668.296875 405.273438 670.285156 406.019531 672.058594 405.863281 C 672.855469 405.792969 673.082031 405.644531 673.605469 405.484375 L 673.742188 405.445312 L 673.933594 406.226562 C 673.550781 406.476562 672.492188 406.699219 671.949219 406.742188 C 667.4375 407.105469 666.019531 403.710938 668.484375 400.355469 C 670.945312 397.003906 677.539062 396.585938 677.871094 400.382812 Z M 743.386719 400.136719 L 740.960938 400.136719 L 740.113281 404.066406 L 742.539062 404.066406 C 743.355469 404.066406 744.015625 403.886719 744.523438 403.523438 C 745.035156 403.160156 745.347656 402.695312 745.472656 402.125 C 745.597656 401.542969 745.488281 401.066406 745.140625 400.695312 C 744.792969 400.324219 744.210938 400.136719 743.386719 400.136719 Z M 672.742188 401.089844 C 671.824219 401.320312 671.121094 402.523438 671.3125 403.140625 C 671.496094 403.726562 672.386719 403.480469 672.863281 403.003906 C 673.007812 402.855469 673.566406 401.445312 673.558594 401.390625 C 673.515625 401.121094 673.089844 401 672.742188 401.089844 Z M 771.734375 399.761719 L 770.539062 399.761719 C 770.425781 399.761719 770.328125 399.839844 770.300781 399.949219 L 769.566406 402.878906 C 769.5625 402.894531 769.558594 402.910156 769.558594 402.925781 C 769.550781 403.0625 769.65625 403.179688 769.792969 403.183594 C 769.945312 403.191406 770.101562 403.199219 770.257812 403.207031 C 770.46875 403.21875 770.515625 403.21875 771.230469 403.207031 C 771.945312 403.195312 772.742188 402.988281 773.242188 402.664062 C 773.8125 402.292969 774.054688 401.824219 774.128906 401.527344 C 774.28125 400.914062 774.164062 400.464844 773.769531 400.183594 C 773.375 399.902344 772.695312 399.761719 771.734375 399.761719 Z M 687.714844 393.050781 C 688.804688 393.617188 689.992188 394.460938 690.84375 395.339844 C 691.222656 395.730469 691.96875 396.578125 692.210938 397.054688 L 692.253906 397.15625 L 685.082031 397.152344 C 685.007812 396.949219 684.621094 396.445312 684.484375 396.285156 C 683.792969 395.464844 682.984375 394.816406 681.988281 394.359375 C 678.242188 392.640625 673.339844 393.53125 669.539062 394.773438 C 668.871094 394.992188 667.859375 395.402344 667.382812 395.546875 C 667.824219 395.328125 668.3125 395.039062 668.796875 394.804688 C 670.292969 394.082031 671.765625 393.433594 673.363281 392.890625 C 675.585938 392.136719 678.035156 391.558594 680.601562 391.503906 C 683.222656 391.449219 685.730469 392.007812 687.714844 393.050781 Z M 687.714844 393.050781 " fill-opacity="1" fill-rule="evenodd"/></g></svg>